<svg xmlns="http://www.w3.org/2000/svg" width="56" height="46" viewBox="0 0 56 46"><g><g><g><path fill="#ffe600" d="M0 31.13c0-.917.724-1.66 1.616-1.66H48.49c.893 0 1.616.743 1.616 1.66V43.53c0 .917-.723 1.66-1.616 1.66H1.616C.724 45.19 0 44.446 0 43.53z"/></g><g><path fill="#232323" d="M18.176 13.754a6.067 6.067 0 0 1-3.548-1.159 6.794 6.794 0 0 1-2.352-3.086 7.37 7.37 0 0 1-.363-3.973 7.056 7.056 0 0 1 1.747-3.522A6.259 6.259 0 0 1 16.93.132a5.963 5.963 0 0 1 3.69.391 6.513 6.513 0 0 1 2.866 2.533 7.259 7.259 0 0 1 1.076 3.821c-.002 1.824-.675 3.572-1.872 4.861-1.198 1.29-2.82 2.015-4.514 2.016zm0-12.154c-.97 0-1.917.31-2.723.89a5.214 5.214 0 0 0-1.806 2.369 5.657 5.657 0 0 0-.278 3.05 5.416 5.416 0 0 0 1.341 2.702 4.804 4.804 0 0 0 2.51 1.445c.951.203 1.937.099 2.832-.301a5 5 0 0 0 2.2-1.945 5.572 5.572 0 0 0 .826-2.933c-.003-1.399-.52-2.74-1.439-3.728-.919-.989-2.164-1.545-3.463-1.546z"/></g><g><path fill="#232323" d="M12.281 29.47c-.13 0-.255-.085-.347-.236a1.117 1.117 0 0 1-.144-.57v-6.248c0-.214.052-.419.144-.57.092-.151.217-.236.347-.236.13 0 .255.085.348.236.092.151.143.356.143.57v6.248c0 .214-.051.419-.143.57-.093.15-.217.236-.348.236z"/></g><g><path fill="#232323" d="M24.562 27.505c-.26 0-.51-.099-.694-.275a.915.915 0 0 1-.288-.662v-4.021c0-.249.104-.487.288-.663.184-.175.434-.274.694-.274.261 0 .51.099.695.274a.915.915 0 0 1 .288.663v4.022a.915.915 0 0 1-.288.662 1.007 1.007 0 0 1-.695.274z"/></g><g><path fill="#232323" d="M3.716 33.405a.724.724 0 0 1-.542-.254.928.928 0 0 1-.224-.613v-4.161c0-.23.08-.45.224-.613a.724.724 0 0 1 .542-.254h51.52c.204 0 .398.091.542.254a.928.928 0 0 1 .225.613v4.157a.963.963 0 0 1-.058.333.88.88 0 0 1-.166.283.767.767 0 0 1-.249.188.69.69 0 0 1-.294.067zm.767-1.73h49.99v-2.431H4.482z"/></g><g><path fill="#232323" d="M5.68 37.335a.765.765 0 0 1-.544-.23.788.788 0 0 1-.226-.552v-4.33c0-.208.081-.407.226-.554a.765.765 0 0 1 .545-.229h47.581c.205 0 .4.082.545.23a.788.788 0 0 1 .226.552v4.333a.788.788 0 0 1-.227.551.765.765 0 0 1-.544.229zm.77-1.565h46.044v-2.767H6.449z"/></g><g><path fill="#232323" d="M49.358 40.278a.796.796 0 0 1-.528-.194.628.628 0 0 1-.218-.47v-1.94h-38.28v1.942a.628.628 0 0 1-.218.47.796.796 0 0 1-.528.194.796.796 0 0 1-.527-.194.628.628 0 0 1-.219-.47v-2.603c0-.176.079-.344.219-.469a.796.796 0 0 1 .527-.194h39.77c.199 0 .389.07.529.194.14.125.218.293.218.47v2.602c0 .176-.08.344-.219.468a.796.796 0 0 1-.526.194z"/></g><g><path fill="#232323" d="M35.18 29.47c-.21 0-.41-.07-.559-.196a.621.621 0 0 1-.231-.473v-1.384c0-.498.234-.975.65-1.327.415-.352.979-.55 1.566-.55h9.323c.588 0 1.15.198 1.566.55.415.352.649.829.65 1.327V28.8a.621.621 0 0 1-.23.472.866.866 0 0 1-.555.197zm.787-1.337h10.606v-.717a.505.505 0 0 0-.188-.384.705.705 0 0 0-.453-.159h-9.324a.705.705 0 0 0-.453.159.505.505 0 0 0-.188.384z"/></g><g><path fill="#232323" d="M37.155 26.522a.823.823 0 0 1-.57-.226.757.757 0 0 1-.235-.546v-3.367c0-.205.085-.402.236-.547a.823.823 0 0 1 .57-.226h7.231c.214 0 .418.081.57.226a.757.757 0 0 1 .235.547v3.368a.746.746 0 0 1-.237.546.808.808 0 0 1-.57.225zm.802-1.545h5.626v-1.824H37.96z"/></g><g><path fill="#232323" d="M33.029 23.58c-.209 0-.416-.04-.608-.114a1.602 1.602 0 0 1-.516-.323 1.486 1.486 0 0 1-.344-.483c-.08-.18-.121-.374-.121-.57v-8.813c0-.394.168-.772.466-1.051a1.647 1.647 0 0 1 1.123-.436h15.49c.421 0 .825.157 1.122.436.298.279.465.657.466 1.05v8.815c0 .195-.041.388-.12.569-.08.18-.198.345-.345.483a1.601 1.601 0 0 1-.516.323c-.193.075-.4.113-.608.113zm0-10.339l-.039 8.85 15.528.036.037-8.852-.037-.036z"/></g><g><path fill="#232323" d="M40.777 19.652a2.456 2.456 0 1 1-.002-4.912 2.456 2.456 0 0 1 .002 4.912zm0-3.336a.881.881 0 1 0 0 1.763.881.881 0 0 0 0-1.763z"/></g><g><path fill="#232323" d="M15.492 29.47a.77.77 0 0 1-.532-.21.704.704 0 0 1-.22-.51v-.988c0-.589.246-1.154.682-1.57a2.382 2.382 0 0 1 1.642-.652h12.053c.616 0 1.207.235 1.643.651.436.417.68.982.682 1.571v.989c0 .19-.08.373-.22.508a.77.77 0 0 1-.531.21zm.75-1.439H29.94v-.27a.771.771 0 0 0-.242-.556.844.844 0 0 0-.582-.23H17.065a.843.843 0 0 0-.582.23.771.771 0 0 0-.241.556z"/></g><g><path fill="#232323" d="M6.637 29.47a.73.73 0 0 1-.528-.23.804.804 0 0 1-.219-.555V18.482a4.86 4.86 0 0 1 1.323-3.344 4.41 4.41 0 0 1 3.186-1.388h15.544c1.195.001 2.342.5 3.187 1.388a4.858 4.858 0 0 1 1.321 3.344v7.547c0 .12-.026.237-.077.344a.78.78 0 0 1-.213.274.713.713 0 0 1-.644.139.752.752 0 0 0-.202-.032H17.341a.8.8 0 0 0-.578.251.881.881 0 0 0-.24.607v1.073a.804.804 0 0 1-.218.554.73.73 0 0 1-.527.23zm.745-1.57h7.65v-.294c0-.642.244-1.258.677-1.712a2.259 2.259 0 0 1 1.632-.711h11.621v-6.7c0-.84-.319-1.646-.885-2.24a2.951 2.951 0 0 0-2.133-.928H10.4c-.8.001-1.567.335-2.132.93a3.253 3.253 0 0 0-.886 2.237z"/></g></g></g></svg>