<svg xmlns="http://www.w3.org/2000/svg" width="18" height="18" viewBox="0 0 18 18"><g><g><g/><g><g><g><path fill="#737373" d="M7.615 0c.383 0 .693.31.693.692v6.923c0 .383-.31.693-.693.693H.692A.692.692 0 0 1 0 7.615V.692C0 .31.31 0 .692 0zm-.692 6.923V1.385H1.385v5.538z"/></g></g></g><g><g><g><path fill="#737373" d="M17.305 0c.383 0 .693.31.693.692v6.923c0 .383-.31.693-.693.693h-6.923a.692.692 0 0 1-.692-.693V.692C9.69.31 10 0 10.382 0zm-.692 1.385h-5.538v5.538h5.538z"/></g></g></g><g><g><g><path fill="#737373" d="M7.615 9.69c.383 0 .693.31.693.692v6.923c0 .383-.31.693-.693.693H.692A.692.692 0 0 1 0 17.305v-6.923C0 10 .31 9.69.692 9.69zm-.692 6.923v-5.538H1.385v5.538z"/></g></g></g><g><g><g><path fill="#737373" d="M17.305 9.69c.383 0 .693.31.693.692v6.923c0 .383-.31.693-.693.693h-6.923a.692.692 0 0 1-.692-.693v-6.923c0-.382.31-.692.692-.692zm-.692 1.385h-5.538v5.538h5.538z"/></g></g></g></g></g></svg>