<svg xmlns="http://www.w3.org/2000/svg" width="41" height="29" viewBox="0 0 41 29"><g><g><g><path fill="#ffe600" d="M0 20.43a3 3 0 0 1 3-3h24.59a3 3 0 0 1 3 3v5.575a3 3 0 0 1-3 3H3a3 3 0 0 1-3-3z"/></g><g><path d="M37.652 16.352H22.441c-.169 0-.281-.11-.281-.276 0-.166.112-.276.28-.276h15.212c.169 0 .281.11.281.276 0 .166-.112.276-.28.276z"/><path fill="none" stroke="#000" stroke-miterlimit="50" stroke-width=".3" d="M37.652 16.352v0H22.441c-.169 0-.281-.11-.281-.276 0-.166.112-.276.28-.276h15.212c.169 0 .281.11.281.276 0 .166-.112.276-.28.276z"/></g><g><path d="M40.118 24.032H38.77c-.169 0-.281-.11-.281-.276 0-.166.112-.276.28-.276h1.348c.168 0 .28.11.28.276.057.166-.112.276-.28.276z"/><path fill="none" stroke="#000" stroke-miterlimit="50" stroke-width=".3" d="M40.118 24.032v0H38.77c-.169 0-.281-.11-.281-.276 0-.166.112-.276.28-.276h1.348c.168 0 .28.11.28.276.057.166-.112.276-.28.276z"/></g><g><path d="M27.878 24.032h-.617c-.169 0-.281-.11-.281-.276 0-.166.112-.276.28-.276h.618c.169 0 .28.11.28.276.057.166-.111.276-.28.276z"/><path fill="none" stroke="#000" stroke-miterlimit="50" stroke-width=".3" d="M27.878 24.032v0h-.617c-.169 0-.281-.11-.281-.276 0-.166.112-.276.28-.276h.618c.169 0 .28.11.28.276.057.166-.111.276-.28.276z"/></g><g><path d="M35.625 24.032c.168 0 .28-.11.28-.276 0-.166-.112-.276-.28-.276h-1.291c-.169 0-.28.11-.28.276 0 .166.111.276.28.276zm-3.873 0c.168 0 .336-.11.28-.276 0-.166-.112-.276-.28-.276H30.46c-.169 0-.281.11-.281.276 0 .166.112.276.28.276z"/><path fill="none" stroke="#000" stroke-miterlimit="50" stroke-width=".3" d="M35.625 24.032c.168 0 .28-.11.28-.276 0-.166-.112-.276-.28-.276h-1.291c-.169 0-.28.11-.28.276 0 .166.111.276.28.276zm-3.873 0c.168 0 .336-.11.28-.276 0-.166-.112-.276-.28-.276H30.46c-.169 0-.281.11-.281.276 0 .166.112.276.28.276z"/></g><g><path d="M38.828 24.032h-.617c-.169 0-.281-.11-.281-.276 0-.166.112-.276.28-.276h.618c.169 0 .28.11.28.276 0 .166-.111.276-.28.276z"/><path fill="none" stroke="#000" stroke-miterlimit="50" stroke-width=".3" d="M38.828 24.032v0h-.617c-.169 0-.281-.11-.281-.276 0-.166.112-.276.28-.276h.618c.169 0 .28.11.28.276 0 .166-.111.276-.28.276z"/></g><g><path d="M27.325 24.032H14.47c-.169 0-.281-.11-.281-.276 0-.166.112-.276.28-.276h12.855c.168 0 .28.11.28.276 0 .166-.112.276-.28.276z"/><path fill="none" stroke="#000" stroke-miterlimit="50" stroke-width=".3" d="M27.325 24.032v0H14.47c-.169 0-.281-.11-.281-.276 0-.166.112-.276.28-.276h12.855c.168 0 .28.11.28.276 0 .166-.112.276-.28.276z"/></g><g><path d="M34.505 21.111c-1.964 0-3.985-.552-3.985-1.601 0-.221.056-.498.505-.774.337-.276.842-.331 1.291-.22 1.235.33 3.2.33 4.435 0 .393-.111.842-.056 1.178.165.506.331.562.663.562.884 0 1.05-2.021 1.546-3.986 1.546zm-2.638-2.043a.915.915 0 0 0-.505.165c-.168.11-.225.221-.225.332 0 .386 1.291.994 3.368.994s3.368-.608 3.368-.994c0-.11-.112-.221-.28-.387-.169-.11-.45-.166-.674-.055-.674.22-1.516.276-2.414.276-.898 0-1.684-.11-2.413-.276-.056-.055-.169-.055-.225-.055z"/><path fill="none" stroke="#000" stroke-miterlimit="50" stroke-width=".3" d="M34.505 21.111c-1.964 0-3.985-.552-3.985-1.601 0-.221.056-.498.505-.774.337-.276.842-.331 1.291-.22 1.235.33 3.2.33 4.435 0 .393-.111.842-.056 1.178.165.506.331.562.663.562.884 0 1.05-2.021 1.546-3.986 1.546zm-2.638-2.043a.915.915 0 0 0-.505.165c-.168.11-.225.221-.225.332 0 .386 1.291.994 3.368.994s3.368-.608 3.368-.994c0-.11-.112-.221-.28-.387-.169-.11-.45-.166-.674-.055-.674.22-1.516.276-2.414.276-.898 0-1.684-.11-2.413-.276-.056-.055-.169-.055-.225-.055z"/></g><g><path d="M33.16 21.055c-.168 0-.28-.11-.28-.276v-1.713c0-.166.112-.276.28-.276.17 0 .281.11.281.276v1.713c0 .11-.112.276-.28.276z"/><path fill="none" stroke="#000" stroke-miterlimit="50" stroke-width=".3" d="M33.16 21.055c-.168 0-.28-.11-.28-.276v-1.713c0-.166.112-.276.28-.276.17 0 .281.11.281.276v1.713c0 .11-.112.276-.28.276z"/></g><g><path d="M37.65 13.48c-.168 0-.28-.11-.28-.276v-.608c0-.166.112-.276.28-.276.17 0 .281.11.281.276v.608c0 .11-.112.276-.28.276z"/><path fill="none" stroke="#000" stroke-miterlimit="50" stroke-width=".3" d="M37.65 13.48c-.168 0-.28-.11-.28-.276v-.608c0-.166.112-.276.28-.276.17 0 .281.11.281.276v.608c0 .11-.112.276-.28.276z"/></g><g><path d="M37.65 10.063c-.168 0-.28-.11-.28-.276v-1.38c0-.167.112-.277.28-.277.17 0 .281.11.281.276v1.381c0 .166-.112.276-.28.276z"/><path fill="none" stroke="#000" stroke-miterlimit="50" stroke-width=".3" d="M37.65 10.063c-.168 0-.28-.11-.28-.276v-1.38c0-.167.112-.277.28-.277.17 0 .281.11.281.276v1.381c0 .166-.112.276-.28.276z"/></g><g><path d="M37.647 5.86c-.169 0-.337-.166-.337-.331v-.553c0-.166.112-.276.28-.276.17 0 .281.11.281.276v.608c.056.11-.056.276-.224.276z"/><path fill="none" stroke="#000" stroke-miterlimit="50" stroke-width=".3" d="M37.647 5.86c-.169 0-.337-.166-.337-.331v-.553c0-.166.112-.276.28-.276.17 0 .281.11.281.276v.608c.056.11-.056.276-.224.276z"/></g><g><path d="M37.648 14.98H20.19c-.169 0-.281-.111-.281-.277V12.77c0-.055 0-.11.056-.166l4.94-6.186c1.46-1.878 3.704-2.928 6.062-2.928h6.68c.168 0 .28.11.28.276v1.215c0 .166-.112.277-.28.277-.169 0-.28-.11-.28-.277v-.939h-6.456c-2.19 0-4.266.995-5.613 2.707l-4.828 6.076v1.547h16.84v-1.215c0-.166.112-.277.28-.277.169 0 .281.11.281.277v1.546c.056.166-.056.276-.224.276z"/><path fill="none" stroke="#000" stroke-miterlimit="50" stroke-width=".3" d="M37.648 14.98v0H20.19c-.169 0-.281-.111-.281-.277V12.77c0-.055 0-.11.056-.166l4.94-6.186c1.46-1.878 3.704-2.928 6.062-2.928h6.68c.168 0 .28.11.28.276v1.215c0 .166-.112.277-.28.277-.169 0-.28-.11-.28-.277v-.939 0h-6.456c-2.19 0-4.266.995-5.613 2.707l-4.828 6.076v1.547h16.84v0-1.215c0-.166.112-.277.28-.277.169 0 .281.11.281.277v1.546c.056.166-.056.276-.224.276z"/></g><g><path d="M38.72 26.41H15.93c-.954 0-1.74-.774-1.74-1.713V16.41c0-.166.112-.276.28-.276.17 0 .281.11.281.276v8.286c0 .607.506 1.105 1.123 1.105h22.79c.617 0 1.122-.498 1.122-1.105V2.712c0-.607-.505-1.104-1.122-1.104h-7.747a9.63 9.63 0 0 0-7.577 3.645l-3.93 4.916c-.112.11-.28.166-.449.056-.112-.11-.168-.277-.056-.442l3.93-4.916A10.33 10.33 0 0 1 30.916 1h7.747c.954 0 1.74.773 1.74 1.712v21.985c.056.939-.73 1.712-1.684 1.712z"/><path fill="none" stroke="#000" stroke-miterlimit="50" stroke-width=".3" d="M38.72 26.41v0H15.93c-.954 0-1.74-.774-1.74-1.713V16.41c0-.166.112-.276.28-.276.17 0 .281.11.281.276v8.286c0 .607.506 1.105 1.123 1.105h22.79c.617 0 1.122-.498 1.122-1.105V2.712c0-.607-.505-1.104-1.122-1.104h-7.747a9.63 9.63 0 0 0-7.577 3.645l-3.93 4.916c-.112.11-.28.166-.449.056-.112-.11-.168-.277-.056-.442l3.93-4.916A10.33 10.33 0 0 1 30.916 1h7.747c.954 0 1.74.773 1.74 1.712v21.985c.056.939-.73 1.712-1.684 1.712z"/></g><g><path d="M14.47 16.855c-.168 0-.28-.11-.28-.276v-1.712c0-.166.112-.277.28-.277.618 0 1.18-.441 1.348-1.05l.954-3.48c.056-.11.168-.22.28-.22h2.078c.73 0 1.347.608 1.347 1.326v4.363c0 .719-.618 1.326-1.347 1.326zm.281-.607h4.322c.393 0 .786-.332.786-.774V11.11a.796.796 0 0 0-.786-.773h-1.852l-.842 3.26c-.224.772-.842 1.325-1.628 1.435z"/><path fill="none" stroke="#000" stroke-miterlimit="50" stroke-width=".3" d="M14.47 16.855c-.168 0-.28-.11-.28-.276v-1.712c0-.166.112-.277.28-.277.618 0 1.18-.441 1.348-1.05l.954-3.48c.056-.11.168-.22.28-.22h2.078c.73 0 1.347.608 1.347 1.326v4.363c0 .719-.618 1.326-1.347 1.326zm.281-.607h4.322c.393 0 .786-.332.786-.774V11.11a.796.796 0 0 0-.786-.773h-1.852l-.842 3.26c-.224.772-.842 1.325-1.628 1.435z"/></g><g><path d="M16.66 16.691c-.168 0-.28-.11-.28-.276v-.939c0-.166.112-.276.28-.276.17 0 .281.11.281.276v.94c0 .165-.112.275-.28.275z"/><path fill="none" stroke="#000" stroke-miterlimit="50" stroke-width=".3" d="M16.66 16.691c-.168 0-.28-.11-.28-.276v-.939c0-.166.112-.276.28-.276.17 0 .281.11.281.276v.94c0 .165-.112.275-.28.275z"/></g><g><path d="M14.799 24.09H.822v-.33c0-.111-.168-3.204 2.638-5.47 4.435-3.645 10.721-3.7 11.002-3.7h.393zm-.73-.717v-8.065c-1.403.055-6.511.552-10.16 3.535a6.63 6.63 0 0 0-2.357 4.53z"/></g></g></g></svg>