<svg xmlns="http://www.w3.org/2000/svg" width="41" height="38" viewBox="0 0 41 38"><g><g><g><path fill="#ffe600" d="M41.002 16.456c0 8.536-6.92 15.456-15.456 15.456S10.09 24.992 10.09 16.456 17.01 1 25.546 1s15.456 6.92 15.456 15.456z"/></g><g><g><path fill="#232323" d="M13.275 19.031c0 .993.253 1.952.723 2.798-1.031-.77-1.625-1.76-1.625-2.798 0-1.037.594-2.027 1.625-2.797a5.748 5.748 0 0 0-.723 2.797zm2.706 4.325a.412.412 0 0 0-.094-.522 4.924 4.924 0 0 1-1.79-3.803c0-1.474.652-2.86 1.79-3.803a.412.412 0 0 0-.405-.703c-2.425.89-3.932 2.617-3.932 4.506 0 1.89 1.507 3.617 3.933 4.506a.413.413 0 0 0 .498-.18z"/><path fill="none" stroke="#232323" stroke-miterlimit="50" stroke-width=".3" d="M13.275 19.031c0 .993.253 1.952.723 2.798-1.031-.77-1.625-1.76-1.625-2.798 0-1.037.594-2.027 1.625-2.797a5.748 5.748 0 0 0-.723 2.797zm2.706 4.325a.412.412 0 0 0-.094-.522 4.924 4.924 0 0 1-1.79-3.803c0-1.474.652-2.86 1.79-3.803a.412.412 0 0 0-.405-.703c-2.425.89-3.932 2.617-3.932 4.506 0 1.89 1.507 3.617 3.933 4.506a.413.413 0 0 0 .498-.18z"/></g><g><path fill="#232323" d="M25.692 19.03c0 1.04-.593 2.029-1.626 2.799.47-.846.724-1.805.724-2.798 0-.993-.254-1.952-.724-2.797 1.033.77 1.626 1.759 1.626 2.797zm-3.109 4.506c2.425-.888 3.932-2.616 3.932-4.505 0-1.89-1.507-3.616-3.932-4.506a.412.412 0 0 0-.405.703 4.924 4.924 0 0 1 1.79 3.803c0 1.474-.652 2.86-1.79 3.803a.412.412 0 0 0 .405.702z"/><path fill="none" stroke="#232323" stroke-miterlimit="50" stroke-width=".3" d="M25.692 19.03c0 1.04-.593 2.029-1.626 2.799.47-.846.724-1.805.724-2.798 0-.993-.254-1.952-.724-2.797 1.033.77 1.626 1.759 1.626 2.797zm-3.109 4.506c2.425-.888 3.932-2.616 3.932-4.505 0-1.89-1.507-3.616-3.932-4.506a.412.412 0 0 0-.405.703 4.924 4.924 0 0 1 1.79 3.803c0 1.474-.652 2.86-1.79 3.803a.412.412 0 0 0 .405.702z"/></g><g><path fill="#232323" d="M23.967 19.03a4.942 4.942 0 0 1-4.937 4.938 4.943 4.943 0 0 1-4.938-4.938 4.943 4.943 0 0 1 4.938-4.937 4.942 4.942 0 0 1 4.937 4.937zm.823 0a5.767 5.767 0 0 0-5.76-5.76 5.767 5.767 0 0 0-5.76 5.76 5.766 5.766 0 0 0 5.76 5.76 5.766 5.766 0 0 0 5.76-5.76z"/><path fill="none" stroke="#232323" stroke-miterlimit="50" stroke-width=".3" d="M23.967 19.03a4.942 4.942 0 0 1-4.937 4.938 4.943 4.943 0 0 1-4.938-4.938 4.943 4.943 0 0 1 4.938-4.937 4.942 4.942 0 0 1 4.937 4.937zm.823 0a5.767 5.767 0 0 0-5.76-5.76 5.767 5.767 0 0 0-5.76 5.76 5.766 5.766 0 0 0 5.76 5.76 5.766 5.766 0 0 0 5.76-5.76z"/></g><g><path fill="#232323" d="M22.022 19.444a.411.411 0 0 1-.41-.41 2.582 2.582 0 0 0-2.58-2.58.41.41 0 1 1 0-.824 3.407 3.407 0 0 1 3.402 3.403.411.411 0 0 1-.412.411z"/><path fill="none" stroke="#232323" stroke-miterlimit="50" stroke-width=".3" d="M22.022 19.444a.411.411 0 0 1-.41-.41 2.582 2.582 0 0 0-2.58-2.58.41.41 0 1 1 0-.824 3.407 3.407 0 0 1 3.402 3.403.411.411 0 0 1-.412.411z"/></g><g><path fill="#232323" d="M21.042 32.766a.412.412 0 0 1-.412-.41v-.824a.412.412 0 0 1 .823 0v.823a.411.411 0 0 1-.411.411z"/><path fill="none" stroke="#232323" stroke-miterlimit="50" stroke-width=".3" d="M21.042 32.766a.412.412 0 0 1-.412-.41v-.824a.412.412 0 0 1 .823 0v.823a.411.411 0 0 1-.411.411z"/></g><g><path fill="#232323" d="M21.042 30.014a.412.412 0 0 1-.412-.41v-.963a.412.412 0 0 1 .823 0v.962a.41.41 0 0 1-.411.411z"/><path fill="none" stroke="#232323" stroke-miterlimit="50" stroke-width=".3" d="M21.042 30.014a.412.412 0 0 1-.412-.41v-.963a.412.412 0 0 1 .823 0v.962a.41.41 0 0 1-.411.411z"/></g><g><path fill="#232323" d="M21.042 27.135a.412.412 0 0 1-.412-.41v-.823a.412.412 0 1 1 .823 0v.822a.41.41 0 0 1-.411.411z"/><path fill="none" stroke="#232323" stroke-miterlimit="50" stroke-width=".3" d="M21.042 27.135a.412.412 0 0 1-.412-.41v-.823a.412.412 0 1 1 .823 0v.822a.41.41 0 0 1-.411.411z"/></g><g><path fill="#232323" d="M19.036 34.26c-.667 0-1.36-.049-2.06-.143a.412.412 0 0 1-.356-.408v-9.298a.71.71 0 0 1 .922-.677c.97.31 2.02.31 2.988 0a.709.709 0 0 1 .923.677v1.485a.411.411 0 0 1-.823 0v-1.333a5.739 5.739 0 0 1-3.188 0v8.782c1.084.122 2.104.122 3.188 0v-.996a.411.411 0 1 1 .823 0v1.36c0 .205-.153.38-.357.408-.7.094-1.393.142-2.06.142z"/><path fill="none" stroke="#232323" stroke-miterlimit="50" stroke-width=".3" d="M19.036 34.26c-.667 0-1.36-.049-2.06-.143a.412.412 0 0 1-.356-.408v-9.298a.71.71 0 0 1 .922-.677c.97.31 2.02.31 2.988 0a.709.709 0 0 1 .923.677v1.485a.411.411 0 0 1-.823 0v-1.333a5.739 5.739 0 0 1-3.188 0v8.782c1.084.122 2.104.122 3.188 0v-.996a.411.411 0 1 1 .823 0v1.36c0 .205-.153.38-.357.408-.7.094-1.393.142-2.06.142z"/></g><g><path fill="#232323" d="M29.576 9.032a.408.408 0 0 1-.293-.122c-.187-.19-.38-.374-.578-.554a.412.412 0 0 1 .553-.61c.208.19.412.385.61.584a.412.412 0 0 1-.292.702z"/><path fill="none" stroke="#232323" stroke-miterlimit="50" stroke-width=".3" d="M29.576 9.032a.408.408 0 0 1-.293-.122c-.187-.19-.38-.374-.578-.554a.412.412 0 0 1 .553-.61c.208.19.412.385.61.584a.412.412 0 0 1-.292.702z"/></g><g><path fill="#232323" d="M25.659 6.19a.409.409 0 0 1-.184-.043 14.304 14.304 0 0 0-1.806-.756.41.41 0 1 1 .264-.78c.653.223 1.295.492 1.91.8a.41.41 0 0 1-.184.779z"/><path fill="none" stroke="#232323" stroke-miterlimit="50" stroke-width=".3" d="M25.659 6.19a.409.409 0 0 1-.184-.043 14.304 14.304 0 0 0-1.806-.756.41.41 0 1 1 .264-.78c.653.223 1.295.492 1.91.8a.41.41 0 0 1-.184.779z"/></g><g><path fill="#232323" d="M19.855 4.645a15.376 15.376 0 0 0-.824-.023.41.41 0 1 1 0-.822c.284 0 .565.008.845.023a.41.41 0 0 1-.02.822z"/><path fill="none" stroke="#232323" stroke-miterlimit="50" stroke-width=".3" d="M19.855 4.645a15.376 15.376 0 0 0-.824-.023.41.41 0 1 1 0-.822c.284 0 .565.008.845.023a.41.41 0 0 1-.02.822z"/></g><g><path fill="#232323" d="M19.03 34.26c-8.398 0-15.23-6.832-15.23-15.23S10.632 3.8 19.03 3.8a.412.412 0 0 1 0 .822c-7.944 0-14.408 6.464-14.408 14.408 0 7.945 6.464 14.408 14.408 14.408 7.945 0 14.408-6.463 14.408-14.408 0-3.816-1.477-7.413-4.16-10.127a.411.411 0 1 1 .586-.58A15.142 15.142 0 0 1 34.26 19.03c0 8.399-6.833 15.23-15.23 15.23z"/><path fill="none" stroke="#232323" stroke-miterlimit="50" stroke-width=".3" d="M19.03 34.26c-8.398 0-15.23-6.832-15.23-15.23S10.632 3.8 19.03 3.8a.412.412 0 0 1 0 .822c-7.944 0-14.408 6.464-14.408 14.408 0 7.945 6.464 14.408 14.408 14.408 7.945 0 14.408-6.463 14.408-14.408 0-3.816-1.477-7.413-4.16-10.127a.411.411 0 1 1 .586-.58A15.142 15.142 0 0 1 34.26 19.03c0 8.399-6.833 15.23-15.23 15.23z"/></g><g><path fill="#232323" d="M30.231 12.982a.41.41 0 0 1-.109-.808l.793-.22a.412.412 0 1 1 .22.793l-.794.22a.39.39 0 0 1-.11.015z"/><path fill="none" stroke="#232323" stroke-miterlimit="50" stroke-width=".3" d="M30.231 12.982a.41.41 0 0 1-.109-.808l.793-.22a.412.412 0 1 1 .22.793l-.794.22a.39.39 0 0 1-.11.015z"/></g><g><path fill="#232323" d="M27.501 13.734a.412.412 0 0 1-.109-.808l.91-.252a.411.411 0 1 1 .219.793l-.91.252a.425.425 0 0 1-.11.015z"/><path fill="none" stroke="#232323" stroke-miterlimit="50" stroke-width=".3" d="M27.501 13.734a.412.412 0 0 1-.109-.808l.91-.252a.411.411 0 1 1 .219.793l-.91.252a.425.425 0 0 1-.11.015z"/></g><g><path fill="#232323" d="M24.89 14.463a.412.412 0 0 1-.108-.809l.793-.22a.412.412 0 0 1 .219.793l-.793.22a.39.39 0 0 1-.11.016z"/><path fill="none" stroke="#232323" stroke-miterlimit="50" stroke-width=".3" d="M24.89 14.463a.412.412 0 0 1-.108-.809l.793-.22a.412.412 0 0 1 .219.793l-.793.22a.39.39 0 0 1-.11.016z"/></g><g><path fill="#232323" d="M25.904 18.338a.413.413 0 0 1-.387-.27c-.382-1.057-1.382-1.986-2.774-2.594a.414.414 0 0 1-.395-.09 4.997 4.997 0 0 0-.336-.283.41.41 0 0 1 .14-.724l2.63-.727a.412.412 0 0 1 .218.792l-1.582.438c1.276.63 2.235 1.526 2.726 2.554l6.865-1.898a14.32 14.32 0 0 0-1.115-3l-.76.211a.412.412 0 0 1-.22-.793l1.083-.3a.411.411 0 0 1 .472.204 15.179 15.179 0 0 1 1.432 3.88.412.412 0 0 1-.292.485l-7.595 2.1a.422.422 0 0 1-.11.015z"/><path fill="none" stroke="#232323" stroke-miterlimit="50" stroke-width=".3" d="M25.904 18.338a.413.413 0 0 1-.387-.27c-.382-1.057-1.382-1.986-2.774-2.594a.414.414 0 0 1-.395-.09 4.997 4.997 0 0 0-.336-.283.41.41 0 0 1 .14-.724l2.63-.727a.412.412 0 0 1 .218.792l-1.582.438c1.276.63 2.235 1.526 2.726 2.554l6.865-1.898a14.32 14.32 0 0 0-1.115-3l-.76.211a.412.412 0 0 1-.22-.793l1.083-.3a.411.411 0 0 1 .472.204 15.179 15.179 0 0 1 1.432 3.88.412.412 0 0 1-.292.485l-7.595 2.1a.422.422 0 0 1-.11.015z"/></g><g><path fill="#232323" d="M5.052 15.536c.259-1.04.633-2.047 1.115-3l8.477 2.344c-1.277.63-2.236 1.526-2.727 2.554zm7.492 2.53c.382-1.055 1.381-1.984 2.773-2.592.134.04.284.01.395-.09.109-.099.22-.194.337-.283a.411.411 0 0 0-.139-.724l-9.845-2.722a.412.412 0 0 0-.473.203 15.097 15.097 0 0 0-1.432 3.88.411.411 0 0 0 .292.486l7.595 2.1a.412.412 0 0 0 .497-.257z"/><path fill="none" stroke="#232323" stroke-miterlimit="50" stroke-width=".3" d="M5.052 15.536c.259-1.04.633-2.047 1.115-3l8.477 2.344c-1.277.63-2.236 1.526-2.727 2.554zm7.492 2.53c.382-1.055 1.381-1.984 2.773-2.592.134.04.284.01.395-.09.109-.099.22-.194.337-.283a.411.411 0 0 0-.139-.724l-9.845-2.722a.412.412 0 0 0-.473.203 15.097 15.097 0 0 0-1.432 3.88.411.411 0 0 0 .292.486l7.595 2.1a.412.412 0 0 0 .497-.257z"/></g><g><path fill="#232323" d="M3.276 11.283a.413.413 0 0 0 .355-.652.912.912 0 0 1-.178-.54c0-.51.415-.925.925-.925.065 0 .134.01.219.03a.412.412 0 0 0 .432-.16l.062-.089a.41.41 0 0 0 .02-.453.917.917 0 0 1 1.12-1.333c.152.059.327.02.442-.098.116-.12.233-.238.352-.354a.411.411 0 0 0 .093-.452.926.926 0 0 1 .854-1.28c.171 0 .34.05.492.145.142.09.325.084.461-.015a17.076 17.076 0 0 1 10.106-3.284c3.657 0 7.153 1.135 10.108 3.284.135.1.32.105.461.015a.924.924 0 0 1 .492-.145.925.925 0 0 1 .854 1.279.412.412 0 0 0 .093.453c.119.117.236.234.352.354.115.118.29.157.443.098.634-.244 1.255.242 1.255.86a.918.918 0 0 1-.135.473.41.41 0 0 0 .019.453l.063.09a.41.41 0 0 0 .43.16.91.91 0 0 1 .22-.03c.509 0 .924.414.924.924 0 .192-.061.379-.177.54a.413.413 0 0 0 .354.652.161.161 0 0 0 .05-.007.918.918 0 1 1 .577 1.64.41.41 0 0 0-.13.454c.635 1.826.957 3.73.957 5.662 0 9.49-7.72 17.21-17.21 17.21-9.489 0-17.209-7.72-17.209-17.21 0-1.932.323-3.837.958-5.66a.41.41 0 0 0-.13-.456.92.92 0 0 1 .56-1.64c.01.001.054.006.066.006zm33.788 7.75c0-1.936-.31-3.846-.919-5.683.281-.317.438-.723.438-1.15a1.75 1.75 0 0 0-1.209-1.662 1.75 1.75 0 0 0-1.497-2.184 1.75 1.75 0 0 0-1.714-2.08c-.118 0-.238.013-.369.026a1.75 1.75 0 0 0-1.702-2.146c-.233 0-.462.048-.677.14A17.89 17.89 0 0 0 19.03 1 17.89 17.89 0 0 0 8.65 4.293a1.729 1.729 0 0 0-.677-.14 1.75 1.75 0 0 0-1.748 1.748c0 .135.015.268.033.411a1.673 1.673 0 0 0-.357-.038 1.75 1.75 0 0 0-1.714 2.08 1.75 1.75 0 0 0-1.497 2.184 1.75 1.75 0 0 0-1.21 1.663c0 .426.158.832.439 1.149A18.012 18.012 0 0 0 1 19.032c0 9.943 8.09 18.032 18.031 18.032 9.943 0 18.033-8.089 18.033-18.032z"/><path fill="none" stroke="#232323" stroke-miterlimit="50" stroke-width=".3" d="M3.276 11.283a.413.413 0 0 0 .355-.652.912.912 0 0 1-.178-.54c0-.51.415-.925.925-.925.065 0 .134.01.219.03a.412.412 0 0 0 .432-.16l.062-.089a.41.41 0 0 0 .02-.453.917.917 0 0 1 1.12-1.333c.152.059.327.02.442-.098.116-.12.233-.238.352-.354a.411.411 0 0 0 .093-.452.926.926 0 0 1 .854-1.28c.171 0 .34.05.492.145.142.09.325.084.461-.015a17.076 17.076 0 0 1 10.106-3.284c3.657 0 7.153 1.135 10.108 3.284.135.1.32.105.461.015a.924.924 0 0 1 .492-.145.925.925 0 0 1 .854 1.279.412.412 0 0 0 .093.453c.119.117.236.234.352.354.115.118.29.157.443.098.634-.244 1.255.242 1.255.86a.918.918 0 0 1-.135.473.41.41 0 0 0 .019.453l.063.09a.41.41 0 0 0 .43.16.91.91 0 0 1 .22-.03c.509 0 .924.414.924.924 0 .192-.061.379-.177.54a.413.413 0 0 0 .354.652.161.161 0 0 0 .05-.007.918.918 0 1 1 .577 1.64.41.41 0 0 0-.13.454c.635 1.826.957 3.73.957 5.662 0 9.49-7.72 17.21-17.21 17.21-9.489 0-17.209-7.72-17.209-17.21 0-1.932.323-3.837.958-5.66a.41.41 0 0 0-.13-.456.92.92 0 0 1 .56-1.64c.01.001.054.006.066.006zm33.788 7.75c0-1.936-.31-3.846-.919-5.683.281-.317.438-.723.438-1.15a1.75 1.75 0 0 0-1.209-1.662 1.75 1.75 0 0 0-1.497-2.184 1.75 1.75 0 0 0-1.714-2.08c-.118 0-.238.013-.369.026a1.75 1.75 0 0 0-1.702-2.146c-.233 0-.462.048-.677.14A17.89 17.89 0 0 0 19.03 1 17.89 17.89 0 0 0 8.65 4.293a1.729 1.729 0 0 0-.677-.14 1.75 1.75 0 0 0-1.748 1.748c0 .135.015.268.033.411a1.673 1.673 0 0 0-.357-.038 1.75 1.75 0 0 0-1.714 2.08 1.75 1.75 0 0 0-1.497 2.184 1.75 1.75 0 0 0-1.21 1.663c0 .426.158.832.439 1.149A18.012 18.012 0 0 0 1 19.032c0 9.943 8.09 18.032 18.031 18.032 9.943 0 18.033-8.089 18.033-18.032z"/></g></g></g></g></svg>