<svg xmlns="http://www.w3.org/2000/svg" width="37" height="36" viewBox="0 0 37 36"><g><g><g><path fill="#ffe600" d="M29.504 20.472c0 8.147-6.605 14.752-14.752 14.752S0 28.619 0 20.472 6.605 5.72 14.752 5.72s14.752 6.605 14.752 14.752z"/></g><g><path fill="#232323" d="M34.89 15.445l-.191-.34M14.91 32.798a.734.734 0 0 0-.49-.707.736.736 0 0 0-.83.227l-.655.798a16.252 16.252 0 0 1-3.128-1.811l.362-.963a.736.736 0 0 0-.219-.832.735.735 0 0 0-.857-.07l-.885.523a16.435 16.435 0 0 1-2.324-2.77l.67-.78a.735.735 0 0 0 .079-.857.735.735 0 0 0-.782-.359l-1.012.19a16.225 16.225 0 0 1-1.237-3.398l.898-.506a.735.735 0 0 0 .367-.777.737.737 0 0 0-.611-.605l-1.013-.168a16.243 16.243 0 0 1-.104-1.808c0-.584.034-1.192.104-1.808l1.013-.167a.737.737 0 0 0 .61-.605.735.735 0 0 0-.366-.778l-.898-.505c.284-1.175.7-2.315 1.237-3.398l1.012.19a.734.734 0 0 0 .782-.36.735.735 0 0 0-.08-.856l-.669-.78a16.433 16.433 0 0 1 2.324-2.77l.885.523a.738.738 0 0 0 .858-.07.735.735 0 0 0 .217-.832l-.361-.963a16.351 16.351 0 0 1 3.128-1.812l.656.799a.735.735 0 0 0 .829.227c.3-.11.493-.387.49-.707l-.012-1.035a16.324 16.324 0 0 1 3.561-.622l.343.97c.105.303.38.498.7.498.322 0 .597-.195.703-.497l.342-.971c1.212.075 2.407.284 3.561.622l-.011 1.035c-.004.32.189.598.49.707.301.11.626.02.828-.227l.656-.8a16.334 16.334 0 0 1 3.129 1.813l-.362.962a.736.736 0 0 0 .218.833.736.736 0 0 0 .857.07l.885-.523a16.47 16.47 0 0 1 2.324 2.77l-.67.78a.736.736 0 0 0-.078.857c.16.277.467.418.78.358l1.013-.189a16.19 16.19 0 0 1 1.237 3.398l-.898.505a.737.737 0 0 0-.368.778.737.737 0 0 0 .612.605l1.014.167c.069.618.103 1.225.103 1.808 0 .584-.034 1.19-.103 1.808l-1.014.168a.737.737 0 0 0-.612.605.737.737 0 0 0 .368.777l.898.506a16.207 16.207 0 0 1-1.237 3.397l-1.013-.189a.736.736 0 0 0-.78.36.734.734 0 0 0 .08.855l.669.78a16.449 16.449 0 0 1-2.325 2.771l-.885-.523a.734.734 0 0 0-.857.07.734.734 0 0 0-.218.832l.361.963a16.25 16.25 0 0 1-3.128 1.811l-.656-.798a.734.734 0 0 0-.829-.227.735.735 0 0 0-.49.707l.012 1.035a16.353 16.353 0 0 1-3.561.622l-.342-.971a.736.736 0 0 0-.702-.497.734.734 0 0 0-.701.497l-.343.971a16.355 16.355 0 0 1-3.561-.622zm4.187 2.192l.406-1.153.406 1.153a.387.387 0 0 0 .385.26 17.135 17.135 0 0 0 4.322-.757.39.39 0 0 0 .274-.376l-.013-1.227.778.947c.11.133.293.18.452.112a17.098 17.098 0 0 0 3.797-2.198.391.391 0 0 0 .128-.447l-.43-1.142 1.052.621a.39.39 0 0 0 .462-.049 17.273 17.273 0 0 0 2.82-3.362.391.391 0 0 0-.032-.465l-.794-.926 1.201.226a.387.387 0 0 0 .418-.204 17.05 17.05 0 0 0 1.501-4.125.389.389 0 0 0-.19-.424l-1.064-.6 1.204-.2a.39.39 0 0 0 .322-.334c.097-.75.145-1.488.145-2.195 0-.707-.048-1.444-.145-2.194a.39.39 0 0 0-.322-.335l-1.204-.2 1.065-.599a.39.39 0 0 0 .19-.424 17.039 17.039 0 0 0-1.502-4.125.39.39 0 0 0-.417-.204l-1.202.226.794-.927a.391.391 0 0 0 .033-.464 17.241 17.241 0 0 0-2.821-3.362.39.39 0 0 0-.462-.05l-1.052.622.43-1.142a.391.391 0 0 0-.128-.447A17.155 17.155 0 0 0 26.108 2.3a.39.39 0 0 0-.452.112l-.778.948.013-1.227a.39.39 0 0 0-.274-.377A17.125 17.125 0 0 0 20.295 1a.384.384 0 0 0-.385.26l-.406 1.152-.406-1.152a.386.386 0 0 0-.385-.26c-1.475.067-2.93.322-4.323.756a.389.389 0 0 0-.273.377l.013 1.227-.778-.948a.39.39 0 0 0-.45-.112 17.12 17.12 0 0 0-3.8 2.2.39.39 0 0 0-.127.446l.43 1.143-1.05-.622a.39.39 0 0 0-.464.049 17.212 17.212 0 0 0-2.82 3.362.39.39 0 0 0 .032.464l.794.927-1.201-.226a.39.39 0 0 0-.418.204 17.075 17.075 0 0 0-1.501 4.125.39.39 0 0 0 .19.424l1.063.6-1.203.2a.39.39 0 0 0-.323.334 17.313 17.313 0 0 0-.144 2.194c0 .708.048 1.447.144 2.195a.39.39 0 0 0 .323.335l1.203.198-1.064.6a.39.39 0 0 0-.19.425c.321 1.432.826 2.82 1.502 4.125a.39.39 0 0 0 .418.204l1.2-.226-.793.926a.39.39 0 0 0-.032.465 17.212 17.212 0 0 0 2.82 3.362.391.391 0 0 0 .463.05l1.05-.622-.43 1.142a.39.39 0 0 0 .129.447 17.125 17.125 0 0 0 3.798 2.198c.158.068.341.021.451-.112l.778-.947-.013 1.227a.39.39 0 0 0 .273.376 17.18 17.18 0 0 0 4.34.757.39.39 0 0 0 .368-.26z"/><path fill="none" stroke="#232323" stroke-miterlimit="50" stroke-width=".3" d="M34.89 15.445l-.191-.34M14.91 32.798a.734.734 0 0 0-.49-.707.736.736 0 0 0-.83.227l-.655.798a16.252 16.252 0 0 1-3.128-1.811l.362-.963a.736.736 0 0 0-.219-.832.735.735 0 0 0-.857-.07l-.885.523a16.435 16.435 0 0 1-2.324-2.77l.67-.78a.735.735 0 0 0 .079-.857.735.735 0 0 0-.782-.359l-1.012.19a16.225 16.225 0 0 1-1.237-3.398l.898-.506a.735.735 0 0 0 .367-.777.737.737 0 0 0-.611-.605l-1.013-.168a16.243 16.243 0 0 1-.104-1.808c0-.584.034-1.192.104-1.808l1.013-.167a.737.737 0 0 0 .61-.605.735.735 0 0 0-.366-.778l-.898-.505c.284-1.175.7-2.315 1.237-3.398l1.012.19a.734.734 0 0 0 .782-.36.735.735 0 0 0-.08-.856l-.669-.78a16.433 16.433 0 0 1 2.324-2.77l.885.523a.738.738 0 0 0 .858-.07.735.735 0 0 0 .217-.832l-.361-.963a16.351 16.351 0 0 1 3.128-1.812l.656.799a.735.735 0 0 0 .829.227c.3-.11.493-.387.49-.707l-.012-1.035a16.324 16.324 0 0 1 3.561-.622l.343.97c.105.303.38.498.7.498.322 0 .597-.195.703-.497l.342-.971c1.212.075 2.407.284 3.561.622l-.011 1.035c-.004.32.189.598.49.707.301.11.626.02.828-.227l.656-.8a16.334 16.334 0 0 1 3.129 1.813l-.362.962a.736.736 0 0 0 .218.833.736.736 0 0 0 .857.07l.885-.523a16.47 16.47 0 0 1 2.324 2.77l-.67.78a.736.736 0 0 0-.078.857c.16.277.467.418.78.358l1.013-.189a16.19 16.19 0 0 1 1.237 3.398l-.898.505a.737.737 0 0 0-.368.778.737.737 0 0 0 .612.605l1.014.167c.069.618.103 1.225.103 1.808 0 .584-.034 1.19-.103 1.808l-1.014.168a.737.737 0 0 0-.612.605.737.737 0 0 0 .368.777l.898.506a16.207 16.207 0 0 1-1.237 3.397l-1.013-.189a.736.736 0 0 0-.78.36.734.734 0 0 0 .08.855l.669.78a16.449 16.449 0 0 1-2.325 2.771l-.885-.523a.734.734 0 0 0-.857.07.734.734 0 0 0-.218.832l.361.963a16.25 16.25 0 0 1-3.128 1.811l-.656-.798a.734.734 0 0 0-.829-.227.735.735 0 0 0-.49.707l.012 1.035a16.353 16.353 0 0 1-3.561.622l-.342-.971a.736.736 0 0 0-.702-.497.734.734 0 0 0-.701.497l-.343.971a16.355 16.355 0 0 1-3.561-.622zm4.187 2.192l.406-1.153.406 1.153a.387.387 0 0 0 .385.26 17.135 17.135 0 0 0 4.322-.757.39.39 0 0 0 .274-.376l-.013-1.227.778.947c.11.133.293.18.452.112a17.098 17.098 0 0 0 3.797-2.198.391.391 0 0 0 .128-.447l-.43-1.142 1.052.621a.39.39 0 0 0 .462-.049 17.273 17.273 0 0 0 2.82-3.362.391.391 0 0 0-.032-.465l-.794-.926 1.201.226a.387.387 0 0 0 .418-.204 17.05 17.05 0 0 0 1.501-4.125.389.389 0 0 0-.19-.424l-1.064-.6 1.204-.2a.39.39 0 0 0 .322-.334c.097-.75.145-1.488.145-2.195 0-.707-.048-1.444-.145-2.194a.39.39 0 0 0-.322-.335l-1.204-.2 1.065-.599a.39.39 0 0 0 .19-.424 17.039 17.039 0 0 0-1.502-4.125.39.39 0 0 0-.417-.204l-1.202.226.794-.927a.391.391 0 0 0 .033-.464 17.241 17.241 0 0 0-2.821-3.362.39.39 0 0 0-.462-.05l-1.052.622.43-1.142a.391.391 0 0 0-.128-.447A17.155 17.155 0 0 0 26.108 2.3a.39.39 0 0 0-.452.112l-.778.948.013-1.227a.39.39 0 0 0-.274-.377A17.125 17.125 0 0 0 20.295 1a.384.384 0 0 0-.385.26l-.406 1.152-.406-1.152a.386.386 0 0 0-.385-.26c-1.475.067-2.93.322-4.323.756a.389.389 0 0 0-.273.377l.013 1.227-.778-.948a.39.39 0 0 0-.45-.112 17.12 17.12 0 0 0-3.8 2.2.39.39 0 0 0-.127.446l.43 1.143-1.05-.622a.39.39 0 0 0-.464.049 17.212 17.212 0 0 0-2.82 3.362.39.39 0 0 0 .032.464l.794.927-1.201-.226a.39.39 0 0 0-.418.204 17.075 17.075 0 0 0-1.501 4.125.39.39 0 0 0 .19.424l1.063.6-1.203.2a.39.39 0 0 0-.323.334 17.313 17.313 0 0 0-.144 2.194c0 .708.048 1.447.144 2.195a.39.39 0 0 0 .323.335l1.203.198-1.064.6a.39.39 0 0 0-.19.425c.321 1.432.826 2.82 1.502 4.125a.39.39 0 0 0 .418.204l1.2-.226-.793.926a.39.39 0 0 0-.032.465 17.212 17.212 0 0 0 2.82 3.362.391.391 0 0 0 .463.05l1.05-.622-.43 1.142a.39.39 0 0 0 .129.447 17.125 17.125 0 0 0 3.798 2.198c.158.068.341.021.451-.112l.778-.947-.013 1.227a.39.39 0 0 0 .273.376 17.18 17.18 0 0 0 4.34.757.39.39 0 0 0 .368-.26z"/></g><g><path fill="#232323" d="M29.788 18.518a.39.39 0 0 1-.39-.39c0-.252-.01-.505-.027-.75a.388.388 0 0 1 .36-.417.392.392 0 0 1 .417.359c.02.264.03.535.03.808a.39.39 0 0 1-.39.39z"/><path fill="none" stroke="#232323" stroke-miterlimit="50" stroke-width=".3" d="M29.788 18.518a.39.39 0 0 1-.39-.39c0-.252-.01-.505-.027-.75a.388.388 0 0 1 .36-.417.392.392 0 0 1 .417.359c.02.264.03.535.03.808a.39.39 0 0 1-.39.39z"/></g><g><path fill="#232323" d="M25.378 10.075a.384.384 0 0 1-.222-.07 9.843 9.843 0 0 0-1.52-.871.39.39 0 0 1 .326-.708c.57.262 1.123.579 1.64.94a.39.39 0 0 1-.224.709zm3.471 4.145a.389.389 0 0 1-.354-.227 9.858 9.858 0 0 0-.871-1.52.39.39 0 0 1 .64-.446c.359.516.675 1.068.939 1.64a.39.39 0 0 1-.354.553z"/><path fill="none" stroke="#232323" stroke-miterlimit="50" stroke-width=".3" d="M25.378 10.075a.384.384 0 0 1-.222-.07 9.843 9.843 0 0 0-1.52-.871.39.39 0 0 1 .326-.708c.57.262 1.123.579 1.64.94a.39.39 0 0 1-.224.709zm3.471 4.145a.389.389 0 0 1-.354-.227 9.858 9.858 0 0 0-.871-1.52.39.39 0 0 1 .64-.446c.359.516.675 1.068.939 1.64a.39.39 0 0 1-.354.553z"/></g><g><path fill="#232323" d="M20.28 8.259a11.04 11.04 0 0 0-.78-.03.39.39 0 0 1 0-.779c.268 0 .54.01.808.03a.39.39 0 0 1-.028.779z"/><path fill="none" stroke="#232323" stroke-miterlimit="50" stroke-width=".3" d="M20.28 8.259a11.04 11.04 0 0 0-.78-.03.39.39 0 0 1 0-.779c.268 0 .54.01.808.03a.39.39 0 0 1-.028.779z"/></g><g><path fill="#232323" d="M19.5 28.79c-5.884 0-10.67-4.786-10.67-10.67 0-5.883 4.786-10.67 10.67-10.67a.39.39 0 0 1 0 .78c-5.454 0-9.891 4.437-9.891 9.89 0 5.455 4.437 9.892 9.89 9.892 5.455 0 9.892-4.437 9.892-9.892a.39.39 0 0 1 .78 0c0 5.884-4.788 10.67-10.671 10.67z"/><path fill="none" stroke="#232323" stroke-miterlimit="50" stroke-width=".3" d="M19.5 28.79c-5.884 0-10.67-4.786-10.67-10.67 0-5.883 4.786-10.67 10.67-10.67a.39.39 0 0 1 0 .78c-5.454 0-9.891 4.437-9.891 9.89 0 5.455 4.437 9.892 9.89 9.892 5.455 0 9.892-4.437 9.892-9.892a.39.39 0 0 1 .78 0c0 5.884-4.788 10.67-10.671 10.67z"/></g><g><path fill="#232323" d="M21.242 18.12c0 .96-.78 1.742-1.742 1.742a1.742 1.742 0 1 1 1.742-1.741zm.78 0c0-1.39-1.132-2.52-2.522-2.52a2.524 2.524 0 0 0-2.52 2.52c0 1.39 1.131 2.521 2.52 2.521 1.39 0 2.521-1.13 2.521-2.52z"/><path fill="none" stroke="#232323" stroke-miterlimit="50" stroke-width=".3" d="M21.242 18.12c0 .96-.78 1.742-1.742 1.742a1.742 1.742 0 1 1 1.742-1.741zm.78 0c0-1.39-1.132-2.52-2.522-2.52a2.524 2.524 0 0 0-2.52 2.52c0 1.39 1.131 2.521 2.52 2.521 1.39 0 2.521-1.13 2.521-2.52z"/></g><g><path fill="#232323" d="M19.06 15.647v-5.035c.297-.017.583-.017.878 0v5.035a2.58 2.58 0 0 0-.877 0zm5.443-3.142c.218.196.425.402.62.621l-3.559 3.56a2.52 2.52 0 0 0-.62-.621zm-10.627.621c.195-.219.402-.426.62-.62l3.56 3.559c-.242.169-.452.379-.621.62zm-1.893 5.442a7.561 7.561 0 0 1 0-.878h5.034a2.578 2.578 0 0 0 .001.878zm9.999 0a2.583 2.583 0 0 0 0-.878h5.035a7.45 7.45 0 0 1 0 .878zm-.74-.439a1.743 1.743 0 0 1-3.483 0 1.742 1.742 0 0 1 3.482 0zm-.298 2.065c.24-.17.452-.38.62-.62l3.56 3.559a7.603 7.603 0 0 1-.621.62zm-3.51-.62c.17.24.38.45.62.62l-3.558 3.56a7.615 7.615 0 0 1-.62-.621zm1.627 1.037c.286.05.592.05.877 0v5.035a7.431 7.431 0 0 1-.877 0zm1.308 5.782a.39.39 0 0 0 .35-.388v-4.934l3.486 3.487a.39.39 0 0 0 .522.027c.45-.365.863-.779 1.229-1.228a.39.39 0 0 0-.028-.521l-3.487-3.489h4.935c.199 0 .367-.15.387-.348a8.439 8.439 0 0 0 0-1.74.39.39 0 0 0-.387-.348H22.44l3.487-3.488a.39.39 0 0 0 .028-.52 8.41 8.41 0 0 0-1.23-1.23.392.392 0 0 0-.52.028l-3.488 3.487v-4.935a.39.39 0 0 0-.349-.387 8.224 8.224 0 0 0-1.738 0 .389.389 0 0 0-.35.387v4.935l-3.488-3.487a.39.39 0 0 0-.52-.028c-.45.364-.863.778-1.229 1.23a.389.389 0 0 0 .027.52l3.487 3.488h-4.934a.39.39 0 0 0-.388.35c-.03.294-.046.585-.046.868 0 .283.016.574.046.87a.39.39 0 0 0 .388.348h4.934l-3.487 3.489a.389.389 0 0 0-.028.52c.365.45.778.863 1.23 1.229a.39.39 0 0 0 .52-.027l3.489-3.487v4.934c0 .2.15.367.349.388.292.03.585.046.868.046.285 0 .577-.016.87-.046z"/><path fill="none" stroke="#232323" stroke-miterlimit="50" stroke-width=".3" d="M19.06 15.647v-5.035c.297-.017.583-.017.878 0v5.035a2.58 2.58 0 0 0-.877 0zm5.443-3.142c.218.196.425.402.62.621l-3.559 3.56a2.52 2.52 0 0 0-.62-.621zm-10.627.621c.195-.219.402-.426.62-.62l3.56 3.559c-.242.169-.452.379-.621.62zm-1.893 5.442a7.561 7.561 0 0 1 0-.878h5.034a2.578 2.578 0 0 0 .001.878zm9.999 0a2.583 2.583 0 0 0 0-.878h5.035a7.45 7.45 0 0 1 0 .878zm-.74-.439a1.743 1.743 0 0 1-3.483 0 1.742 1.742 0 0 1 3.482 0zm-.298 2.065c.24-.17.452-.38.62-.62l3.56 3.559a7.603 7.603 0 0 1-.621.62zm-3.51-.62c.17.24.38.45.62.62l-3.558 3.56a7.615 7.615 0 0 1-.62-.621zm1.627 1.037c.286.05.592.05.877 0v5.035a7.431 7.431 0 0 1-.877 0zm1.308 5.782a.39.39 0 0 0 .35-.388v-4.934l3.486 3.487a.39.39 0 0 0 .522.027c.45-.365.863-.779 1.229-1.228a.39.39 0 0 0-.028-.521l-3.487-3.489h4.935c.199 0 .367-.15.387-.348a8.439 8.439 0 0 0 0-1.74.39.39 0 0 0-.387-.348H22.44l3.487-3.488a.39.39 0 0 0 .028-.52 8.41 8.41 0 0 0-1.23-1.23.392.392 0 0 0-.52.028l-3.488 3.487v-4.935a.39.39 0 0 0-.349-.387 8.224 8.224 0 0 0-1.738 0 .389.389 0 0 0-.35.387v4.935l-3.488-3.487a.39.39 0 0 0-.52-.028c-.45.364-.863.778-1.229 1.23a.389.389 0 0 0 .027.52l3.487 3.488h-4.934a.39.39 0 0 0-.388.35c-.03.294-.046.585-.046.868 0 .283.016.574.046.87a.39.39 0 0 0 .388.348h4.934l-3.487 3.489a.389.389 0 0 0-.028.52c.365.45.778.863 1.23 1.229a.39.39 0 0 0 .52-.027l3.489-3.487v4.934c0 .2.15.367.349.388.292.03.585.046.868.046.285 0 .577-.016.87-.046z"/></g><g><path fill="#232323" d="M21.241 18.12c0 .96-.78 1.74-1.742 1.74-.96 0-1.74-.78-1.74-1.74a1.742 1.742 0 0 1 3.482 0zm.78 0c0-1.39-1.132-2.52-2.522-2.52a2.523 2.523 0 0 0-2.52 2.52c0 1.39 1.131 2.52 2.52 2.52 1.39 0 2.521-1.13 2.521-2.52zm5.008 0c0 4.152-3.377 7.53-7.53 7.53-4.152 0-7.53-3.378-7.53-7.53 0-4.153 3.378-7.53 7.53-7.53 4.153 0 7.53 3.377 7.53 7.53zm.78 0c0-4.582-3.728-8.31-8.31-8.31-4.581 0-8.309 3.728-8.309 8.31 0 4.581 3.728 8.31 8.31 8.31 4.581 0 8.308-3.729 8.308-8.31z"/><path fill="none" stroke="#232323" stroke-miterlimit="50" stroke-width=".3" d="M21.241 18.12c0 .96-.78 1.74-1.742 1.74-.96 0-1.74-.78-1.74-1.74a1.742 1.742 0 0 1 3.482 0zm.78 0c0-1.39-1.132-2.52-2.522-2.52a2.523 2.523 0 0 0-2.52 2.52c0 1.39 1.131 2.52 2.52 2.52 1.39 0 2.521-1.13 2.521-2.52zm5.008 0c0 4.152-3.377 7.53-7.53 7.53-4.152 0-7.53-3.378-7.53-7.53 0-4.153 3.378-7.53 7.53-7.53 4.153 0 7.53 3.377 7.53 7.53zm.78 0c0-4.582-3.728-8.31-8.31-8.31-4.581 0-8.309 3.728-8.309 8.31 0 4.581 3.728 8.31 8.31 8.31 4.581 0 8.308-3.729 8.308-8.31z"/></g><g><path fill="#232323" d="M30.108 35.25h-.779a.39.39 0 0 1 0-.78h.78a.39.39 0 0 1 0 .78z"/><path fill="none" stroke="#232323" stroke-miterlimit="50" stroke-width=".3" d="M30.108 35.25v0h-.779a.39.39 0 0 1 0-.78h.78a.39.39 0 0 1 0 .78z"/></g><g><path fill="#232323" d="M33.333 35.25H32.26a.39.39 0 0 1 0-.78h1.074a.39.39 0 0 1 0 .78z"/><path fill="none" stroke="#232323" stroke-miterlimit="50" stroke-width=".3" d="M33.333 35.25v0H32.26a.39.39 0 0 1 0-.78h1.074a.39.39 0 0 1 0 .78z"/></g><g><path fill="#232323" d="M36.26 35.25h-.78a.39.39 0 0 1 0-.78h.78a.39.39 0 0 1 0 .78z"/><path fill="none" stroke="#232323" stroke-miterlimit="50" stroke-width=".3" d="M36.26 35.25v0h-.78a.39.39 0 0 1 0-.78h.78a.39.39 0 0 1 0 .78z"/></g><g><path fill="#232323" d="M29.33 35.25H2.75a.39.39 0 0 1 0-.78h26.58a.39.39 0 0 1 0 .78z"/><path fill="none" stroke="#232323" stroke-miterlimit="50" stroke-width=".3" d="M29.33 35.25v0H2.75a.39.39 0 0 1 0-.78h26.58a.39.39 0 0 1 0 .78z"/></g></g></g></svg>