<svg xmlns="http://www.w3.org/2000/svg" width="43" height="36" viewBox="0 0 43 36"><g><g><g transform="rotate(39.3 15.5 21)"><path fill="#ffe600" d="M-.68 18.43a7 7 0 0 1 7-7h18.43a7 7 0 0 1 7 7v4.903a7 7 0 0 1-7 7H6.32a7 7 0 0 1-7-7z"/></g><g><path fill="#232323" d="M11.87 12.71c-2.373 0-4.35-1.977-4.35-4.35 0-2.373 1.977-4.35 4.35-4.35 2.373 0 4.35 1.977 4.35 4.35a4.338 4.338 0 0 1-4.35 4.35zm0-7.83c-1.898 0-3.48 1.582-3.48 3.48 0 1.899 1.582 3.48 3.48 3.48 1.899 0 3.48-1.581 3.48-3.48 0-1.898-1.581-3.48-3.48-3.48z"/><path fill="none" stroke="#232323" stroke-miterlimit="50" stroke-width=".3" d="M11.87 12.71c-2.373 0-4.35-1.977-4.35-4.35 0-2.373 1.977-4.35 4.35-4.35 2.373 0 4.35 1.977 4.35 4.35a4.338 4.338 0 0 1-4.35 4.35zm0-7.83c-1.898 0-3.48 1.582-3.48 3.48 0 1.899 1.582 3.48 3.48 3.48 1.899 0 3.48-1.581 3.48-3.48 0-1.898-1.581-3.48-3.48-3.48z"/></g><g><path fill="#232323" d="M41.695 15.951c-.237 0-.395-.158-.395-.395v-.87c0-.238.158-.396.395-.396.238 0 .396.158.396.395v.87c0 .238-.158.396-.396.396z"/><path fill="none" stroke="#232323" stroke-miterlimit="50" stroke-width=".3" d="M41.695 15.951c-.237 0-.395-.158-.395-.395v-.87c0-.238.158-.396.395-.396.238 0 .396.158.396.395v.87c0 .238-.158.396-.396.396z"/></g><g><path fill="#232323" d="M42.083 11.595v-1.582c0-.237-.159-.395-.396-.395-.237 0-.395.158-.395.395v1.582c0 .237.158.396.395.396.237 0 .396-.238.396-.396zm-.95-4.271c.238-.08.238-.317.159-.554L40.5 5.426c-.08-.238-.317-.238-.554-.159-.237.159-.316.396-.237.633l.79 1.345c.08.158.238.237.396.237.08 0 .158 0 .237-.158z"/><path fill="none" stroke="#232323" stroke-miterlimit="50" stroke-width=".3" d="M42.083 11.595v-1.582c0-.237-.159-.395-.396-.395-.237 0-.395.158-.395.395v1.582c0 .237.158.396.395.396.237 0 .396-.238.396-.396zm-.95-4.271c.238-.08.238-.317.159-.554L40.5 5.426c-.08-.238-.317-.238-.554-.159-.237.159-.316.396-.237.633l.79 1.345c.08.158.238.237.396.237.08 0 .158 0 .237-.158z"/></g><g><path fill="#232323" d="M38.528 3.375a.435.435 0 0 1-.395-.237l-.396-.712c-.079-.237-.079-.475.159-.554.237-.158.474-.079.632.159l.396.711c.079.238.079.475-.158.554-.08.08-.159.08-.238.08z"/><path fill="none" stroke="#232323" stroke-miterlimit="50" stroke-width=".3" d="M38.528 3.375a.435.435 0 0 1-.395-.237l-.396-.712c-.079-.237-.079-.475.159-.554.237-.158.474-.079.632.159l.396.711c.079.238.079.475-.158.554-.08.08-.159.08-.238.08z"/></g><g><path fill="#232323" d="M30.777 34.142H14.799c-.079 0-.237-.08-.316-.158l-3.322-3.322c-.08-.08-.158-.158-.158-.317v-6.09L3.488 16.74c-.079-.08-.158-.159-.158-.317V8.356c0-.079 0-.158.08-.237l3.954-6.882A.435.435 0 0 1 7.759 1h7.99c.158 0 .316.08.395.237l3.876 6.724h5.457l3.876-6.724A.435.435 0 0 1 29.75 1h7.989c.158 0 .316.08.395.237l.396.712c.079.237.079.475-.159.554-.237.079-.474.079-.553-.158L37.5 1.79h-7.514L26.11 8.514a.435.435 0 0 1-.395.238h-5.853a.435.435 0 0 1-.396-.238L15.59 1.791H8.076L4.279 8.514v7.831l7.514 7.514c.08.08.159.158.159.317v6.011l3.085 3.085h15.582l3.085-3.085v-6.09c0-.08.079-.238.158-.317l7.514-7.514v-.791c0-.237.158-.396.396-.396.237 0 .395.159.395.396v.95c0 .078-.079.236-.158.315l-7.514 7.515v6.09c0 .08-.08.238-.159.317l-3.322 3.322c0 .158-.158.158-.237.158z"/><path fill="none" stroke="#232323" stroke-miterlimit="50" stroke-width=".3" d="M30.777 34.142v0H14.799c-.079 0-.237-.08-.316-.158l-3.322-3.322c-.08-.08-.158-.158-.158-.317v-6.09 0L3.488 16.74c-.079-.08-.158-.159-.158-.317V8.356c0-.079 0-.158.08-.237l3.954-6.882A.435.435 0 0 1 7.759 1h7.99c.158 0 .316.08.395.237l3.876 6.724v0h5.457v0l3.876-6.724A.435.435 0 0 1 29.75 1h7.989c.158 0 .316.08.395.237l.396.712c.079.237.079.475-.159.554-.237.079-.474.079-.553-.158L37.5 1.79v0h-7.514v0L26.11 8.514a.435.435 0 0 1-.395.238h-5.853a.435.435 0 0 1-.396-.238L15.59 1.791v0H8.076v0L4.279 8.514v7.831l7.514 7.514c.08.08.159.158.159.317v6.011l3.085 3.085v0h15.582v0l3.085-3.085v0-6.09c0-.08.079-.238.158-.317l7.514-7.514v0-.791c0-.237.158-.396.396-.396.237 0 .395.159.395.396v.95c0 .078-.079.236-.158.315l-7.514 7.515v6.09c0 .08-.08.238-.159.317l-3.322 3.322c0 .158-.158.158-.237.158z"/></g><g><path fill="#232323" d="M33.7 12.71c-2.373 0-4.35-1.977-4.35-4.35 0-2.373 1.977-4.35 4.35-4.35 2.373 0 4.35 1.977 4.35 4.35a4.338 4.338 0 0 1-4.35 4.35zm0-7.83c-1.898 0-3.48 1.582-3.48 3.48 0 1.899 1.582 3.48 3.48 3.48 1.899 0 3.48-1.581 3.48-3.48 0-1.898-1.581-3.48-3.48-3.48z"/><path fill="none" stroke="#232323" stroke-miterlimit="50" stroke-width=".3" d="M33.7 12.71c-2.373 0-4.35-1.977-4.35-4.35 0-2.373 1.977-4.35 4.35-4.35 2.373 0 4.35 1.977 4.35 4.35a4.338 4.338 0 0 1-4.35 4.35zm0-7.83c-1.898 0-3.48 1.582-3.48 3.48 0 1.899 1.582 3.48 3.48 3.48 1.899 0 3.48-1.581 3.48-3.48 0-1.898-1.581-3.48-3.48-3.48z"/></g><g><path fill="#232323" d="M36 8.835c-.238 0-.396-.158-.396-.396 0-1.028-.87-1.898-1.899-1.898-.237 0-.395-.158-.395-.396 0-.237.158-.395.395-.395a2.667 2.667 0 0 1 2.69 2.69c.079.158-.158.395-.396.395z"/><path fill="none" stroke="#232323" stroke-miterlimit="50" stroke-width=".3" d="M36 8.835c-.238 0-.396-.158-.396-.396 0-1.028-.87-1.898-1.899-1.898-.237 0-.395-.158-.395-.396 0-.237.158-.395.395-.395a2.667 2.667 0 0 1 2.69 2.69c.079.158-.158.395-.396.395z"/></g><g><path fill="#232323" d="M14.17 8.835c-.238 0-.396-.158-.396-.396 0-1.028-.87-1.898-1.899-1.898-.237 0-.395-.158-.395-.396 0-.237.158-.395.395-.395a2.667 2.667 0 0 1 2.69 2.69c0 .158-.158.395-.396.395z"/><path fill="none" stroke="#232323" stroke-miterlimit="50" stroke-width=".3" d="M14.17 8.835c-.238 0-.396-.158-.396-.396 0-1.028-.87-1.898-1.899-1.898-.237 0-.395-.158-.395-.396 0-.237.158-.395.395-.395a2.667 2.667 0 0 1 2.69 2.69c0 .158-.158.395-.396.395z"/></g><g><path fill="#232323" d="M22.786 31.292c-3.56 0-6.486-2.927-6.486-6.486 0-3.56 2.927-6.486 6.486-6.486 3.56 0 6.486 2.927 6.486 6.486a6.465 6.465 0 0 1-6.486 6.486zm0-12.023c-3.085 0-5.616 2.531-5.616 5.616 0 3.085 2.531 5.616 5.616 5.616 3.085 0 5.616-2.531 5.616-5.616 0-3.085-2.531-5.616-5.616-5.616z"/><path fill="none" stroke="#232323" stroke-miterlimit="50" stroke-width=".3" d="M22.786 31.292c-3.56 0-6.486-2.927-6.486-6.486 0-3.56 2.927-6.486 6.486-6.486 3.56 0 6.486 2.927 6.486 6.486a6.465 6.465 0 0 1-6.486 6.486zm0-12.023c-3.085 0-5.616 2.531-5.616 5.616 0 3.085 2.531 5.616 5.616 5.616 3.085 0 5.616-2.531 5.616-5.616 0-3.085-2.531-5.616-5.616-5.616z"/></g><g><path fill="#232323" d="M22.791 28.212c-1.819 0-3.401-1.502-3.401-3.4 0-1.82 1.503-3.402 3.401-3.402.238 0 .396.158.396.395 0 .238-.158.396-.396.396-1.344 0-2.53 1.107-2.53 2.531 0 1.345 1.106 2.531 2.53 2.531 1.345 0 2.531-1.107 2.531-2.53 0-.238.159-.396.396-.396.237 0 .395.158.395.395 0 1.978-1.503 3.48-3.322 3.48z"/><path fill="none" stroke="#232323" stroke-miterlimit="50" stroke-width=".3" d="M22.791 28.212c-1.819 0-3.401-1.502-3.401-3.4 0-1.82 1.503-3.402 3.401-3.402.238 0 .396.158.396.395 0 .238-.158.396-.396.396-1.344 0-2.53 1.107-2.53 2.531 0 1.345 1.106 2.531 2.53 2.531 1.345 0 2.531-1.107 2.531-2.53 0-.238.159-.396.396-.396.237 0 .395.158.395.395 0 1.978-1.503 3.48-3.322 3.48z"/></g><g><path fill="#232323" d="M31.648 21.015c-.08 0-.158 0-.237-.079-.238-.08-.317-.396-.159-.554L36.71 10.02c.08-.237.396-.316.554-.158.237.08.316.396.158.554l-5.458 10.362c0 .158-.158.237-.316.237z"/><path fill="none" stroke="#232323" stroke-miterlimit="50" stroke-width=".3" d="M31.648 21.015c-.08 0-.158 0-.237-.079-.238-.08-.317-.396-.159-.554L36.71 10.02c.08-.237.396-.316.554-.158.237.08.316.396.158.554l-5.458 10.362c0 .158-.158.237-.316.237z"/></g><g><path fill="#232323" d="M13.924 21.014a.435.435 0 0 1-.395-.237L8.07 10.414c-.08-.238 0-.475.158-.554.238-.08.475 0 .554.158l5.458 10.362c.079.237 0 .475-.159.554-.079.079-.079.079-.158.079z"/><path fill="none" stroke="#232323" stroke-miterlimit="50" stroke-width=".3" d="M13.924 21.014a.435.435 0 0 1-.395-.237L8.07 10.414c-.08-.238 0-.475.158-.554.238-.08.475 0 .554.158l5.458 10.362c.079.237 0 .475-.159.554-.079.079-.079.079-.158.079z"/></g><g><path fill="#232323" d="M27.607 21.645c-.158 0-.237-.079-.317-.158L15.03 6.933a.418.418 0 0 1 .08-.633.418.418 0 0 1 .632.08l12.26 14.553a.418.418 0 0 1-.079.633c-.079.08-.237.08-.316.08z"/><path fill="none" stroke="#232323" stroke-miterlimit="50" stroke-width=".3" d="M27.607 21.645c-.158 0-.237-.079-.317-.158L15.03 6.933a.418.418 0 0 1 .08-.633.418.418 0 0 1 .632.08l12.26 14.553a.418.418 0 0 1-.079.633c-.079.08-.237.08-.316.08z"/></g><g><path fill="#232323" d="M17.963 21.646c-.08 0-.159 0-.238-.08-.158-.157-.237-.395-.079-.632l3.797-4.509c.158-.158.395-.237.633-.079.158.158.237.396.079.633l-3.876 4.509c-.08.158-.237.158-.316.158z"/><path fill="none" stroke="#232323" stroke-miterlimit="50" stroke-width=".3" d="M17.963 21.646c-.08 0-.159 0-.238-.08-.158-.157-.237-.395-.079-.632l3.797-4.509c.158-.158.395-.237.633-.079.158.158.237.396.079.633l-3.876 4.509c-.08.158-.237.158-.316.158z"/></g><g><path fill="#232323" d="M23.813 14.68c-.08 0-.159 0-.238-.078-.158-.159-.237-.396-.079-.633l6.407-7.594c.158-.158.396-.237.633-.079.158.158.237.396.079.633l-6.407 7.593c-.158.159-.316.159-.395.159z"/><path fill="none" stroke="#232323" stroke-miterlimit="50" stroke-width=".3" d="M23.813 14.68c-.08 0-.159 0-.238-.078-.158-.159-.237-.396-.079-.633l6.407-7.594c.158-.158.396-.237.633-.079.158.158.237.396.079.633l-6.407 7.593c-.158.159-.316.159-.395.159z"/></g><g><path fill="#232323" d="M14.481 30.821h-3.006c-.237 0-.395-.158-.395-.396 0-.237.158-.395.395-.395h3.006c.238 0 .396.158.396.395 0 .238-.158.396-.396.396z"/><path fill="none" stroke="#232323" stroke-miterlimit="50" stroke-width=".3" d="M14.481 30.821v0h-3.006c-.237 0-.395-.158-.395-.396 0-.237.158-.395.395-.395h3.006c.238 0 .396.158.396.395 0 .238-.158.396-.396.396z"/></g><g><path fill="#232323" d="M34.101 30.821h-3.006c-.237 0-.395-.158-.395-.396 0-.237.158-.395.395-.395h3.006c.238 0 .396.158.396.395 0 .238-.158.396-.396.396z"/><path fill="none" stroke="#232323" stroke-miterlimit="50" stroke-width=".3" d="M34.101 30.821v0h-3.006c-.237 0-.395-.158-.395-.396 0-.237.158-.395.395-.395h3.006c.238 0 .396.158.396.395 0 .238-.158.396-.396.396z"/></g><g><path fill="#232323" d="M22.785 10.887c-.237 0-.395-.159-.395-.396V8.355c0-.237.158-.395.395-.395.238 0 .396.158.396.395v2.057c0 .316-.158.475-.396.475z"/><path fill="none" stroke="#232323" stroke-miterlimit="50" stroke-width=".3" d="M22.785 10.887c-.237 0-.395-.159-.395-.396V8.355c0-.237.158-.395.395-.395.238 0 .396.158.396.395v2.057c0 .316-.158.475-.396.475z"/></g></g></g></svg>