<svg xmlns="http://www.w3.org/2000/svg" width="39" height="35" viewBox="0 0 39 35"><g><g><g><path fill="#ffe600" d="M0 23.32a3 3 0 0 1 3-3h32.387a3 3 0 0 1 3 3v8.677a3 3 0 0 1-3 3H3a3 3 0 0 1-3-3z"/></g><g><path d="M30.805 32.742a.466.466 0 0 1-.334-.142.492.492 0 0 1-.139-.343V.485c0-.128.05-.252.139-.343A.467.467 0 0 1 30.805 0h2.79c.125 0 .246.051.334.142a.492.492 0 0 1 .139.343v31.772c0 .128-.05.252-.139.343a.466.466 0 0 1-.334.142zM33.123.97h-1.847v30.8h1.847z"/></g><g><path d="M4.792 32.742a.466.466 0 0 1-.334-.142.492.492 0 0 1-.138-.343V.485c0-.128.05-.252.138-.343A.467.467 0 0 1 4.792 0h2.79c.126 0 .246.051.335.142a.492.492 0 0 1 .138.343v31.772c0 .128-.05.252-.138.343a.466.466 0 0 1-.335.142zM7.11.97H5.264v30.8H7.11z"/></g><g><path d="M33.595 8.412a.466.466 0 0 1-.334-.142.492.492 0 0 1-.139-.342V4.539c0-.129.05-.252.139-.343a.467.467 0 0 1 .334-.142h2.061c.126 0 .246.05.335.142a.492.492 0 0 1 .138.343v3.388c0 .128-.05.252-.138.343a.467.467 0 0 1-.335.142zm1.589-3.389h-1.118v2.421h1.118z"/></g><g><path d="M33.595 17.823a.466.466 0 0 1-.334-.142.492.492 0 0 1-.139-.342V13.95c0-.129.05-.252.139-.343a.467.467 0 0 1 .334-.142h2.061c.126 0 .246.05.335.142a.492.492 0 0 1 .138.343v3.387c0 .13-.05.253-.138.344a.466.466 0 0 1-.335.142zm1.589-3.39h-1.118v2.422h1.118z"/></g><g><path d="M33.595 27.234a.466.466 0 0 1-.333-.14.492.492 0 0 1-.14-.34v-3.39c0-.128.05-.252.139-.343a.467.467 0 0 1 .334-.142h2.061c.126 0 .246.051.335.142a.492.492 0 0 1 .138.343v3.385c0 .129-.05.252-.138.343a.466.466 0 0 1-.335.142zm1.589-3.389h-1.118v2.421h1.118z"/></g><g><path d="M2.73 8.412a.466.466 0 0 1-.334-.142.492.492 0 0 1-.14-.342V4.539c0-.129.05-.252.14-.343a.467.467 0 0 1 .333-.142h2.063c.126 0 .246.05.334.142a.492.492 0 0 1 .139.343v3.388c0 .128-.05.252-.139.343a.467.467 0 0 1-.334.142zm1.59-3.389H3.2v2.418h1.12z"/></g><g><path d="M2.73 17.823a.466.466 0 0 1-.334-.142.492.492 0 0 1-.14-.342V13.95c0-.129.05-.252.14-.343a.466.466 0 0 1 .333-.142h2.063c.126 0 .246.05.334.142a.492.492 0 0 1 .139.343v3.387c0 .13-.05.253-.139.344a.466.466 0 0 1-.334.142zm1.59-3.39H3.2v2.42h1.12z"/></g><g><path d="M2.73 27.234a.466.466 0 0 1-.333-.14.492.492 0 0 1-.14-.34v-3.39c0-.128.05-.252.138-.343a.467.467 0 0 1 .334-.142h2.063c.126 0 .246.051.334.142a.492.492 0 0 1 .139.343v3.385c0 .129-.05.252-.139.343a.466.466 0 0 1-.334.142zm1.59-3.389H3.2v2.419h1.12z"/></g><g><path d="M7.582 7.777a.466.466 0 0 1-.334-.142.492.492 0 0 1-.138-.343V5.174c0-.129.05-.252.138-.343a.467.467 0 0 1 .334-.142h23.223c.125 0 .245.05.334.142a.492.492 0 0 1 .139.343v2.117c0 .13-.05.253-.139.344a.466.466 0 0 1-.334.142zm22.75-2.118H8.05v1.15h22.283z"/></g><g><path d="M7.582 17.188a.466.466 0 0 1-.333-.142.492.492 0 0 1-.14-.342v-2.119c0-.129.05-.252.14-.343a.467.467 0 0 1 .333-.142h23.223c.125 0 .245.05.334.142a.492.492 0 0 1 .139.343v2.117c0 .129-.05.252-.139.344a.466.466 0 0 1-.334.142zm22.75-2.118H8.05v1.147h22.283z"/></g><g><path d="M7.582 26.6a.466.466 0 0 1-.334-.143.492.492 0 0 1-.138-.342v-2.118c0-.13.05-.253.138-.344a.467.467 0 0 1 .334-.142h23.223c.125 0 .245.051.334.142a.492.492 0 0 1 .139.344v2.117c0 .129-.05.252-.139.343a.466.466 0 0 1-.334.142zm22.75-2.119H8.05v1.148h22.283z"/></g><g><path d="M23.693 5.659a.467.467 0 0 1-.334-.142.492.492 0 0 1-.139-.343V.847c0-.128.05-.252.139-.343a.467.467 0 0 1 .334-.142h4.986c.126 0 .246.051.335.142a.492.492 0 0 1 .138.343v4.326c0 .13-.05.253-.138.344a.466.466 0 0 1-.335.142zm4.515-4.328h-4.044v3.357h4.044z"/></g><g><path d="M16.7 5.659a.467.467 0 0 1-.334-.142.492.492 0 0 1-.139-.343V.847c0-.128.05-.252.139-.343A.467.467 0 0 1 16.7.362h4.987c.125 0 .246.051.334.142a.492.492 0 0 1 .139.343v4.326c0 .13-.05.253-.139.344a.466.466 0 0 1-.334.142zm4.515-4.328h-4.044v3.357h4.044z"/></g><g><path d="M9.707 5.659a.467.467 0 0 1-.334-.142.492.492 0 0 1-.138-.343V.847c0-.128.05-.252.138-.343a.467.467 0 0 1 .334-.142h4.988c.125 0 .245.051.334.142a.492.492 0 0 1 .138.343v4.326c0 .13-.05.253-.138.344a.466.466 0 0 1-.334.142zm4.516-4.328h-4.044v3.357h4.044z"/></g><g><path d="M23.693 15.07a.466.466 0 0 1-.334-.143.492.492 0 0 1-.139-.343V9.44c0-.129.05-.252.139-.343a.466.466 0 0 1 .334-.142h4.986c.126 0 .246.05.335.142a.492.492 0 0 1 .138.343v5.144c0 .129-.05.252-.138.343a.467.467 0 0 1-.335.143zm4.515-5.145h-4.044v4.174h4.044z"/></g><g><path d="M16.7 15.07a.467.467 0 0 1-.334-.143.492.492 0 0 1-.139-.343V9.44c0-.129.05-.252.139-.343a.467.467 0 0 1 .334-.142h4.987c.125 0 .246.05.334.142a.492.492 0 0 1 .139.343v5.144c0 .129-.05.252-.139.343a.467.467 0 0 1-.334.143zm4.515-5.145h-4.044v4.174h4.044z"/></g><g><path d="M9.707 15.07a.467.467 0 0 1-.334-.143.492.492 0 0 1-.138-.343V9.44c0-.129.05-.252.138-.343a.467.467 0 0 1 .334-.142h4.988c.125 0 .245.05.334.142a.492.492 0 0 1 .138.343v5.144c0 .129-.05.252-.138.343a.466.466 0 0 1-.334.143zm4.516-5.145h-4.044v4.174h4.044z"/></g><g><path d="M23.693 24.481a.467.467 0 0 1-.334-.142.492.492 0 0 1-.139-.342v-4.51c0-.13.05-.253.139-.344a.466.466 0 0 1 .334-.142h4.986c.126 0 .246.051.335.142a.492.492 0 0 1 .138.344v4.509c0 .129-.05.252-.138.343a.467.467 0 0 1-.335.142zm4.515-4.51h-4.044v3.54h4.044z"/></g><g><path d="M16.7 24.481a.467.467 0 0 1-.334-.142.492.492 0 0 1-.139-.342v-4.51c0-.13.05-.253.139-.344a.467.467 0 0 1 .334-.142h4.987c.125 0 .246.051.334.142a.492.492 0 0 1 .139.344v4.509c0 .129-.05.252-.139.343a.467.467 0 0 1-.334.142zm4.515-4.51h-4.044v3.54h4.044z"/></g><g><path d="M9.707 24.481a.467.467 0 0 1-.334-.142.492.492 0 0 1-.138-.342v-4.51c0-.13.05-.253.138-.344a.467.467 0 0 1 .334-.142h4.988c.125 0 .245.051.334.142a.492.492 0 0 1 .138.344v4.509c0 .129-.05.252-.138.343a.466.466 0 0 1-.334.142zm4.516-4.51h-4.044v3.54h4.044z"/></g><g><path d="M3.761 32.742h30.865a.466.466 0 0 0 .334-.142.492.492 0 0 0 0-.687.466.466 0 0 0-.334-.142H3.76a.466.466 0 0 0-.334.142.492.492 0 0 0 0 .687.466.466 0 0 0 .334.142z"/></g></g></g></svg>