<svg xmlns="http://www.w3.org/2000/svg" width="40" height="35" viewBox="0 0 40 35"><g><g><g><path fill="#ffe600" d="M6.58 14c0-7.18 5.82-13 13-13s13 5.82 13 13-5.82 13-13 13-13-5.82-13-13z"/></g><g><g><path d="M33.057 11.896a3.45 3.45 0 0 1-2.406-.947 3.152 3.152 0 0 1-.991-2.3c0-.88.354-1.693.99-2.302a3.45 3.45 0 0 1 2.407-.947c.92 0 1.769.338 2.406.947.637.61.99 1.421.99 2.301 0 .88-.354 1.692-.99 2.3a3.45 3.45 0 0 1-2.406.948zm0-5.82c-.708 0-1.345.271-1.911.745a2.556 2.556 0 0 0-.778 1.827c0 .677.283 1.286.778 1.827.495.474 1.203.744 1.91.744.708 0 1.345-.27 1.911-.744.496-.474.779-1.15.779-1.827s-.283-1.286-.779-1.827c-.495-.474-1.203-.744-1.91-.744z"/><path fill="none" stroke="#000" stroke-miterlimit="50" stroke-width=".3" d="M33.057 11.896a3.45 3.45 0 0 1-2.406-.947 3.152 3.152 0 0 1-.991-2.3c0-.88.354-1.693.99-2.302a3.45 3.45 0 0 1 2.407-.947c.92 0 1.769.338 2.406.947.637.61.99 1.421.99 2.301 0 .88-.354 1.692-.99 2.3a3.45 3.45 0 0 1-2.406.948zm0-5.82c-.708 0-1.345.271-1.911.745a2.556 2.556 0 0 0-.778 1.827c0 .677.283 1.286.778 1.827.495.474 1.203.744 1.91.744.708 0 1.345-.27 1.911-.744.496-.474.779-1.15.779-1.827s-.283-1.286-.779-1.827c-.495-.474-1.203-.744-1.91-.744z"/></g><g><path fill="#232323" d="M36.95 12.64a.546.546 0 0 1-.284-.136.398.398 0 0 1 0-.541c.142-.136.354-.339.495-.542.142-.135.354-.203.567-.067.141.135.212.338.07.541-.141.203-.353.406-.566.61-.07.134-.212.134-.283.134z"/><path fill="none" stroke="#232323" stroke-miterlimit="50" stroke-width=".3" d="M36.95 12.64a.546.546 0 0 1-.284-.136.398.398 0 0 1 0-.541c.142-.136.354-.339.495-.542.142-.135.354-.203.567-.067.141.135.212.338.07.541-.141.203-.353.406-.566.61-.07.134-.212.134-.283.134z"/></g><g><path fill="#232323" d="M38.502 9.66s-.07 0 0 0c-.283 0-.425-.203-.354-.406 0-.203.07-.406.07-.609 0-.203 0-.406-.07-.609 0-.203.142-.406.354-.406s.424.135.424.338c0 .271.071.474.071.745 0 .27 0 .473-.07.744-.071.068-.213.203-.425.203z"/><path fill="none" stroke="#232323" stroke-miterlimit="50" stroke-width=".3" d="M38.502 9.66s-.07 0 0 0c-.283 0-.425-.203-.354-.406 0-.203.07-.406.07-.609 0-.203 0-.406-.07-.609 0-.203.142-.406.354-.406s.424.135.424.338c0 .271.071.474.071.745 0 .27 0 .473-.07.744-.071.068-.213.203-.425.203z"/></g><g><path fill="#232323" d="M37.445 5.8c-.142 0-.213-.068-.284-.136-.141-.203-.283-.338-.495-.541a.398.398 0 0 1 0-.542c.142-.135.425-.135.566 0 .213.203.354.407.566.61.142.135.071.406-.07.54-.142.069-.213.069-.283.069z"/><path fill="none" stroke="#232323" stroke-miterlimit="50" stroke-width=".3" d="M37.445 5.8c-.142 0-.213-.068-.284-.136-.141-.203-.283-.338-.495-.541a.398.398 0 0 1 0-.542c.142-.135.425-.135.566 0 .213.203.354.407.566.61.142.135.071.406-.07.54-.142.069-.213.069-.283.069z"/></g><g><path fill="#232323" d="M33.053 14.193c-1.556 0-3.042-.61-4.175-1.624-1.132-1.083-1.698-2.436-1.698-3.993 0-1.488.637-2.91 1.698-3.992 1.133-1.083 2.548-1.624 4.175-1.624 1.557 0 3.043.609 4.176 1.624a.398.398 0 0 1 0 .541c-.142.136-.425.136-.567 0-.99-.947-2.264-1.42-3.609-1.42-1.344 0-2.618.473-3.609 1.42a4.704 4.704 0 0 0-1.486 3.451c0 1.286.496 2.504 1.486 3.452.991.947 2.265 1.42 3.61 1.42 1.344 0 2.618-.473 3.608-1.42.142-.136.425-.136.567 0a.398.398 0 0 1 0 .54c-1.133 1.016-2.619 1.625-4.176 1.625z"/><path fill="none" stroke="#232323" stroke-miterlimit="50" stroke-width=".3" d="M33.053 14.193c-1.556 0-3.042-.61-4.175-1.624-1.132-1.083-1.698-2.436-1.698-3.993 0-1.488.637-2.91 1.698-3.992 1.133-1.083 2.548-1.624 4.175-1.624 1.557 0 3.043.609 4.176 1.624a.398.398 0 0 1 0 .541c-.142.136-.425.136-.567 0-.99-.947-2.264-1.42-3.609-1.42-1.344 0-2.618.473-3.609 1.42a4.704 4.704 0 0 0-1.486 3.451c0 1.286.496 2.504 1.486 3.452.991.947 2.265 1.42 3.61 1.42 1.344 0 2.618-.473 3.608-1.42.142-.136.425-.136.567 0a.398.398 0 0 1 0 .54c-1.133 1.016-2.619 1.625-4.176 1.625z"/></g><g><path fill="#232323" d="M16.784 27.597a.547.547 0 0 1-.283-.135l-3.185-3.045a.398.398 0 0 1 0-.542l7.289-6.97c.07-.067.141-.135.283-.135.07 0 .212.068.283.135l3.184 3.045a.398.398 0 0 1 0 .542l-7.36 7.037c-.07.068-.14.068-.211.068zm-2.69-3.384l2.619 2.504 6.793-6.496-2.618-2.504z"/><path fill="none" stroke="#232323" stroke-miterlimit="50" stroke-width=".3" d="M16.784 27.597a.547.547 0 0 1-.283-.135l-3.185-3.045a.398.398 0 0 1 0-.542l7.289-6.97c.07-.067.141-.135.283-.135.07 0 .212.068.283.135l3.184 3.045a.398.398 0 0 1 0 .542l-7.36 7.037c-.07.068-.14.068-.211.068zm-2.69-3.384l2.619 2.504 6.793-6.496-2.618-2.504z"/></g><g><path fill="#232323" d="M13.592 33.072a.547.547 0 0 1-.283-.135.398.398 0 0 1 0-.541c1.415-1.354 1.415-3.587 0-5.008-.708-.676-1.628-1.015-2.618-1.015-.991 0-1.911.339-2.619 1.015-.141.136-.424.136-.566 0a.398.398 0 0 1 0-.541l4.387-4.195c.142-.136.425-.136.567 0l5.731 5.48a.398.398 0 0 1 0 .542l-4.387 4.195c0 .136-.07.203-.212.203zm-2.83-7.375c1.202 0 2.334.473 3.184 1.218a4.19 4.19 0 0 1 1.203 3.857l2.406-2.301-5.308-5.007-2.406 2.3c.354-.067.637-.067.92-.067z"/><path fill="none" stroke="#232323" stroke-miterlimit="50" stroke-width=".3" d="M13.592 33.072a.547.547 0 0 1-.283-.135.398.398 0 0 1 0-.541c1.415-1.354 1.415-3.587 0-5.008-.708-.676-1.628-1.015-2.618-1.015-.991 0-1.911.339-2.619 1.015-.141.136-.424.136-.566 0a.398.398 0 0 1 0-.541l4.387-4.195c.142-.136.425-.136.567 0l5.731 5.48a.398.398 0 0 1 0 .542l-4.387 4.195c0 .136-.07.203-.212.203zm-2.83-7.375c1.202 0 2.334.473 3.184 1.218a4.19 4.19 0 0 1 1.203 3.857l2.406-2.301-5.308-5.007-2.406 2.3c.354-.067.637-.067.92-.067z"/></g><g><path fill="#232323" d="M10.768 32.197c-.637 0-1.203-.203-1.628-.677-.92-.88-.92-2.3 0-3.18.92-.88 2.406-.88 3.326 0 .92.88.92 2.3 0 3.18a2.472 2.472 0 0 1-1.698.677zm0-3.79c-.425 0-.779.136-1.133.474-.637.61-.637 1.556 0 2.165a1.632 1.632 0 0 0 2.265 0c.637-.609.637-1.556 0-2.165a1.658 1.658 0 0 0-1.132-.474z"/><path fill="none" stroke="#232323" stroke-miterlimit="50" stroke-width=".3" d="M10.768 32.197c-.637 0-1.203-.203-1.628-.677-.92-.88-.92-2.3 0-3.18.92-.88 2.406-.88 3.326 0 .92.88.92 2.3 0 3.18a2.472 2.472 0 0 1-1.698.677zm0-3.79c-.425 0-.779.136-1.133.474-.637.61-.637 1.556 0 2.165a1.632 1.632 0 0 0 2.265 0c.637-.609.637-1.556 0-2.165a1.658 1.658 0 0 0-1.132-.474z"/></g><g><path fill="#232323" d="M10.768 34.226a4.869 4.869 0 0 1-3.184-1.218c-.85-.812-1.274-1.895-1.274-3.045s.495-2.233 1.274-3.045c.849-.812 1.981-1.218 3.184-1.218s2.335.474 3.184 1.218c1.77 1.692 1.77 4.33 0 6.023-.92.812-1.98 1.285-3.184 1.285zm0-7.782c-.99 0-1.91.339-2.618 1.015a3.398 3.398 0 0 0-1.062 2.504c0 .947.354 1.827 1.062 2.504.707.676 1.627 1.015 2.618 1.015.99 0 1.91-.339 2.618-1.015 1.416-1.354 1.416-3.587 0-5.008-.707-.676-1.627-1.015-2.618-1.015z"/><path fill="none" stroke="#232323" stroke-miterlimit="50" stroke-width=".3" d="M10.768 34.226a4.869 4.869 0 0 1-3.184-1.218c-.85-.812-1.274-1.895-1.274-3.045s.495-2.233 1.274-3.045c.849-.812 1.981-1.218 3.184-1.218s2.335.474 3.184 1.218c1.77 1.692 1.77 4.33 0 6.023-.92.812-1.98 1.285-3.184 1.285zm0-7.782c-.99 0-1.91.339-2.618 1.015a3.398 3.398 0 0 0-1.062 2.504c0 .947.354 1.827 1.062 2.504.707.676 1.627 1.015 2.618 1.015.99 0 1.91-.339 2.618-1.015 1.416-1.354 1.416-3.587 0-5.008-.707-.676-1.627-1.015-2.618-1.015z"/></g><g><path fill="#232323" d="M26.4 20.35a.546.546 0 0 1-.284-.136.398.398 0 0 1 0-.541l.566-.541c.142-.136.425-.136.566 0a.398.398 0 0 1 0 .54l-.566.542c-.141.136-.212.136-.283.136z"/><path fill="none" stroke="#232323" stroke-miterlimit="50" stroke-width=".3" d="M26.4 20.35a.546.546 0 0 1-.284-.136.398.398 0 0 1 0-.541l.566-.541c.142-.136.425-.136.566 0a.398.398 0 0 1 0 .54l-.566.542c-.141.136-.212.136-.283.136z"/></g><g><path fill="#232323" d="M28.32 18.455a.546.546 0 0 1-.284-.135.398.398 0 0 1 0-.542l.708-.676c.141-.136.424-.136.566 0a.398.398 0 0 1 0 .54l-.708.678c-.07.135-.141.135-.283.135z"/><path fill="none" stroke="#232323" stroke-miterlimit="50" stroke-width=".3" d="M28.32 18.455a.546.546 0 0 1-.284-.135.398.398 0 0 1 0-.542l.708-.676c.141-.136.424-.136.566 0a.398.398 0 0 1 0 .54l-.708.678c-.07.135-.141.135-.283.135z"/></g><g><path fill="#232323" d="M30.44 16.43a.546.546 0 0 1-.284-.136.398.398 0 0 1 0-.541l.566-.541c.142-.136.425-.136.566 0a.398.398 0 0 1 0 .54l-.566.542c-.07.136-.141.136-.283.136z"/><path fill="none" stroke="#232323" stroke-miterlimit="50" stroke-width=".3" d="M30.44 16.43a.546.546 0 0 1-.284-.136.398.398 0 0 1 0-.541l.566-.541c.142-.136.425-.136.566 0a.398.398 0 0 1 0 .54l-.566.542c-.07.136-.141.136-.283.136z"/></g><g><path fill="#232323" d="M25.061 21.572a.546.546 0 0 1-.283-.135l-5.236-5.008c-.071-.067-.142-.135-.142-.27 0-.068.07-.203.142-.271l7.713-7.376c.141-.135.283-.135.424-.068a.37.37 0 0 1 .213.339 4.83 4.83 0 0 0 1.486 3.248c.92.88 2.123 1.353 3.396 1.42.142 0 .283.069.354.204.07.135 0 .27-.07.406l-1.84 1.76c-.142.135-.425.135-.567 0a.398.398 0 0 1 0-.542l1.274-1.218c-1.132-.203-2.264-.744-3.113-1.556a5.457 5.457 0 0 1-1.628-2.978l-6.935 6.632 4.67 4.466.991-.948c.142-.135.425-.135.566 0a.398.398 0 0 1 0 .542l-1.273 1.218c.07.135 0 .135-.142.135z"/><path fill="none" stroke="#232323" stroke-miterlimit="50" stroke-width=".3" d="M25.061 21.572a.546.546 0 0 1-.283-.135l-5.236-5.008c-.071-.067-.142-.135-.142-.27 0-.068.07-.203.142-.271l7.713-7.376c.141-.135.283-.135.424-.068a.37.37 0 0 1 .213.339 4.83 4.83 0 0 0 1.486 3.248c.92.88 2.123 1.353 3.396 1.42.142 0 .283.069.354.204.07.135 0 .27-.07.406l-1.84 1.76c-.142.135-.425.135-.567 0a.398.398 0 0 1 0-.542l1.274-1.218c-1.132-.203-2.264-.744-3.113-1.556a5.457 5.457 0 0 1-1.628-2.978l-6.935 6.632v0l4.67 4.466v0l.991-.948c.142-.135.425-.135.566 0a.398.398 0 0 1 0 .542l-1.273 1.218c.07.135 0 .135-.142.135z"/></g><g><path fill="#232323" d="M20.817 7.497c-.708 0-1.345-.27-1.77-.677a2.295 2.295 0 0 1-.707-1.692c0-.676.283-1.285.708-1.691.495-.474 1.132-.677 1.769-.677.707 0 1.344.27 1.769.677.495.473.707 1.082.707 1.691a2.35 2.35 0 0 1-.707 1.692c-.425.474-1.062.677-1.77.677zm0-4.263c-.496 0-.991.203-1.416.541-.424.338-.566.812-.566 1.353 0 .474.213.948.566 1.354.354.406.85.541 1.416.541.495 0 .99-.203 1.415-.541.354-.339.566-.812.566-1.354 0-.473-.212-.947-.566-1.353-.354-.338-.85-.541-1.415-.541z"/><path fill="none" stroke="#232323" stroke-miterlimit="50" stroke-width=".3" d="M20.817 7.497c-.708 0-1.345-.27-1.77-.677a2.295 2.295 0 0 1-.707-1.692c0-.676.283-1.285.708-1.691.495-.474 1.132-.677 1.769-.677.707 0 1.344.27 1.769.677.495.473.707 1.082.707 1.691a2.35 2.35 0 0 1-.707 1.692c-.425.474-1.062.677-1.77.677zm0-4.263c-.496 0-.991.203-1.416.541-.424.338-.566.812-.566 1.353 0 .474.213.948.566 1.354.354.406.85.541 1.416.541.495 0 .99-.203 1.415-.541.354-.339.566-.812.566-1.354 0-.473-.212-.947-.566-1.353-.354-.338-.85-.541-1.415-.541z"/></g><g><path fill="#232323" d="M23.718 8.102c-.07 0-.141 0-.212-.068-.141-.135-.141-.27 0-.406.142-.135.212-.27.354-.406.07-.135.283-.135.425-.068.141.068.141.271.07.406l-.424.406c-.071.136-.142.136-.213.136z"/><path fill="none" stroke="#232323" stroke-miterlimit="50" stroke-width=".3" d="M23.718 8.102c-.07 0-.141 0-.212-.068-.141-.135-.141-.27 0-.406.142-.135.212-.27.354-.406.07-.135.283-.135.425-.068.141.068.141.271.07.406l-.424.406c-.071.136-.142.136-.213.136z"/></g><g><path fill="#232323" d="M24.843 5.869c-.212 0-.283-.136-.283-.271v-.474-.473c0-.136.07-.271.212-.271s.283.068.283.203c0 .203.071.338.071.541s0 .339-.07.542c.07.135-.071.203-.213.203z"/><path fill="none" stroke="#232323" stroke-miterlimit="50" stroke-width=".3" d="M24.843 5.869c-.212 0-.283-.136-.283-.271v-.474-.473c0-.136.07-.271.212-.271s.283.068.283.203c0 .203.071.338.071.541s0 .339-.07.542c.07.135-.071.203-.213.203z"/></g><g><path fill="#232323" d="M24.072 3.029c-.07 0-.141-.068-.212-.135-.07-.136-.212-.271-.354-.406-.141-.136-.141-.271 0-.406.142-.136.283-.136.425 0l.424.406c.071.135.071.27-.07.406-.071.135-.142.135-.213.135z"/><path fill="none" stroke="#232323" stroke-miterlimit="50" stroke-width=".3" d="M24.072 3.029c-.07 0-.141-.068-.212-.135-.07-.136-.212-.271-.354-.406-.141-.136-.141-.271 0-.406.142-.136.283-.136.425 0l.424.406c.071.135.071.27-.07.406-.071.135-.142.135-.213.135z"/></g><g><path fill="#232323" d="M20.817 9.256c-1.133 0-2.265-.406-3.043-1.219-.85-.812-1.274-1.827-1.274-2.91 0-1.082.425-2.165 1.274-2.909A4.33 4.33 0 0 1 20.817 1c1.132 0 2.264.406 3.042 1.218.142.135.142.27 0 .406-.141.135-.283.135-.424 0a3.827 3.827 0 0 0-2.69-1.083c-.99 0-1.98.406-2.688 1.083-.708.677-1.132 1.556-1.132 2.571 0 1.015.495 1.76 1.273 2.436a3.827 3.827 0 0 0 2.69 1.083c.99 0 1.98-.406 2.688-1.083.142-.135.283-.135.425 0 .141.136.141.271 0 .406-.92.745-2.052 1.219-3.184 1.219z"/><path fill="none" stroke="#232323" stroke-miterlimit="50" stroke-width=".3" d="M20.817 9.256c-1.133 0-2.265-.406-3.043-1.219-.85-.812-1.274-1.827-1.274-2.91 0-1.082.425-2.165 1.274-2.909A4.33 4.33 0 0 1 20.817 1c1.132 0 2.264.406 3.042 1.218.142.135.142.27 0 .406-.141.135-.283.135-.424 0a3.827 3.827 0 0 0-2.69-1.083c-.99 0-1.98.406-2.688 1.083-.708.677-1.132 1.556-1.132 2.571 0 1.015.495 1.76 1.273 2.436a3.827 3.827 0 0 0 2.69 1.083c.99 0 1.98-.406 2.688-1.083.142-.135.283-.135.425 0 .141.136.141.271 0 .406-.92.745-2.052 1.219-3.184 1.219z"/></g><g><path fill="#232323" d="M8.784 19.137c-.071 0-.142 0-.213-.067l-2.335-2.234c-.141-.135-.141-.27 0-.406l5.378-5.142c.07-.068.142-.068.212-.068.071 0 .142 0 .213.068l2.335 2.233c.141.135.141.27 0 .406L8.996 19.07c-.07.067-.142.067-.212.067zm-1.982-2.504l1.982 1.895 5.024-4.804-1.982-1.895z"/><path fill="none" stroke="#232323" stroke-miterlimit="50" stroke-width=".3" d="M8.784 19.137c-.071 0-.142 0-.213-.067l-2.335-2.234c-.141-.135-.141-.27 0-.406l5.378-5.142c.07-.068.142-.068.212-.068.071 0 .142 0 .213.068l2.335 2.233c.141.135.141.27 0 .406L8.996 19.07c-.07.067-.142.067-.212.067zm-1.982-2.504l1.982 1.895 5.024-4.804-1.982-1.895z"/></g><g><path fill="#232323" d="M6.444 23.195c-.07 0-.141 0-.212-.068-.142-.135-.142-.27 0-.406 1.061-1.015 1.061-2.639 0-3.721-.495-.474-1.203-.745-1.91-.745-.708 0-1.416.27-1.911.745-.142.135-.283.135-.425 0-.141-.136-.141-.271 0-.407l3.255-3.112c.071-.068.283-.068.425 0l4.246 4.06c.141.135.141.27 0 .406L6.657 23.06c-.071.067-.142.135-.213.135zm-2.123-5.481c.85 0 1.699.338 2.336.947.778.745 1.132 1.827.92 2.842l1.769-1.691-3.892-3.722-1.77 1.691c.213 0 .425-.067.637-.067z"/><path fill="none" stroke="#232323" stroke-miterlimit="50" stroke-width=".3" d="M6.444 23.195c-.07 0-.141 0-.212-.068-.142-.135-.142-.27 0-.406 1.061-1.015 1.061-2.639 0-3.721-.495-.474-1.203-.745-1.91-.745-.708 0-1.416.27-1.911.745-.142.135-.283.135-.425 0-.141-.136-.141-.271 0-.407l3.255-3.112c.071-.068.283-.068.425 0l4.246 4.06c.141.135.141.27 0 .406L6.657 23.06c-.071.067-.142.135-.213.135zm-2.123-5.481c.85 0 1.699.338 2.336.947.778.745 1.132 1.827.92 2.842l1.769-1.691-3.892-3.722-1.77 1.691c.213 0 .425-.067.637-.067z"/></g><g><path fill="#232323" d="M4.324 22.52c-.425 0-.92-.136-1.203-.474-.708-.677-.708-1.692 0-2.368a1.765 1.765 0 0 1 2.476 0c.708.676.708 1.691 0 2.368-.353.338-.849.474-1.273.474zm0-2.775c-.283 0-.566.136-.85.339-.424.406-.424 1.15 0 1.556.425.406 1.204.406 1.628 0 .425-.406.425-1.15 0-1.556-.141-.203-.495-.339-.778-.339z"/><path fill="none" stroke="#232323" stroke-miterlimit="50" stroke-width=".3" d="M4.324 22.52c-.425 0-.92-.136-1.203-.474-.708-.677-.708-1.692 0-2.368a1.765 1.765 0 0 1 2.476 0c.708.676.708 1.691 0 2.368-.353.338-.849.474-1.273.474zm0-2.775c-.283 0-.566.136-.85.339-.424.406-.424 1.15 0 1.556.425.406 1.204.406 1.628 0 .425-.406.425-1.15 0-1.556-.141-.203-.495-.339-.778-.339z"/></g><g><path fill="#232323" d="M4.326 24.01c-.85 0-1.698-.338-2.335-.947S1 21.71 1 20.83c0-.88.354-1.624.99-2.233.638-.609 1.416-.947 2.336-.947.92 0 1.698.338 2.335.947a3.088 3.088 0 0 1 0 4.466 3.407 3.407 0 0 1-2.335.948zm0-5.751c-.708 0-1.415.27-1.91.744a2.556 2.556 0 0 0-.78 1.827c0 .677.284 1.354.78 1.827.495.474 1.202.745 1.91.745s1.415-.27 1.91-.745c1.062-1.015 1.062-2.639 0-3.721a3.103 3.103 0 0 0-1.91-.677z"/><path fill="none" stroke="#232323" stroke-miterlimit="50" stroke-width=".3" d="M4.326 24.01c-.85 0-1.698-.338-2.335-.947S1 21.71 1 20.83c0-.88.354-1.624.99-2.233.638-.609 1.416-.947 2.336-.947.92 0 1.698.338 2.335.947a3.088 3.088 0 0 1 0 4.466 3.407 3.407 0 0 1-2.335.948zm0-5.751c-.708 0-1.415.27-1.91.744a2.556 2.556 0 0 0-.78 1.827c0 .677.284 1.354.78 1.827.495.474 1.202.745 1.91.745s1.415-.27 1.91-.745c1.062-1.015 1.062-2.639 0-3.721a3.103 3.103 0 0 0-1.91-.677z"/></g><g><path fill="#232323" d="M15.858 13.791c-.07 0-.141 0-.212-.067-.141-.136-.141-.271 0-.406l.425-.406c.141-.136.283-.136.424 0 .142.135.142.27 0 .406l-.424.406c-.071.067-.142.067-.213.067z"/><path fill="none" stroke="#232323" stroke-miterlimit="50" stroke-width=".3" d="M15.858 13.791c-.07 0-.141 0-.212-.067-.141-.136-.141-.271 0-.406l.425-.406c.141-.136.283-.136.424 0 .142.135.142.27 0 .406l-.424.406c-.071.067-.142.067-.213.067z"/></g><g><path fill="#232323" d="M17.348 12.439c-.07 0-.141 0-.212-.068-.141-.135-.141-.27 0-.406l.496-.473c.141-.136.283-.136.424 0 .142.135.142.27 0 .406l-.495.473c-.071 0-.142.068-.213.068z"/><path fill="none" stroke="#232323" stroke-miterlimit="50" stroke-width=".3" d="M17.348 12.439c-.07 0-.141 0-.212-.068-.141-.135-.141-.27 0-.406l.496-.473c.141-.136.283-.136.424 0 .142.135.142.27 0 .406l-.495.473c-.071 0-.142.068-.213.068z"/></g><g><path fill="#232323" d="M18.898 10.951c-.07 0-.141 0-.212-.067-.141-.136-.141-.271 0-.406l.425-.406c.141-.136.283-.136.424 0 .142.135.142.27 0 .406l-.424.406c-.071 0-.142.067-.213.067z"/><path fill="none" stroke="#232323" stroke-miterlimit="50" stroke-width=".3" d="M18.898 10.951c-.07 0-.141 0-.212-.067-.141-.136-.141-.271 0-.406l.425-.406c.141-.136.283-.136.424 0 .142.135.142.27 0 .406l-.424.406c-.071 0-.142.067-.213.067z"/></g><g><path fill="#232323" d="M14.945 14.734c-.07 0-.141 0-.212-.067l-3.892-3.722c-.071-.068-.071-.136-.071-.203 0-.068 0-.136.07-.203l5.733-5.481c.07-.068.212-.068.283-.068.07.068.141.135.212.27.07.88.425 1.76 1.061 2.37.637.608 1.557 1.014 2.477 1.014.142 0 .212.068.283.203.071.068 0 .203-.07.27l-1.345 1.286c-.142.136-.283.136-.425 0-.141-.135-.141-.27 0-.406l.92-.88c-.849-.135-1.627-.54-2.264-1.15-.637-.609-1.062-1.353-1.203-2.165l-5.095 4.872 3.467 3.316.779-.744c.141-.136.283-.136.424 0 .142.135.142.27 0 .406l-.92.88c-.07.135-.141.202-.212.202z"/><path fill="none" stroke="#232323" stroke-miterlimit="50" stroke-width=".3" d="M14.945 14.734c-.07 0-.141 0-.212-.067l-3.892-3.722c-.071-.068-.071-.136-.071-.203 0-.068 0-.136.07-.203l5.733-5.481c.07-.068.212-.068.283-.068.07.068.141.135.212.27.07.88.425 1.76 1.061 2.37.637.608 1.557 1.014 2.477 1.014.142 0 .212.068.283.203.071.068 0 .203-.07.27l-1.345 1.286c-.142.136-.283.136-.425 0-.141-.135-.141-.27 0-.406l.92-.88c-.849-.135-1.627-.54-2.264-1.15-.637-.609-1.062-1.353-1.203-2.165l-5.095 4.872v0l3.467 3.316v0l.779-.744c.141-.136.283-.136.424 0 .142.135.142.27 0 .406l-.92.88c-.07.135-.141.202-.212.202z"/></g></g></g></g></svg>