<svg xmlns="http://www.w3.org/2000/svg" width="68" height="439" viewBox="0 0 68 439"><g><g><g><path fill="#ffe600" d="M26.252 412.126c0 7.249-5.877 13.126-13.126 13.126-7.25 0-13.126-5.877-13.126-13.126C0 404.876 5.877 399 13.126 399s13.126 5.877 13.126 13.126z"/></g><g transform="rotate(150.13 15 418.5)"><path fill="#232323" d="M19.486 410.86c.257 0 .43.168.43.42v7.155c0 3.282-2.749 5.975-6.098 5.975-3.35 0-6.098-2.693-6.098-5.975v-7.154c.086-.253.258-.421.515-.421zm-10.735.842v6.733c0 2.777 2.318 5.05 5.152 5.05 2.835 0 5.153-2.273 5.153-5.05v-6.733z"/><path fill="none" stroke="#232323" stroke-miterlimit="50" stroke-width=".3" d="M19.486 410.86c.257 0 .43.168.43.42v7.155c0 3.282-2.749 5.975-6.098 5.975-3.35 0-6.098-2.693-6.098-5.975v-7.154c.086-.253.258-.421.515-.421zm-10.735.842v6.733c0 2.777 2.318 5.05 5.152 5.05 2.835 0 5.153-2.273 5.153-5.05v-6.733z"/></g><g transform="rotate(150.13 13.5 417)"><path fill="#232323" d="M13.478 413.66c1.855 0 3.387 1.532 3.387 3.388 0 1.855-1.532 3.387-3.387 3.387-1.856 0-3.388-1.532-3.388-3.387 0-1.936 1.532-3.388 3.388-3.388zm0 5.807c1.37 0 2.5-1.129 2.5-2.5s-1.13-2.5-2.5-2.5c-1.372 0-2.5 1.129-2.5 2.5s1.128 2.5 2.5 2.5z"/><path fill="none" stroke="#232323" stroke-miterlimit="50" stroke-width=".3" d="M13.478 413.66c1.855 0 3.387 1.532 3.387 3.388 0 1.855-1.532 3.387-3.387 3.387-1.856 0-3.388-1.532-3.388-3.387 0-1.936 1.532-3.388 3.388-3.388zm0 5.807c1.37 0 2.5-1.129 2.5-2.5s-1.13-2.5-2.5-2.5c-1.372 0-2.5 1.129-2.5 2.5s1.128 2.5 2.5 2.5z"/></g><g transform="rotate(150.13 17.5 424.5)"><path fill="#232323" d="M24.033 422.07c.514 0 .942.484.942 1.065v1.935c0 .581-.428 1.065-.942 1.065h-13.02c-.515 0-.943-.484-.943-1.065v-1.935c0-.581.428-1.065.942-1.065zm0 3v-1.935h-13.02v1.935z"/><path fill="none" stroke="#232323" stroke-miterlimit="50" stroke-width=".3" d="M24.033 422.07c.514 0 .942.484.942 1.065v1.935c0 .581-.428 1.065-.942 1.065h-13.02c-.515 0-.943-.484-.943-1.065v-1.935c0-.581.428-1.065.942-1.065zm0 3v-1.935h-13.02v1.935z"/></g><g transform="rotate(150.13 22 431)"><path fill="#232323" d="M19.33 423.606c.095 0 .189 0 .283.086l5.834 3.867c.094.085.188.257.188.343v4.812c0 .258-.188.43-.47.43h-1.788v.601h1.788c.282 0 .47.172.47.43v2.234c0 .258-.188.43-.47.43h-1.788v.515h1.788c.282 0 .47.172.47.43v2.922c0 .257-.188.43-.47.43H19.33c-.282 0-.47-.173-.47-.43v-5.156c0-.258.188-.43.47-.43h.565v-6.1h-.565c-.282 0-.47-.172-.47-.43v-4.64c0-.172.094-.344.282-.43 0 .086.094.086.188.086zm5.364 4.554l-4.799-3.18v3.266h.565c.282 0 .47.172.47.43v6.96c0 .258-.188.43-.47.43h-.565v4.296h4.8v-1.976h-1.789c-.282 0-.47-.172-.47-.43v-1.375c0-.258.188-.43.47-.43h1.788v-1.288h-1.788c-.282 0-.47-.172-.47-.43v-1.547c0-.258.188-.43.47-.43h1.788z"/><path fill="none" stroke="#232323" stroke-miterlimit="50" stroke-width=".3" d="M19.33 423.606c.095 0 .189 0 .283.086l5.834 3.867c.094.085.188.257.188.343v4.812c0 .258-.188.43-.47.43h-1.788v.601h1.788c.282 0 .47.172.47.43v2.234c0 .258-.188.43-.47.43h-1.788v.515h1.788c.282 0 .47.172.47.43v2.922c0 .257-.188.43-.47.43H19.33c-.282 0-.47-.173-.47-.43v-5.156c0-.258.188-.43.47-.43h.565v-6.1h-.565c-.282 0-.47-.172-.47-.43v-4.64c0-.172.094-.344.282-.43 0 .086.094.086.188.086zm5.364 4.554l-4.799-3.18v3.266h.565c.282 0 .47.172.47.43v6.96c0 .258-.188.43-.47.43h-.565v4.296h4.8v-1.976h-1.789c-.282 0-.47-.172-.47-.43v-1.375c0-.258.188-.43.47-.43h1.788v-1.288h-1.788c-.282 0-.47-.172-.47-.43v-1.547c0-.258.188-.43.47-.43h1.788z"/></g><g transform="rotate(150.13 34 424.5)"><path fill="#232323" d="M28.146 416.86h.18l6.646 1.831c.18 0 .269.166.359.25l1.706 4.41c.09.25 0 .5-.27.583l-1.526.5v.582l1.527-.5h.359l.27.25.808 1.998c.09.25 0 .5-.27.582l-1.526.5.18.416 1.526-.5h.36l.269.25.988 2.747c.09.25 0 .5-.27.582l-5.299 1.748c-.27.083-.539 0-.628-.25l-1.797-4.743c-.09-.25 0-.5.27-.583l.449-.167-2.156-5.576-.449.167c-.269.083-.538 0-.628-.25l-1.617-4.244c-.09-.167 0-.333.09-.5.18 0 .27-.083.449-.083zm6.197 2.663l-5.479-1.498 1.168 2.996.45-.166c.269-.083.538 0 .628.25l2.425 6.408c.09.25 0 .5-.27.583l-.449.166 1.527 3.912 4.31-1.415-.718-1.831-1.526.5h-.36l-.27-.25-.448-1.249c-.09-.25 0-.5.27-.583l1.526-.499-.449-1.165-1.527.5h-.359l-.27-.25-.538-1.415c-.09-.25 0-.5.27-.583l1.526-.5z"/><path fill="none" stroke="#232323" stroke-miterlimit="50" stroke-width=".3" d="M28.146 416.86h.18l6.646 1.831c.18 0 .269.166.359.25l1.706 4.41c.09.25 0 .5-.27.583l-1.526.5v.582l1.527-.5h.359l.27.25.808 1.998c.09.25 0 .5-.27.582l-1.526.5.18.416 1.526-.5h.36l.269.25.988 2.747c.09.25 0 .5-.27.582l-5.299 1.748c-.27.083-.539 0-.628-.25l-1.797-4.743c-.09-.25 0-.5.27-.583l.449-.167-2.156-5.576-.449.167c-.269.083-.538 0-.628-.25l-1.617-4.244c-.09-.167 0-.333.09-.5.18 0 .27-.083.449-.083zm6.197 2.663l-5.479-1.498 1.168 2.996.45-.166c.269-.083.538 0 .628.25l2.425 6.408c.09.25 0 .5-.27.583l-.449.166 1.527 3.912 4.31-1.415-.718-1.831-1.526.5h-.36l-.27-.25-.448-1.249c-.09-.25 0-.5.27-.583l1.526-.499-.449-1.165-1.527.5h-.359l-.27-.25-.538-1.415c-.09-.25 0-.5.27-.583l1.526-.5z"/></g><g transform="rotate(150.13 20 408.5)"><path fill="#232323" d="M23.57 404.06h.428c.256 0 .427.268.427.537 0 .268-.256.447-.512.447h-.428c-4.272 0-7.69 3.67-7.69 8.054 0 .268-.17.447-.426.447-.257 0-.428-.179-.428-.447-.085-5.011 3.845-9.038 8.63-9.038z"/><path fill="none" stroke="#232323" stroke-miterlimit="50" stroke-width=".3" d="M23.57 404.06h.428c.256 0 .427.268.427.537 0 .268-.256.447-.512.447h-.428c-4.272 0-7.69 3.67-7.69 8.054 0 .268-.17.447-.426.447-.257 0-.428-.179-.428-.447-.085-5.011 3.845-9.038 8.63-9.038z"/></g><g transform="rotate(150.13 -710 117)"><path fill="#232323" d="M21.77 402.24V402.24z"/><path fill="none" stroke="#232323" stroke-miterlimit="50" stroke-width=".3" d="M21.77 402.24V402.24z"/></g><g transform="rotate(150.13 11.5 408)"><path fill="#232323" d="M10.121 400.18h.154c2.991 1.348 4.985 4.763 4.985 8.538 0 5.033-3.451 9.077-7.747 9.077-.23 0-.383-.18-.383-.45 0-.269.153-.448.384-.448 3.834 0 6.902-3.685 6.902-8.09 0-3.324-1.764-6.38-4.448-7.638-.23-.09-.307-.36-.23-.63 0-.18.23-.359.383-.359z"/><path fill="none" stroke="#232323" stroke-miterlimit="50" stroke-width=".3" d="M10.121 400.18h.154c2.991 1.348 4.985 4.763 4.985 8.538 0 5.033-3.451 9.077-7.747 9.077-.23 0-.383-.18-.383-.45 0-.269.153-.448.384-.448 3.834 0 6.902-3.685 6.902-8.09 0-3.324-1.764-6.38-4.448-7.638-.23-.09-.307-.36-.23-.63 0-.18.23-.359.383-.359z"/></g><g transform="rotate(150.13 20.5 409)"><path fill="#232323" d="M16.106 406.59c.185 0 .37.097.462.388l.461 1.455c1.016 3.006 4.247 4.655 7.108 3.588.093 0 .185-.097.185-.097h.092c.277-.097.554 0 .647.291.092.291 0 .582-.277.68h-.093c-.092 0-.184.096-.277.096-1.661.582-3.415.485-4.985-.29a6.466 6.466 0 0 1-3.323-3.88l-.461-1.455c-.093-.291 0-.582.277-.679.092-.097.184-.097.184-.097z"/><path fill="none" stroke="#232323" stroke-miterlimit="50" stroke-width=".3" d="M16.106 406.59c.185 0 .37.097.462.388l.461 1.455c1.016 3.006 4.247 4.655 7.108 3.588.093 0 .185-.097.185-.097v0h.092c.277-.097.554 0 .647.291.092.291 0 .582-.277.68h-.093c-.092 0-.184.096-.277.096-1.661.582-3.415.485-4.985-.29a6.466 6.466 0 0 1-3.323-3.88l-.461-1.455c-.093-.291 0-.582.277-.679.092-.097.184-.097.184-.097z"/></g><g transform="rotate(150.13 28.5 412.5)"><path fill="#232323" d="M27.904 411.21c.184 0 .367.127.46.507l.367 1.268c.091.38 0 .76-.276.887s-.551 0-.643-.38l-.368-1.268c-.091-.38 0-.76.276-.887.092-.127.184-.127.184-.127z"/><path fill="none" stroke="#232323" stroke-miterlimit="50" stroke-width=".3" d="M27.904 411.21c.184 0 .367.127.46.507l.367 1.268c.091.38 0 .76-.276.887s-.551 0-.643-.38l-.368-1.268c-.091-.38 0-.76.276-.887.092-.127.184-.127.184-.127z"/></g><g transform="rotate(150.13 25.5 410)"><path fill="#232323" d="M25.044 409.62c.184 0 .367.063.46.254l.367.634c.091.19 0 .38-.276.443-.276.064-.551 0-.643-.19l-.368-.634c-.091-.19 0-.38.276-.444.092-.063.092-.063.184-.063z"/><path fill="none" stroke="#232323" stroke-miterlimit="50" stroke-width=".3" d="M25.044 409.62c.184 0 .367.063.46.254l.367.634c.091.19 0 .38-.276.443-.276.064-.551 0-.643-.19l-.368-.634c-.091-.19 0-.38.276-.444.092-.063.092-.063.184-.063z"/></g><g transform="rotate(150.13 27 416.5)"><path fill="#232323" d="M30.083 413.89c.181 0 .363.098.453.392.09.293 0 .587-.272.685l-6.794 2.642.363.98c.09.293 0 .587-.272.684-.272.098-.544 0-.634-.293l-.453-1.468c-.09-.294 0-.588.272-.686l7.247-2.74c0-.196.09-.196.09-.196z"/><path fill="none" stroke="#232323" stroke-miterlimit="50" stroke-width=".3" d="M30.083 413.89c.181 0 .363.098.453.392.09.293 0 .587-.272.685l-6.794 2.642v0l.363.98c.09.293 0 .587-.272.684-.272.098-.544 0-.634-.293l-.453-1.468c-.09-.294 0-.588.272-.686l7.247-2.74c0-.196.09-.196.09-.196z"/></g><g transform="rotate(150.13 20.5 413)"><path fill="#232323" d="M22.304 409.28c.188 0 .376 0 .657.08.282 0 .47.243.375.485 0 .242-.281.403-.563.322-.469-.08-.938 0-1.407.08-.751.243-1.314.646-1.69 1.291-.375.565-.375 1.29-.093 1.936.563 1.29 2.064 1.936 3.566 1.532a.55.55 0 0 1 .657.323c.094.242-.094.484-.376.565-1.97.564-4.129-.404-4.786-2.097-.75-1.775.376-3.71 2.346-4.275.47-.161.939-.242 1.314-.242z"/><path fill="none" stroke="#232323" stroke-miterlimit="50" stroke-width=".3" d="M22.304 409.28c.188 0 .376 0 .657.08.282 0 .47.243.375.485 0 .242-.281.403-.563.322-.469-.08-.938 0-1.407.08-.751.243-1.314.646-1.69 1.291-.375.565-.375 1.29-.093 1.936.563 1.29 2.064 1.936 3.566 1.532a.55.55 0 0 1 .657.323c.094.242-.094.484-.376.565-1.97.564-4.129-.404-4.786-2.097-.75-1.775.376-3.71 2.346-4.275.47-.161.939-.242 1.314-.242z"/></g><g transform="rotate(150.13 28.5 419)"><path fill="#232323" d="M34.166 414.89c.173 0 .346.089.432.354.086.266 0 .532-.259.62l-12.343 4.52.605 1.684 7.768-2.836c.259-.089.517 0 .604.266.086.266 0 .531-.26.62l-7.767 2.836c-.26.088-.518.088-.69 0a.789.789 0 0 1-.519-.532l-.604-1.684c-.172-.531.087-1.063.604-1.24l12.343-4.52c0-.088 0-.088.086-.088z"/><path fill="none" stroke="#232323" stroke-miterlimit="50" stroke-width=".3" d="M34.166 414.89c.173 0 .346.089.432.354.086.266 0 .532-.259.62l-12.343 4.52v0l.605 1.684v0l7.768-2.836c.259-.089.517 0 .604.266.086.266 0 .531-.26.62l-7.767 2.836c-.26.088-.518.088-.69 0a.789.789 0 0 1-.519-.532l-.604-1.684c-.172-.531.087-1.063.604-1.24l12.343-4.52c0-.088 0-.088.086-.088z"/></g></g></g></svg>