<svg xmlns="http://www.w3.org/2000/svg" width="65" height="74" viewBox="0 0 65 74"><g><g><g><path fill="#ffe600" d="M64.588 46.05c0 15.17-12.298 27.469-27.469 27.469-15.17 0-27.469-12.299-27.469-27.47 0-15.17 12.298-27.469 27.47-27.469 15.17 0 27.468 12.298 27.468 27.47z"/></g><g><path fill="#232323" d="M12.993 28.966a7.05 7.05 0 0 1-7.053-7.053 7.05 7.05 0 0 1 7.053-7.053 7.05 7.05 0 0 1 7.053 7.053 7.05 7.05 0 0 1-7.053 7.053zm0-11.879c-2.599 0-4.826 2.227-4.826 4.826 0 2.598 2.227 4.826 4.826 4.826 2.598 0 4.826-2.228 4.826-4.826 0-2.784-2.042-4.826-4.826-4.826z"/></g><g><path fill="#232323" d="M36.007 28.967H25.614c-.557 0-1.114-.557-1.114-1.113 0-.557.557-1.114 1.114-1.114h10.393c.557 0 1.114.557 1.114 1.114 0 .556-.557 1.113-1.114 1.113z"/></g><g><path fill="#232323" d="M30.94 36.397H7.076c-.568 0-1.136-.557-1.136-1.113 0-.557.568-1.114 1.136-1.114h23.675c.568 0 1.136.557 1.136 1.114.19.556-.378 1.113-.947 1.113z"/></g><g><path fill="#232323" d="M24.829 43.077H7.096c-.578 0-1.156-.557-1.156-1.113 0-.557.578-1.114 1.156-1.114H24.83c.578 0 1.156.557 1.156 1.114 0 .742-.578 1.113-1.156 1.113z"/></g><g><path fill="#232323" d="M22.596 49.757H7.102c-.581 0-1.162-.557-1.162-1.113 0-.557.581-1.114 1.162-1.114h15.494c.58 0 1.162.557 1.162 1.114 0 .556-.581 1.113-1.162 1.113z"/></g><g><path fill="#232323" d="M22.596 56.437H7.102c-.581 0-1.162-.557-1.162-1.113 0-.557.581-1.114 1.162-1.114h15.494c.58 0 1.162.557 1.162 1.114 0 .556-.581 1.113-1.162 1.113z"/></g><g><path fill="#232323" d="M36.007 23.027H25.614c-.557 0-1.114-.557-1.114-1.113 0-.557.557-1.114 1.114-1.114h10.393c.557 0 1.114.557 1.114 1.114 0 .742-.557 1.113-1.114 1.113z"/></g><g><path fill="#232323" d="M36.007 17.837H25.614c-.557 0-1.114-.557-1.114-1.113 0-.557.557-1.114 1.114-1.114h10.393c.557 0 1.114.557 1.114 1.114 0 .742-.557 1.113-1.114 1.113z"/></g><g><path fill="#232323" d="M39.27 67.579c-.554 0-1.108-.557-1.108-1.114v-3.34c-.184 0-.369-.187-.738-.372l-2.4 2.413c-.369.37-1.107.37-1.66 0l-4.984-5.012c-.185-.185-.37-.556-.37-.742 0-.186.185-.557.37-.742l2.399-2.413c-.185-.186-.185-.371-.37-.743h-3.322c-.553 0-1.107-.556-1.107-1.113v-7.053c0-.557.554-1.114 1.107-1.114h3.323c0-.185.184-.371.369-.742l-2.4-2.413c-.184-.186-.369-.557-.369-.742 0-.186.185-.557.37-.743l4.983-5.011c.185-.186.554-.371.738-.371.37 0 .554.185.739.37l2.4 2.414c.184-.186.368-.186.738-.372v-3.34c0-.557.553-1.114 1.107-1.114h7.014c.554 0 1.107.557 1.107 1.114v3.34c.185 0 .37.186.739.372l2.4-2.413c.368-.371 1.107-.371 1.66 0l4.984 5.011c.37.371.37 1.114 0 1.67l-2.4 2.413c.185.186.185.372.37.743h3.322c.554 0 1.108.557 1.108 1.113v6.868c0 .557-.554 1.113-1.108 1.113H54.96c0 .186-.185.372-.37.743l2.4 2.413c.37.37.37 1.113 0 1.67l-4.984 5.011c-.369.371-1.107.371-1.66 0l-2.4-2.413c-.185.186-.37.186-.739.372v3.34c.185.372-.184.929-.922.929zm5.906-2.228v-2.97c0-.556.37-.927.738-1.113.554-.186 1.292-.371 1.846-.742.37-.186.923-.186 1.292.185l2.215 2.227 3.507-3.526-2.215-2.227c-.369-.371-.369-.928-.184-1.3.369-.556.553-1.299.738-1.856.185-.556.554-.742 1.107-.742h2.954v-4.826H54.22c-.553 0-.922-.37-1.107-.742-.185-.557-.37-1.3-.738-1.856-.185-.371-.185-.928.184-1.3l2.215-2.226-3.507-3.527-2.215 2.227c-.369.372-.923.372-1.292.186-.554-.371-1.292-.557-1.846-.742-.553-.186-.738-.557-.738-1.114v-2.97h-4.799v2.97c0 .557-.37.928-.738 1.114-.554.185-1.292.37-1.846.742-.37.186-.923.186-1.292-.186l-2.215-2.227-3.507 3.527 2.215 2.227c.37.371.37.928.185 1.299-.37.557-.554 1.3-.739 1.856-.184.557-.554.742-1.107.742H28.38v4.826h2.953c.553 0 .923.371 1.107.742.185.557.37 1.3.739 1.857.184.37.184.928-.185 1.299l-2.215 2.227 3.507 3.526 2.215-2.227c.37-.371.923-.371 1.292-.185.554.37 1.292.556 1.846.742.553.186.738.557.738 1.114v2.97z"/></g><g><path fill="#232323" d="M42.69 60.15c-5.113 0-9.28-4.166-9.28-9.28 0-5.113 4.167-9.28 9.28-9.28 5.114 0 9.28 4.167 9.28 9.28 0 5.114-4.166 9.28-9.28 9.28zm0-16.098a6.79 6.79 0 0 0-6.818 6.818 6.79 6.79 0 0 0 6.818 6.818 6.79 6.79 0 0 0 6.818-6.818 6.79 6.79 0 0 0-6.818-6.818z"/></g><g><path fill="#232323" d="M50.994 33.429c-.564 0-1.128-.567-1.128-1.133V2.285H11.164v2.076h35.32c.564 0 1.128.566 1.128 1.133V30.03c0 .566-.564 1.133-1.127 1.133-.564 0-1.128-.567-1.128-1.133V6.815h-35.32c-.563 0-1.127-.566-1.127-1.133v-4.53C8.91.586 9.474.02 10.037.02h40.769c.564 0 1.127.566 1.127 1.132v31.144c.188.566-.376 1.133-.94 1.133z"/></g><g><path fill="#232323" d="M41.869 31.197c-.564 0-1.128-.565-1.128-1.13v-19.01H5.578c-.564 0-1.128-.564-1.128-1.129V5.6c0-.564.564-1.129 1.128-1.129h40.804c.564 0 1.128.565 1.128 1.13v23.903c0 .565-.564 1.13-1.128 1.13s-1.129-.565-1.129-1.13V6.729H6.706v2.07h35.35c.565 0 1.13.565 1.13 1.13v20.139c0 .564-.565 1.129-1.317 1.129z"/></g><g><path fill="#232323" d="M31.64 68.323H1.123C.562 68.323 0 67.759 0 67.195V10.058C0 9.494.562 8.93 1.123 8.93H41.75c.75 0 1.31.564 1.31 1.128v20.11c0 .564-.56 1.128-1.122 1.128s-1.124-.564-1.124-1.127V11.185H2.247V65.88H31.64c.561 0 1.123.563 1.123 1.127 0 .752-.562 1.316-1.123 1.316z"/></g></g></g></svg>