<svg xmlns="http://www.w3.org/2000/svg" width="15" height="15" viewBox="0 0 15 15"><g><g><g><path fill="#a1a1a1" d="M13.332 3.85a.418.418 0 0 0-.418.418v7.625c0 .806-.655 1.461-1.461 1.461H2.297a1.463 1.463 0 0 1-1.462-1.461V2.737c0-.806.656-1.462 1.462-1.462h9.156a.418.418 0 1 0 0-.835H2.297A2.3 2.3 0 0 0 0 2.737v9.156a2.3 2.3 0 0 0 2.297 2.297h9.156a2.3 2.3 0 0 0 2.297-2.297V4.268a.418.418 0 0 0-.418-.418z"/></g><g><path fill="#a1a1a1" d="M14.88.122a.417.417 0 0 0-.59 0L5.9 8.512 3.803 6.416a.417.417 0 1 0-.59.59l2.392 2.392a.416.416 0 0 0 .59 0h.001L14.881.713a.417.417 0 0 0 0-.59z"/></g></g></g></svg>