<svg xmlns="http://www.w3.org/2000/svg" width="14" height="12" class="like-img" viewBox="0 0 14 12"><g><g><path fill="#737373" d="M14 3.857c0 1.506-.842 3.106-2.502 4.755-1.386 1.377-3.083 2.524-4.263 3.245L7 12l-.235-.143c-1.18-.72-2.877-1.868-4.263-3.245C.842 6.962 0 5.363 0 3.857 0 1.73 1.83 0 4.081 0a4.23 4.23 0 0 1 1.855.42c.393.19.754.442 1.064.742.31-.3.671-.552 1.064-.742A4.23 4.23 0 0 1 9.92 0C12.169 0 14 1.73 14 3.857zm-.866 0c0-1.676-1.442-3.039-3.215-3.039-1.021 0-1.959.443-2.573 1.216L7 2.469l-.346-.435C6.04 1.26 5.102.818 4.08.818 2.308.818.866 2.181.866 3.857c0 1.289.761 2.699 2.263 4.19C4.37 9.279 5.877 10.325 7 11.025c1.123-.7 2.632-1.746 3.87-2.976 1.503-1.492 2.264-2.902 2.264-4.191z"/></g></g></svg>