<svg xmlns="http://www.w3.org/2000/svg" width="16" height="13" viewBox="0 0 16 13"><g><g><path fill="#232323" d="M16 1.54c-.6.265-1.234.439-1.885.516A3.292 3.292 0 0 0 15.558.24a6.562 6.562 0 0 1-2.084.796A3.28 3.28 0 0 0 11.078 0 3.283 3.283 0 0 0 7.88 4.03 9.319 9.319 0 0 1 1.114.6 3.281 3.281 0 0 0 2.13 4.984a3.275 3.275 0 0 1-1.486-.41v.041a3.285 3.285 0 0 0 2.632 3.219c-.484.13-.99.15-1.482.056a3.286 3.286 0 0 0 3.066 2.28A6.588 6.588 0 0 1 0 11.527a9.291 9.291 0 0 0 5.032 1.474c6.038 0 9.34-5.001 9.34-9.339 0-.142-.004-.284-.01-.425A6.655 6.655 0 0 0 16 1.54z"/></g></g></svg>