<svg xmlns="http://www.w3.org/2000/svg" width="16" height="16" viewBox="0 0 16 16"><g><g><path fill="#232323" d="M13.333 0C14.844 0 16 1.156 16 2.667v10.666C16 14.844 14.844 16 13.333 16H2.667C1.156 16 0 14.844 0 13.333V2.667C0 1.156 1.156 0 2.667 0zm-8 8c0 1.511 1.156 2.667 2.667 2.667S10.667 9.51 10.667 8 9.51 5.333 8 5.333 5.333 6.49 5.333 8zm7.111-3.378c.623 0 1.067-.533 1.067-1.066 0-.534-.533-1.067-1.067-1.067-.533 0-1.066.444-1.066 1.067 0 .622.444 1.066 1.066 1.066zm.89 9.6c.533 0 .888-.355.888-.889V8h-1.778A4.401 4.401 0 0 1 8 12.444 4.401 4.401 0 0 1 3.556 8H1.778v5.333c0 .534.355.89.889.89z"/></g></g></svg>