<svg xmlns="http://www.w3.org/2000/svg" width="16" height="16" viewBox="0 0 16 16"><g><g><path fill="#ffe600" d="M15.653 7.287a1.14 1.14 0 0 0 .29-1.176 1.14 1.14 0 0 0-.926-.781l-3.874-.563a.506.506 0 0 1-.382-.277L9.03.98A1.14 1.14 0 0 0 8 .34c-.44 0-.834.245-1.029.64L5.24 4.49a.507.507 0 0 1-.381.277L.984 5.33a1.14 1.14 0 0 0-.927.781 1.14 1.14 0 0 0 .29 1.176L3.15 10.02c.12.117.175.285.146.449l-.66 3.858c-.06.34.03.67.25.93.34.406.937.53 1.414.28l3.464-1.822a.519.519 0 0 1 .472 0l3.465 1.822c.169.088.348.133.534.133a1.15 1.15 0 0 0 1.13-1.343l-.661-3.858a.507.507 0 0 1 .146-.449z"/></g></g></svg>