<svg xmlns="http://www.w3.org/2000/svg" width="24" height="24" viewBox="0 0 24 24"><g><g><g/><g><path fill="#ffe600" d="M0 1.5h24v9H0z"/></g><g><path d="M23.535 13.629l-3.83 4.506a3.144 3.144 0 0 1-.618.557c-.623.398-1.408.6-2.331.6h-5.684c-.392 0-.787.023-1.176.068l-.643.073.28.272a.477.477 0 0 1 .01.672l-3.226 3.31a.471.471 0 0 1-.663.011L.146 18.456a.472.472 0 0 1-.014-.67l3.256-3.38a.477.477 0 0 1 .339-.146h.003c.123 0 .242.049.33.134l.67.65c.257-.36.663-.855 1.22-1.31 1.37-1.118 2.992-1.461 4.688-.992.651.18 1.338.272 2.043.272h3.735c.544 0 1.024.214 1.352.604.068.08.128.166.18.258l2.67-2.64c.39-.392.914-.591 1.474-.562.493.025.982.23 1.34.562.718.66.759 1.623.103 2.394zM8.538 20.055l-4.797-4.656-2.6 2.7 4.826 4.594zm14.278-7.038c.442-.52.175-.905-.023-1.088-.384-.354-1.07-.465-1.51-.025l-3.073 3.04c-.013.455-.17.88-.445 1.204-.33.389-.814.603-1.363.603H13.15a.472.472 0 1 1 0-.944h3.252c.275 0 .491-.091.643-.27.14-.166.221-.405.221-.656 0-.343-.179-.924-.85-.924h-3.735c-.79 0-1.562-.103-2.294-.306-1.409-.39-2.7-.116-3.84.814-.547.447-.925.94-1.13 1.244l2.958 2.872 1.414-.159c.423-.049.855-.074 1.283-.074h5.684c.736 0 1.347-.15 1.815-.447.153-.108.293-.235.414-.378z"/></g><g><path d="M11.682 16.144a.472.472 0 0 0-.92.216l.005.02a.472.472 0 0 0 .92-.216z"/></g><g><path d="M3.193 10.15c-.63 0-1.143-.512-1.143-1.142V6.863c0-.964.54-1.8 1.347-2.214a2.711 2.711 0 0 1-.627-1.735A2.726 2.726 0 0 1 5.493.19a2.726 2.726 0 0 1 2.723 2.724 2.71 2.71 0 0 1-.626 1.735c.349.179.647.437.874.75.227-.313.526-.571.875-.75a2.711 2.711 0 0 1-.627-1.736A2.726 2.726 0 0 1 11.435.19a2.726 2.726 0 0 1 2.724 2.723 2.71 2.71 0 0 1-.627 1.736c.35.179.648.437.875.75.227-.313.525-.571.874-.75a2.71 2.71 0 0 1-.627-1.736A2.726 2.726 0 0 1 17.378.19 2.726 2.726 0 0 1 20.1 2.913a2.71 2.71 0 0 1-.626 1.736 2.476 2.476 0 0 1 1.346 2.214v2.145c0 .63-.513 1.143-1.143 1.143h-4.6c-.25 0-.483-.081-.671-.219-.189.138-.42.219-.671.219h-4.6c-.251 0-.483-.081-.672-.219-.188.138-.42.219-.67.219zM15.6 2.914a1.78 1.78 0 0 0 1.779 1.78c.98 0 1.779-.799 1.779-1.78 0-.98-.798-1.779-1.78-1.779a1.78 1.78 0 0 0-1.778 1.78zm-.72 3.95v2.145c0 .11.09.199.199.199h4.6a.2.2 0 0 0 .199-.2V6.864c0-.76-.54-1.392-1.273-1.52a2.705 2.705 0 0 1-2.453 0 1.534 1.534 0 0 0-1.272 1.52zm-5.222-3.95a1.78 1.78 0 0 0 1.779 1.78c.98 0 1.779-.799 1.779-1.78 0-.98-.798-1.779-1.78-1.779a1.78 1.78 0 0 0-1.778 1.78zm-.72 3.95v2.145c0 .11.089.199.198.199h4.6c.11 0 .2-.09.2-.2V6.864c0-.76-.54-1.392-1.273-1.52a2.706 2.706 0 0 1-2.453 0 1.534 1.534 0 0 0-1.272 1.52zm-5.223-3.95c0 .981.798 1.78 1.78 1.78.98 0 1.778-.799 1.778-1.78 0-.98-.798-1.779-1.779-1.779-.98 0-1.779.798-1.779 1.78zm-.72 6.095c0 .11.09.199.2.199h4.6c.11 0 .198-.09.198-.2V6.864c0-.76-.539-1.392-1.272-1.52a2.705 2.705 0 0 1-2.453 0 1.534 1.534 0 0 0-1.273 1.52z"/></g></g></g></svg>