<svg xmlns="http://www.w3.org/2000/svg" width="29" height="29" viewBox="0 0 29 29"><defs><clipPath id="93qza"><path fill="#fff" d="M29 14.5C29 22.508 22.508 29 14.5 29S0 22.508 0 14.5 6.492 0 14.5 0 29 6.492 29 14.5z"/></clipPath></defs><g><g><path fill="#656565" d="M14.5 14.8c3.59 0 6.5 1.358 6.5 3.033V20H8v-2.167c0-1.675 2.91-3.033 6.5-3.033zm5.633 3.033c0-1.196-2.522-2.166-5.633-2.166s-5.633.97-5.633 2.166v1.3h11.266zM14.5 7a3.033 3.033 0 1 1 0 6.067A3.033 3.033 0 0 1 14.5 7zm0 .867a2.167 2.167 0 1 0 0 4.333 2.167 2.167 0 0 0 0-4.333z"/></g><g><path fill="none" stroke="#656565" stroke-miterlimit="50" stroke-opacity=".2" stroke-width="2" d="M29 14.5C29 22.508 22.508 29 14.5 29S0 22.508 0 14.5 6.492 0 14.5 0 29 6.492 29 14.5z" clip-path="url(&quot;#93qza&quot;)"/></g></g></svg>