<svg xmlns="http://www.w3.org/2000/svg" width="56" height="34" viewBox="0 0 56 34"><g><g><g><path fill="#ffe600" d="M0 2.165C0 .969 1.01 0 2.255 0h26.49C29.991 0 31 .97 31 2.165v16.67C31 20.031 29.99 21 28.745 21H2.256C1.009 21 0 20.03 0 18.835z"/></g><g><path fill="#232323" d="M2.779 23h29.44a.764.764 0 0 0 .55-.234.827.827 0 0 0 .231-.57V1.62c0-.43-.164-.842-.456-1.146A1.528 1.528 0 0 0 31.442 0H3.558c-.413 0-.81.17-1.102.475A1.655 1.655 0 0 0 2 1.62v3.994c0 1.1 1.557 1.1 1.557 0V1.621h27.885v19.758H3.557l.001-13.216c0-.985-1.558-.985-1.558 0V22.19c0 .215.082.42.228.573A.764.764 0 0 0 2.78 23z"/></g><g><path fill="#232323" d="M48.266 14h-8.532a.935.935 0 0 1-.52-.146c-.137-.094-.214-.221-.214-.354 0-.133.077-.26.215-.354a.935.935 0 0 1 .519-.146h8.532c.195 0 .381.053.52.146.137.094.214.221.214.354 0 .133-.077.26-.215.354a.935.935 0 0 1-.519.146z"/></g><g><path fill="#232323" d="M9.5 34a5.5 5.5 0 1 1 0-11 5.5 5.5 0 0 1 0 11zm0-9.41a3.91 3.91 0 1 0 0 7.821 3.91 3.91 0 0 0 0-7.82z"/></g><g><path fill="#232323" d="M55.21 23H34.79a.778.778 0 0 1-.559-.237.822.822 0 0 1-.231-.574V4.811c0-.215.083-.421.231-.574A.779.779 0 0 1 34.79 4h6.395a6.226 6.226 0 0 1 3.759 1.29c1.086.832 1.884 2 2.277 3.331l1.047 3.61c.136.463.362.894.664 1.267.302.372.673.678 1.093.899l1.603.838a8.17 8.17 0 0 1 3.077 2.858A8.468 8.468 0 0 1 56 22.142a.83.83 0 0 1-.215.603.789.789 0 0 1-.574.253zm-19.632-1.618h18.744a6.77 6.77 0 0 0-1.176-2.757 6.549 6.549 0 0 0-2.236-1.946l-1.603-.84a5.113 5.113 0 0 1-1.588-1.305 5.27 5.27 0 0 1-.963-1.84l-1.047-3.608A4.883 4.883 0 0 0 44 6.588a4.669 4.669 0 0 0-2.819-.968h-5.604z"/></g><g><path fill="#232323" d="M42.5 34a5.5 5.5 0 1 1 0-11 5.5 5.5 0 0 1 0 11zm0-9.41a3.91 3.91 0 1 0 0 7.821 3.91 3.91 0 0 0 0-7.82z"/></g><g><path fill="#232323" d="M46.31 28a.727.727 0 0 1-.402-.122.802.802 0 0 1-.282-.33 3.93 3.93 0 0 0-1.381-1.626 3.56 3.56 0 0 0-1.973-.603 3.56 3.56 0 0 0-1.973.603 3.932 3.932 0 0 0-1.381 1.627.802.802 0 0 1-.282.33.726.726 0 0 1-.4.121H14.437a.726.726 0 0 1-.4-.122.802.802 0 0 1-.283-.33 3.932 3.932 0 0 0-1.38-1.626 3.56 3.56 0 0 0-1.974-.603 3.56 3.56 0 0 0-1.972.603 3.932 3.932 0 0 0-1.382 1.627.802.802 0 0 1-.282.33.727.727 0 0 1-.4.121h-4.6a.74.74 0 0 1-.541-.24.852.852 0 0 1-.224-.58v-5.36c0-.217.08-.426.224-.58a.74.74 0 0 1 .54-.24h53.471a.74.74 0 0 1 .541.24.852.852 0 0 1 .224.58v3.723a2.556 2.556 0 0 1-.673 1.737c-.43.46-1.012.72-1.62.72zm.446-1.641h6.952a.74.74 0 0 0 .54-.24.852.852 0 0 0 .225-.58v-2.9H2.53v3.724h3.386a5.455 5.455 0 0 1 1.918-1.965 4.995 4.995 0 0 1 2.566-.715c.899 0 1.782.246 2.567.715a5.455 5.455 0 0 1 1.917 1.965h22.904a5.455 5.455 0 0 1 1.918-1.965 4.995 4.995 0 0 1 2.566-.715c.898 0 1.782.246 2.567.715a5.455 5.455 0 0 1 1.917 1.965z"/></g><g><path fill="#232323" d="M51.23 34H1.77c-.204 0-.4-.053-.544-.146C1.08 33.76 1 33.633 1 33.5c0-.133.081-.26.226-.354.144-.093.34-.146.545-.146h49.458c.205 0 .4.053.545.146.145.094.226.221.226.354 0 .133-.081.26-.226.354-.144.093-.34.146-.545.146z"/></g></g></g></svg>