<svg xmlns="http://www.w3.org/2000/svg" width="38" height="47" viewBox="0 0 38 47"><g><g><g><path fill="#ffe600" d="M0 8h28v39H0z"/></g><g><path fill="#232323" d="M4.45 45A1.45 1.45 0 0 1 3 43.547V1.454A1.457 1.457 0 0 1 4.45 0h32.1A1.45 1.45 0 0 1 38 1.454v42.093A1.456 1.456 0 0 1 36.55 45zm0-43.699a.155.155 0 0 0-.152.153v42.093a.155.155 0 0 0 .155.155H36.55a.155.155 0 0 0 .154-.155V1.454a.155.155 0 0 0-.154-.153z"/></g><g><path fill="#232323" d="M8.338 40.582A1.297 1.297 0 0 1 7.04 39.28V5.72A1.303 1.303 0 0 1 8.338 4.42h24.316a1.297 1.297 0 0 1 1.298 1.301v33.563a1.303 1.303 0 0 1-1.298 1.298zm0-34.86v33.562h24.317V5.72z"/></g><g><path fill="#232323" d="M33.31 13.631h-5.73a.648.648 0 0 1-.65-.65.651.651 0 0 1 .65-.651h5.73a.648.648 0 0 1 .65.65.651.651 0 0 1-.65.651z"/></g><g><path fill="#232323" d="M11.667 16.57a1.952 1.952 0 0 1-1.376-.576 1.96 1.96 0 0 1-.571-1.381v-3.267c0-.519.206-1.016.572-1.383a1.95 1.95 0 0 1 3.331 1.383v3.267a1.962 1.962 0 0 1-1.208 1.808 1.95 1.95 0 0 1-.748.149zm0-5.882a.657.657 0 0 0-.656.658v3.267a.659.659 0 0 0 .656.658.656.656 0 0 0 .657-.658v-3.267a.66.66 0 0 0-.657-.66z"/></g><g><path fill="#232323" d="M16.537 16.57a1.952 1.952 0 0 1-1.376-.576 1.96 1.96 0 0 1-.571-1.381v-3.267c0-.519.206-1.016.572-1.383a1.95 1.95 0 0 1 3.331 1.383v3.267a1.962 1.962 0 0 1-1.208 1.808 1.95 1.95 0 0 1-.748.149zm0-5.884a.656.656 0 0 0-.655.658v3.267a.66.66 0 0 0 .656.683.655.655 0 0 0 .656-.683v-3.265a.66.66 0 0 0-.657-.66z"/></g><g><path fill="#232323" d="M21.407 16.57a1.953 1.953 0 0 1-1.376-.576 1.962 1.962 0 0 1-.571-1.38v-3.268c0-.518.206-1.016.572-1.383a1.95 1.95 0 0 1 3.332 1.383v3.267a1.962 1.962 0 0 1-1.208 1.809 1.95 1.95 0 0 1-.749.148zm0-5.882a.657.657 0 0 0-.656.658v3.267a.659.659 0 0 0 .656.659.656.656 0 0 0 .657-.659v-3.267a.66.66 0 0 0-.657-.66z"/></g><g><path fill="#232323" d="M26.267 16.57a1.952 1.952 0 0 1-1.376-.576 1.96 1.96 0 0 1-.571-1.381v-3.267c0-.519.206-1.016.572-1.383a1.95 1.95 0 0 1 3.331 1.383v3.267a1.962 1.962 0 0 1-1.208 1.808 1.95 1.95 0 0 1-.748.149zm0-5.882a.657.657 0 0 0-.656.658v3.267a.66.66 0 0 0 .656.683.655.655 0 0 0 .656-.683v-3.267a.66.66 0 0 0-.656-.66z"/></g><g><path fill="#232323" d="M33.31 23.151h-5.73a.648.648 0 0 1-.65-.65.651.651 0 0 1 .65-.651h5.73a.648.648 0 0 1 .65.65.651.651 0 0 1-.65.651z"/></g><g><path fill="#232323" d="M11.667 26.09a1.952 1.952 0 0 1-1.375-.573 1.96 1.96 0 0 1-.572-1.378v-3.273c0-.519.206-1.016.572-1.383a1.95 1.95 0 0 1 3.331 1.383v3.268a1.962 1.962 0 0 1-1.208 1.808 1.95 1.95 0 0 1-.748.148zm0-5.882a.657.657 0 0 0-.656.658v3.268a.659.659 0 0 0 .656.658.656.656 0 0 0 .657-.658v-3.268a.66.66 0 0 0-.657-.658z"/></g><g><path fill="#232323" d="M16.537 26.09a1.952 1.952 0 0 1-1.375-.573 1.96 1.96 0 0 1-.572-1.378v-3.273c0-.519.206-1.016.572-1.383a1.95 1.95 0 0 1 3.331 1.383v3.268a1.962 1.962 0 0 1-1.208 1.808 1.95 1.95 0 0 1-.748.148zm0-5.882a.656.656 0 0 0-.655.658v3.268a.66.66 0 0 0 .656.683.655.655 0 0 0 .656-.683v-3.268a.66.66 0 0 0-.657-.658z"/></g><g><path fill="#232323" d="M21.407 26.09a1.953 1.953 0 0 1-1.374-.573 1.962 1.962 0 0 1-.573-1.378v-3.273c0-.518.206-1.016.572-1.383a1.95 1.95 0 0 1 3.332 1.383v3.268a1.962 1.962 0 0 1-1.208 1.809 1.95 1.95 0 0 1-.749.148zm0-5.882a.657.657 0 0 0-.656.658v3.268a.659.659 0 0 0 .656.658.656.656 0 0 0 .657-.658v-3.268a.66.66 0 0 0-.657-.658z"/></g><g><path fill="#232323" d="M26.267 26.09a1.952 1.952 0 0 1-1.375-.573 1.96 1.96 0 0 1-.572-1.378v-3.273c0-.519.206-1.016.572-1.383a1.95 1.95 0 0 1 3.331 1.383v3.268a1.962 1.962 0 0 1-1.208 1.808 1.95 1.95 0 0 1-.748.148zm0-5.882a.657.657 0 0 0-.656.658v3.268a.66.66 0 0 0 .656.683.655.655 0 0 0 .656-.683v-3.268a.659.659 0 0 0-.656-.658z"/></g><g><path fill="#232323" d="M33.31 32.671h-5.73a.648.648 0 0 1-.65-.65.651.651 0 0 1 .65-.651h5.73a.648.648 0 0 1 .65.65.651.651 0 0 1-.65.651z"/></g><g><path fill="#232323" d="M11.667 35.61a1.952 1.952 0 0 1-1.375-.574 1.96 1.96 0 0 1-.572-1.378v-3.272c0-.519.206-1.016.572-1.383a1.95 1.95 0 0 1 3.331 1.383v3.268a1.96 1.96 0 0 1-.574 1.384 1.952 1.952 0 0 1-1.382.571zm0-5.882a.657.657 0 0 0-.656.658v3.268a.659.659 0 0 0 .656.658.656.656 0 0 0 .657-.658v-3.268a.66.66 0 0 0-.657-.658z"/></g><g><path fill="#232323" d="M16.537 35.61a1.952 1.952 0 0 1-1.375-.574 1.96 1.96 0 0 1-.572-1.378v-3.272c0-.519.206-1.016.572-1.383a1.95 1.95 0 0 1 3.331 1.383v3.268a1.96 1.96 0 0 1-.574 1.384 1.952 1.952 0 0 1-1.382.571zm0-5.882a.656.656 0 0 0-.655.658v3.268a.66.66 0 0 0 .656.683.655.655 0 0 0 .656-.683v-3.268a.66.66 0 0 0-.657-.658z"/></g><g><path fill="#232323" d="M21.407 35.61a1.952 1.952 0 0 1-1.375-.574 1.96 1.96 0 0 1-.572-1.378v-3.272c0-.518.206-1.016.572-1.383a1.95 1.95 0 0 1 3.332 1.383v3.268a1.962 1.962 0 0 1-1.209 1.808 1.95 1.95 0 0 1-.748.148zm0-5.882a.657.657 0 0 0-.656.658v3.268a.659.659 0 0 0 .656.658.656.656 0 0 0 .657-.658v-3.268a.66.66 0 0 0-.657-.658z"/></g><g><path fill="#232323" d="M24.965 13.631H22.71a.648.648 0 0 1-.649-.65.651.651 0 0 1 .65-.651h2.255a.648.648 0 0 1 .65.65.651.651 0 0 1-.65.651z"/></g><g><path fill="#232323" d="M20.095 13.631H17.84a.648.648 0 0 1-.649-.65.651.651 0 0 1 .65-.651h2.255a.648.648 0 0 1 .65.65.651.651 0 0 1-.65.651z"/></g><g><path fill="#232323" d="M15.236 13.631H12.98a.648.648 0 0 1-.649-.65.651.651 0 0 1 .65-.651h2.256a.648.648 0 0 1 .65.65.651.651 0 0 1-.65.651z"/></g><g><path fill="#232323" d="M10.373 13.631H7.699a.648.648 0 0 1-.649-.65.651.651 0 0 1 .65-.651h2.673a.648.648 0 0 1 .649.65.651.651 0 0 1-.65.651z"/></g><g><path fill="#232323" d="M24.965 23.151H22.71a.648.648 0 0 1-.649-.65.651.651 0 0 1 .65-.651h2.255a.648.648 0 0 1 .65.65.651.651 0 0 1-.65.651z"/></g><g><path fill="#232323" d="M20.095 23.151H17.84a.648.648 0 0 1-.649-.65.651.651 0 0 1 .65-.651h2.255a.648.648 0 0 1 .65.65.651.651 0 0 1-.65.651z"/></g><g><path fill="#232323" d="M15.236 23.151H12.98a.648.648 0 0 1-.649-.65.651.651 0 0 1 .65-.651h2.256a.648.648 0 0 1 .65.65.651.651 0 0 1-.65.651z"/></g><g><path fill="#232323" d="M10.373 23.151H7.699a.648.648 0 0 1-.649-.65.651.651 0 0 1 .65-.651h2.673a.648.648 0 0 1 .649.65.651.651 0 0 1-.65.651z"/></g><g><path fill="#232323" d="M27.576 32.671h-4.867a.648.648 0 0 1-.649-.65.651.651 0 0 1 .65-.651h4.866a.648.648 0 0 1 .649.65.651.651 0 0 1-.65.651z"/></g><g><path fill="#232323" d="M20.095 32.671H17.84a.648.648 0 0 1-.649-.65.651.651 0 0 1 .65-.651h2.255a.648.648 0 0 1 .65.65.651.651 0 0 1-.65.651z"/></g><g><path fill="#232323" d="M15.236 32.671H12.98a.648.648 0 0 1-.649-.65.651.651 0 0 1 .65-.651h2.256a.648.648 0 0 1 .65.65.651.651 0 0 1-.65.651z"/></g><g><path fill="#232323" d="M8.784 32.672c-1.347 0-1.384-.036-1.544-.196l.457-.46.054-.646c.148.007 1.456 0 2.616 0a.648.648 0 0 1 .653.647.651.651 0 0 1-.646.654c-.671-.003-1.19.001-1.59.001z"/></g></g></g></svg>