<svg xmlns="http://www.w3.org/2000/svg" width="38" height="47" viewBox="0 0 38 47"><g><g><g><path fill="#ffe600" d="M18.54 1.304c0-.516.417-.934.93-.934h16.843c.514 0 .931.418.931.934V41a.932.932 0 0 1-.93.934H19.47A.932.932 0 0 1 18.54 41z"/></g><g><path fill="#232323" d="M31.264 40.35a.657.657 0 0 1-.463-.19.647.647 0 0 1-.192-.46V6.59H7.305a.657.657 0 0 1-.463-.19.647.647 0 0 1-.192-.46V2.76c0-.173.069-.338.192-.46a.657.657 0 0 1 .463-.19h27.37c.173 0 .34.068.463.19a.647.647 0 0 1 .192.46V39.7a.658.658 0 0 1-.655.649zm.652-1.3h2.106V3.41H7.958v1.884h23.306c.173 0 .34.068.463.19a.647.647 0 0 1 .191.46z"/></g><g><path fill="#232323" d="M.655 47.005A.654.654 0 0 1 0 46.348V9.007a.657.657 0 0 1 .655-.657h27.37a.654.654 0 0 1 .655.657v37.342a.658.658 0 0 1-.655.656zm.655-1.31h26.062V9.662H1.31z"/></g><g><path fill="#232323" d="M27.943 43.68a.657.657 0 0 1-.463-.19.647.647 0 0 1-.192-.46V9.922H3.985a.657.657 0 0 1-.463-.19.647.647 0 0 1-.192-.46V6.09c0-.173.069-.338.192-.46a.657.657 0 0 1 .463-.19h27.37c.173 0 .34.068.463.19a.647.647 0 0 1 .191.46v36.94c0 .173-.069.338-.192.46a.658.658 0 0 1-.462.19zm.653-1.3H30.7V6.738H4.638v1.887h23.305c.173 0 .34.069.463.19a.647.647 0 0 1 .192.46z"/></g><g><path fill="#232323" d="M6.23 20.402a3.74 3.74 0 1 1 0-7.482 3.74 3.74 0 0 1 0 7.482zm0-6.187a2.446 2.446 0 1 0 0 4.893 2.446 2.446 0 0 0 0-4.893z"/></g><g><path fill="#232323" d="M6.235 17.485h-.057a.64.64 0 0 1-.467-.264l-3.117-4.242a.677.677 0 0 1 .158-.894.646.646 0 0 1 .886.096l2.684 3.647 4.674-4.44a.646.646 0 0 1 .879.075.673.673 0 0 1 .009.898l-5.202 4.945a.648.648 0 0 1-.447.179z"/></g><g><path fill="#232323" d="M6.23 31.622a3.74 3.74 0 1 1 0-7.482 3.74 3.74 0 0 1 0 7.482zm0-6.187a2.446 2.446 0 1 0 0 4.893 2.446 2.446 0 0 0 0-4.893z"/></g><g><path fill="#232323" d="M6.366 28.715h-.06a.684.684 0 0 1-.483-.26l-3.225-4.19a.644.644 0 0 1 .163-.884.691.691 0 0 1 .917.095l2.778 3.599 4.837-4.386a.678.678 0 0 1 .495-.209.694.694 0 0 1 .495.21.655.655 0 0 1 .18.494.645.645 0 0 1-.248.466l-5.387 4.888a.688.688 0 0 1-.462.177z"/></g><g><path fill="#232323" d="M6.23 42.842a3.74 3.74 0 1 1 0-7.482 3.74 3.74 0 0 1 0 7.482zm0-6.187a2.446 2.446 0 1 0 0 4.893 2.446 2.446 0 0 0 0-4.893z"/></g><g><path fill="#232323" d="M6.401 39.935h-.058a.684.684 0 0 1-.481-.26l-3.207-4.192a.655.655 0 0 1-.161-.502.649.649 0 0 1 .265-.457.68.68 0 0 1 .778-.021c.077.05.142.115.192.191l2.762 3.604 4.809-4.389a.673.673 0 0 1 .492-.209.686.686 0 0 1 .492.21.656.656 0 0 1 .18.494.648.648 0 0 1-.247.466L6.86 39.758a.681.681 0 0 1-.46.177z"/></g><g><path fill="#232323" d="M22.608 20.397H12.31a.696.696 0 0 1-.474-.183.602.602 0 0 1-.196-.44c0-.166.07-.324.196-.441a.696.696 0 0 1 .474-.183h10.298c.178 0 .348.066.474.183a.603.603 0 0 1 .196.44c0 .166-.07.324-.196.441a.697.697 0 0 1-.474.183z"/></g><g><path fill="#232323" d="M18.876 16.247h-6.574a.683.683 0 0 1-.468-.183.606.606 0 0 1-.194-.44c0-.166.07-.324.194-.441a.683.683 0 0 1 .468-.183h6.574c.175 0 .343.066.467.183a.606.606 0 0 1 .194.44c0 .166-.07.324-.194.441a.683.683 0 0 1-.467.183z"/></g><g><path fill="#232323" d="M22.608 31.617H12.31a.696.696 0 0 1-.474-.183.602.602 0 0 1-.196-.44c0-.166.07-.324.196-.441a.696.696 0 0 1 .474-.183h10.298c.178 0 .348.066.474.183a.603.603 0 0 1 .196.44c0 .166-.07.324-.196.441a.697.697 0 0 1-.474.183z"/></g><g><path fill="#232323" d="M18.876 27.467h-6.574a.683.683 0 0 1-.468-.183.606.606 0 0 1-.194-.44c0-.166.07-.324.194-.441a.683.683 0 0 1 .468-.183h6.574c.175 0 .343.066.467.183a.606.606 0 0 1 .194.44c0 .166-.07.324-.194.441a.683.683 0 0 1-.467.183z"/></g><g><path fill="#232323" d="M22.608 42.847H12.31a.696.696 0 0 1-.474-.183.602.602 0 0 1-.196-.44c0-.166.07-.324.196-.441a.696.696 0 0 1 .474-.183h10.298c.178 0 .348.066.474.183a.603.603 0 0 1 .196.44c0 .166-.07.324-.196.441a.697.697 0 0 1-.474.183z"/></g><g><path fill="#232323" d="M18.876 38.687h-6.574a.683.683 0 0 1-.468-.183.606.606 0 0 1-.194-.44c0-.166.07-.324.194-.441a.683.683 0 0 1 .468-.183h6.574c.175 0 .343.066.467.183a.606.606 0 0 1 .194.44c0 .166-.07.324-.194.441a.683.683 0 0 1-.467.183z"/></g></g></g></svg>