<svg xmlns="http://www.w3.org/2000/svg" width="32" height="32" viewBox="0 0 32 32"><g><g><path fill="#a7a7a7" class="arrow7page" d="M24.031 2.14A15.8 15.8 0 0 1 29.86 7.97C31.286 10.427 32 13.104 32 16c0 2.896-.714 5.573-2.14 8.031a15.8 15.8 0 0 1-5.829 5.828C21.573 31.286 18.896 32 16 32c-2.896 0-5.573-.714-8.031-2.14A15.8 15.8 0 0 1 2.14 24.03C.714 21.573 0 18.896 0 16c0-2.896.714-5.573 2.14-8.031A15.8 15.8 0 0 1 7.97 2.14C10.427.714 13.104 0 16 0c2.896 0 5.573.714 8.031 2.14zm-2.593 26.782c1.729-.74 3.218-1.74 4.468-3s2.245-2.755 2.985-4.484C29.63 19.707 30 17.895 30 16s-.37-3.708-1.11-5.438c-.739-1.729-1.734-3.218-2.984-4.468s-2.74-2.245-4.469-2.985A13.686 13.686 0 0 0 16 2c-1.896 0-3.708.37-5.438 1.11-1.729.739-3.218 1.734-4.468 2.984s-2.245 2.74-2.985 4.468A13.686 13.686 0 0 0 2 16c0 1.52.234 2.995.703 4.422a13.186 13.186 0 0 0 2 3.86 15.682 15.682 0 0 0 3.016 3.03 12.977 12.977 0 0 0 3.86 2.016c1.426.469 2.9.703 4.421.703 1.896 0 3.708-.37 5.438-1.11zM23 15c.292 0 .531.094.719.281a.955.955 0 0 1 .281.703c0 .282-.094.521-.281.72A.947.947 0 0 1 23 17H11.687l3.688 3.656c.083.104.151.219.203.344.052.125.078.25.078.375s-.026.25-.078.375c-.052.125-.12.24-.203.344a1.043 1.043 0 0 1-.906.265 1.237 1.237 0 0 1-.188-.047.555.555 0 0 1-.172-.093 2.429 2.429 0 0 0-.171-.125L8.03 16.03l5.906-6.062a.988.988 0 0 1 .72-.313c.27 0 .505.1.702.297a.979.979 0 0 1 .297.719.954.954 0 0 1-.281.703L11.75 15z"/></g></g></svg>