<svg xmlns="http://www.w3.org/2000/svg" width="26" height="26" viewBox="0 0 26 26"><g><g><g><path class="cattegory-basket" fill="#737373" class="basket" d="M18.591 21.328a2.737 2.737 0 1 0 3.87 3.87 2.737 2.737 0 0 0-3.87-3.87zm2.903.968a1.369 1.369 0 1 1-1.936 1.935 1.369 1.369 0 0 1 1.936-1.936zm-15.219-.968a2.737 2.737 0 1 0 3.871 3.87 2.737 2.737 0 0 0-3.87-3.87zm2.903.968a1.369 1.369 0 1 1-1.935 1.935 1.369 1.369 0 0 1 1.935-1.936zm14.085-18.19a1.368 1.368 0 0 1 1.096 2.186l-4.106 5.474a1.361 1.361 0 0 1-1.095.55H7.964L4.48 4.106zm-4.105 9.578a2.734 2.734 0 0 0 2.243-1.168l3.988-5.318a2.737 2.737 0 0 0-2.126-4.461H3.9L2.737 0H0v1.368h1.831l4.97 11.709-.985 2.017a2.737 2.737 0 0 0 2.395 4.064h15.052V17.79H8.211a1.369 1.369 0 0 1-1.369-1.369l.137-.602 1.048-2.135z"/></g><g><path fill="#737373" class="basket" d="M11.81 8.676v-.995h2.583V5.08h1.013v2.6h2.583v.996h-2.583v2.595h-1.013V8.676z"/></g></g></g></svg>