<svg xmlns="http://www.w3.org/2000/svg" width="22" height="22" viewBox="0 0 22 22"><g><g><path fill="#232323" d="M15.731 18.047a2.316 2.316 0 1 0 3.275 3.275 2.316 2.316 0 0 0-3.275-3.275zm2.456.819a1.158 1.158 0 1 1-1.637 1.637 1.158 1.158 0 0 1 1.637-1.637zm-12.877-.82a2.316 2.316 0 1 0 3.275 3.276 2.316 2.316 0 0 0-3.275-3.275zm2.456.82a1.158 1.158 0 1 1-1.637 1.637 1.158 1.158 0 0 1 1.637-1.637zM19.684 3.474a1.158 1.158 0 0 1 .928 1.85h-.001l-3.474 4.632a1.15 1.15 0 0 1-.926.465H6.739l-2.95-6.947zm-3.473 8.105a2.313 2.313 0 0 0 1.898-.989l3.374-4.5a2.316 2.316 0 0 0-1.799-3.774H3.3L2.316 0H0v1.158h1.55l4.205 9.907-.834 1.707a2.316 2.316 0 0 0 2.026 3.438h12.737v-1.157H6.947a1.158 1.158 0 0 1-1.157-1.158l.115-.51.887-1.806z"/></g></g></svg>