<svg xmlns="http://www.w3.org/2000/svg" width="18" height="18" viewBox="0 0 18 18"><g><g><g/><g><g><g><path fill="#737373" d="M17.35 2.19H6.705c-.387 0-.645.258-.645.645s.323.645.645.645H17.35c.387 0 .645-.258.645-.645s-.258-.645-.645-.645z"/></g></g></g><g><g><g><path fill="#737373" d="M17.415 8.39H6.705c-.387 0-.645.258-.645.645s.258.645.645.645H17.35c.387 0 .645-.258.645-.645s-.258-.645-.58-.645z"/></g></g></g><g><g><g><path fill="#737373" d="M17.415 14.58H6.705c-.387 0-.645.258-.645.645s.258.645.645.645H17.35c.387 0 .645-.258.645-.645s-.258-.645-.58-.645z"/></g></g></g><g><g><g><path fill="#737373" d="M4.645 2.843a2.313 2.313 0 0 1-2.322 2.322A2.313 2.313 0 0 1 0 2.843 2.313 2.313 0 0 1 2.323.52a2.313 2.313 0 0 1 2.322 2.323zm-1.29.064c0-.58-.452-1.032-1.032-1.032-.581 0-1.033.451-1.033 1.032 0 .58.452 1.032 1.033 1.032.58 0 1.032-.516 1.032-1.032z"/></g></g></g><g><g><g><path fill="#737373" d="M4.645 9.033a2.313 2.313 0 0 1-2.322 2.322A2.313 2.313 0 0 1 0 9.033 2.313 2.313 0 0 1 2.323 6.71a2.313 2.313 0 0 1 2.322 2.323zm-1.29 0C3.355 8.452 2.903 8 2.323 8c-.581 0-1.033.452-1.033 1.033 0 .58.452 1.032 1.033 1.032.58 0 1.032-.452 1.032-1.032z"/></g></g></g><g><g><g><path fill="#737373" d="M4.645 15.163a2.313 2.313 0 0 1-2.322 2.322A2.313 2.313 0 0 1 0 15.163a2.313 2.313 0 0 1 2.323-2.323c1.29 0 2.322 1.097 2.322 2.323zm-1.29.064c0-.58-.452-1.032-1.032-1.032-.581 0-1.033.451-1.033 1.032 0 .58.452 1.032 1.033 1.032.58 0 1.032-.451 1.032-1.032z"/></g></g></g></g></g></svg>