<svg xmlns="http://www.w3.org/2000/svg" width="41" height="33" viewBox="0 0 41 33"><g><g><g><path fill="#ffe600" d="M31.25 16.625c0 8.63-6.996 15.625-15.625 15.625C6.995 32.25 0 25.254 0 16.625 0 7.995 6.996 1 15.625 1c8.63 0 15.625 6.996 15.625 15.625z"/></g><g><path fill="#232323" d="M18.452 21.705a4.742 4.742 0 1 1 0-9.485 4.742 4.742 0 0 1 0 9.485zm0-8.695a3.952 3.952 0 1 0 3.952 3.952 3.952 3.952 0 0 0-3.952-3.96z"/><path fill="none" stroke="#232323" stroke-miterlimit="50" stroke-width=".3" d="M18.452 21.705a4.742 4.742 0 1 1 0-9.485 4.742 4.742 0 0 1 0 9.485zm0-8.695a3.952 3.952 0 1 0 3.952 3.952 3.952 3.952 0 0 0-3.952-3.96z"/></g><g><path fill="#232323" d="M24.825 17.35a.427.427 0 0 1-.426-.419 5.96 5.96 0 0 0-5.944-5.951.427.427 0 1 1 0-.846 6.797 6.797 0 0 1 6.79 6.797.419.419 0 0 1-.42.42z"/><path fill="none" stroke="#232323" stroke-miterlimit="50" stroke-width=".3" d="M24.825 17.35a.427.427 0 0 1-.426-.419 5.96 5.96 0 0 0-5.944-5.951.427.427 0 1 1 0-.846 6.797 6.797 0 0 1 6.79 6.797.419.419 0 0 1-.42.42z"/></g><g><path fill="#232323" d="M18.454 7.903a2.276 2.276 0 1 1-.016-4.553 2.276 2.276 0 0 1 .016 4.553zm0-3.7a1.423 1.423 0 1 0-.079 2.845 1.423 1.423 0 0 0 .08-2.844z"/><path fill="none" stroke="#232323" stroke-miterlimit="50" stroke-width=".3" d="M18.454 7.903a2.276 2.276 0 1 1-.016-4.553 2.276 2.276 0 0 1 .016 4.553zm0-3.7a1.423 1.423 0 1 0-.079 2.845 1.423 1.423 0 0 0 .08-2.844z"/></g><g><path fill="#232323" d="M18.454 30.513a2.276 2.276 0 1 1-.016-4.553 2.276 2.276 0 0 1 .016 4.553zm0-3.7a1.423 1.423 0 1 0-.079 2.845 1.423 1.423 0 0 0 .08-2.844z"/><path fill="none" stroke="#232323" stroke-miterlimit="50" stroke-width=".3" d="M18.454 30.513a2.276 2.276 0 1 1-.016-4.553 2.276 2.276 0 0 1 .016 4.553zm0-3.7a1.423 1.423 0 1 0-.079 2.845 1.423 1.423 0 0 0 .08-2.844z"/></g><g><path fill="#232323" d="M33.794 19.203a2.276 2.276 0 1 1-.016-4.553 2.276 2.276 0 0 1 .016 4.553zm0-3.691a1.423 1.423 0 1 0-.016 2.845 1.423 1.423 0 0 0 .016-2.845z"/><path fill="none" stroke="#232323" stroke-miterlimit="50" stroke-width=".3" d="M33.794 19.203a2.276 2.276 0 1 1-.016-4.553 2.276 2.276 0 0 1 .016 4.553zm0-3.691a1.423 1.423 0 1 0-.016 2.845 1.423 1.423 0 0 0 .016-2.845z"/></g><g><path fill="#232323" d="M31.946 12.463a2.276 2.276 0 1 1 0-4.553 2.276 2.276 0 0 1 0 4.553zm0-3.7a1.423 1.423 0 1 0 1.423 1.423 1.43 1.43 0 0 0-1.423-1.422z"/><path fill="none" stroke="#232323" stroke-miterlimit="50" stroke-width=".3" d="M31.946 12.463a2.276 2.276 0 1 1 0-4.553 2.276 2.276 0 0 1 0 4.553zm0-3.7a1.423 1.423 0 1 0 1.423 1.423 1.43 1.43 0 0 0-1.423-1.422z"/></g><g><path fill="#232323" d="M10.453 27.204a2.292 2.292 0 1 1 1.58-.672 2.229 2.229 0 0 1-1.58.672zm0-3.7a1.423 1.423 0 0 0-1.004 2.427 1.454 1.454 0 0 0 2.008 0 1.423 1.423 0 0 0-1.004-2.426z"/><path fill="none" stroke="#232323" stroke-miterlimit="50" stroke-width=".3" d="M10.453 27.204a2.292 2.292 0 1 1 1.58-.672 2.229 2.229 0 0 1-1.58.672zm0-3.7a1.423 1.423 0 0 0-1.004 2.427 1.454 1.454 0 0 0 2.008 0 1.423 1.423 0 0 0-1.004-2.426z"/></g><g><path fill="#232323" d="M7.146 19.203a2.276 2.276 0 1 1 0-4.553 2.276 2.276 0 0 1 0 4.553zm0-3.691a1.423 1.423 0 1 0 0 2.845 1.423 1.423 0 0 0 0-2.845z"/><path fill="none" stroke="#232323" stroke-miterlimit="50" stroke-width=".3" d="M7.146 19.203a2.276 2.276 0 1 1 0-4.553 2.276 2.276 0 0 1 0 4.553zm0-3.691a1.423 1.423 0 1 0 0 2.845 1.423 1.423 0 0 0 0-2.845z"/></g><g><path fill="#232323" d="M10.453 11.205a2.276 2.276 0 0 1-1.581-3.88 2.269 2.269 0 1 1 3.209 3.209 2.229 2.229 0 0 1-1.628.671zm0-3.699a1.423 1.423 0 0 0-1.004 2.435 1.454 1.454 0 0 0 2.007 0 1.423 1.423 0 0 0-1.003-2.427z"/><path fill="none" stroke="#232323" stroke-miterlimit="50" stroke-width=".3" d="M10.453 11.205a2.276 2.276 0 0 1-1.581-3.88 2.269 2.269 0 1 1 3.209 3.209 2.229 2.229 0 0 1-1.628.671zm0-3.699a1.423 1.423 0 0 0-1.004 2.435 1.454 1.454 0 0 0 2.007 0 1.423 1.423 0 0 0-1.003-2.427z"/></g><g><path fill="#232323" d="M39.55 19.206a.427.427 0 0 1-.418-.467c0-.276.04-.553.055-.83a.419.419 0 0 1 .411-.379.411.411 0 0 1 .403.443c0 .292 0 .577-.055.87a.427.427 0 0 1-.395.363z"/><path fill="none" stroke="#232323" stroke-miterlimit="50" stroke-width=".3" d="M39.55 19.206a.427.427 0 0 1-.418-.467c0-.276.04-.553.055-.83a.419.419 0 0 1 .411-.379.411.411 0 0 1 .403.443c0 .292 0 .577-.055.87a.427.427 0 0 1-.395.363z"/></g><g><path fill="#232323" d="M39.52 14.771a.427.427 0 0 0 .37-.474 22.527 22.527 0 0 0-.292-1.802.427.427 0 0 0-.83.174c.116.569.211 1.146.285 1.73a.427.427 0 0 0 .427.372zM38.341 9.61a.419.419 0 0 0 .237-.554 22.253 22.253 0 0 0-.735-1.667.438.438 0 0 0-.79.38c.26.497.497 1.034.71 1.58a.427.427 0 0 0 .396.269.38.38 0 0 0 .181-.008z"/><path fill="none" stroke="#232323" stroke-miterlimit="50" stroke-width=".3" d="M39.52 14.771a.427.427 0 0 0 .37-.474 22.527 22.527 0 0 0-.292-1.802.427.427 0 0 0-.83.174c.116.569.211 1.146.285 1.73a.427.427 0 0 0 .427.372zM38.341 9.61a.419.419 0 0 0 .237-.554 22.253 22.253 0 0 0-.735-1.667.438.438 0 0 0-.79.38c.26.497.497 1.034.71 1.58a.427.427 0 0 0 .396.269.38.38 0 0 0 .181-.008z"/></g><g><path fill="#232323" d="M35.573 4.88a.443.443 0 0 1-.348-.173c-.158-.221-.332-.443-.506-.664a.435.435 0 0 1 .071-.6.427.427 0 0 1 .6.07c.18.232.354.461.523.688a.427.427 0 0 1-.087.6.435.435 0 0 1-.253.08z"/><path fill="none" stroke="#232323" stroke-miterlimit="50" stroke-width=".3" d="M35.573 4.88a.443.443 0 0 1-.348-.173c-.158-.221-.332-.443-.506-.664a.435.435 0 0 1 .071-.6.427.427 0 0 1 .6.07c.18.232.354.461.523.688a.427.427 0 0 1-.087.6.435.435 0 0 1-.253.08z"/></g><g><path fill="#232323" d="M33.326 31.322a2.664 2.664 0 0 1-1.858-.79l-6.631-6.64a.418.418 0 0 1 0-.6 9.034 9.034 0 0 0 0-12.782.419.419 0 0 1 0-.6l6.64-6.616a2.632 2.632 0 0 1 2.023-.79 2.577 2.577 0 0 1 1.873.956l-.324.285-.332.26.332-.26-.348.253a1.715 1.715 0 0 0-1.249-.649 1.842 1.842 0 0 0-1.375.522l-6.323 6.323a9.888 9.888 0 0 1 0 13.366l6.323 6.323a1.763 1.763 0 0 0 2.084.317 1.85 1.85 0 0 0 .587-.483 20.716 20.716 0 0 0 4.38-11.065.42.42 0 0 1 .466-.34.427.427 0 0 1 .387.466 21.483 21.483 0 0 1-4.56 11.5 2.663 2.663 0 0 1-1.93 1.004z"/><path fill="none" stroke="#232323" stroke-miterlimit="50" stroke-width=".3" d="M33.326 31.322a2.664 2.664 0 0 1-1.858-.79l-6.631-6.64a.418.418 0 0 1 0-.6 9.034 9.034 0 0 0 0-12.782.419.419 0 0 1 0-.6l6.64-6.616a2.632 2.632 0 0 1 2.023-.79 2.577 2.577 0 0 1 1.873.956l-.324.285v0l-.332.26v0l.332-.26v0l-.348.253a1.715 1.715 0 0 0-1.249-.649 1.842 1.842 0 0 0-1.375.522l-6.323 6.323a9.888 9.888 0 0 1 0 13.366l6.323 6.323a1.763 1.763 0 0 0 2.084.317 1.85 1.85 0 0 0 .587-.483 20.716 20.716 0 0 0 4.38-11.065.42.42 0 0 1 .466-.34.427.427 0 0 1 .387.466 21.483 21.483 0 0 1-4.56 11.5 2.663 2.663 0 0 1-1.93 1.004z"/></g><g><path fill="#232323" d="M31.946 25.953a2.276 2.276 0 1 1 0-4.553 2.276 2.276 0 0 1 0 4.553zm0-3.7a1.423 1.423 0 1 0 1.423 1.423 1.43 1.43 0 0 0-1.423-1.407z"/><path fill="none" stroke="#232323" stroke-miterlimit="50" stroke-width=".3" d="M31.946 25.953a2.276 2.276 0 1 1 0-4.553 2.276 2.276 0 0 1 0 4.553zm0-3.7a1.423 1.423 0 1 0 1.423 1.423 1.43 1.43 0 0 0-1.423-1.407z"/></g><g><path fill="#232323" d="M18.453 32.804A15.87 15.87 0 0 1 7.189 5.67a15.88 15.88 0 0 1 22.495 0 .427.427 0 0 1 0 .6l-3.952 3.953a9.895 9.895 0 0 1 0 13.365l3.952 3.952c.077.081.12.189.119.3a.443.443 0 0 1-.119.309 15.863 15.863 0 0 1-11.231 4.655zm0-30.904a15.018 15.018 0 1 0 10.322 25.957l-3.952-3.952a.427.427 0 0 1 0-.601 9.058 9.058 0 0 0 0-12.78.418.418 0 0 1 0-.602l3.952-3.952A14.954 14.954 0 0 0 18.453 1.9z"/><path fill="none" stroke="#232323" stroke-miterlimit="50" stroke-width=".3" d="M18.453 32.804A15.87 15.87 0 0 1 7.189 5.67a15.88 15.88 0 0 1 22.495 0 .427.427 0 0 1 0 .6l-3.952 3.953a9.895 9.895 0 0 1 0 13.365l3.952 3.952c.077.081.12.189.119.3a.443.443 0 0 1-.119.309 15.863 15.863 0 0 1-11.231 4.655zm0-30.904a15.018 15.018 0 1 0 10.322 25.957l-3.952-3.952a.427.427 0 0 1 0-.601 9.058 9.058 0 0 0 0-12.78.418.418 0 0 1 0-.602l3.952-3.952A14.954 14.954 0 0 0 18.453 1.9z"/></g></g></g></svg>