<svg xmlns="http://www.w3.org/2000/svg" width="38" height="37" viewBox="0 0 38 37"><g><g><g><path fill="#ffe600" d="M36.84 21.35c0 8.008-6.492 14.5-14.5 14.5s-14.5-6.492-14.5-14.5 6.492-14.5 14.5-14.5 14.5 6.492 14.5 14.5z"/></g><g><path fill="#232323" d="M19.387 33.74a3.623 3.623 0 0 1-2.804-1.289c-.7-.834-.935-1.895-.779-2.88l.623-3.183c-.155-.076-.311-.152-.467-.152l-1.87 2.653c-.623.834-1.557 1.44-2.648 1.516a3.934 3.934 0 0 1-2.882-.986c-.779-.757-1.168-1.743-1.013-2.804.078-1.06.701-1.97 1.558-2.577l2.727-1.819c-.078-.151-.156-.303-.156-.454l-3.272.606a3.426 3.426 0 0 1-2.96-.758 3.45 3.45 0 0 1-1.324-2.728 3.45 3.45 0 0 1 1.324-2.729c.857-.682 1.948-.985 2.96-.758l3.272.607c.078-.152.156-.303.156-.455l-2.805-1.819c-.856-.606-1.48-1.516-1.558-2.577-.077-1.06.312-2.046 1.013-2.804.78-.758 1.792-1.137 2.882-.985 1.09.076 2.025.682 2.649 1.516l1.87 2.652c.155-.076.31-.151.467-.151l-.624-3.184a3.207 3.207 0 0 1 .78-2.88 3.622 3.622 0 0 1 2.803-1.288c1.091 0 2.104.455 2.805 1.288.7.834.934 1.895.779 2.88l-.623 3.184c.155.075.311.151.467.151l1.87-2.652c.623-.834 1.557-1.44 2.648-1.516a3.933 3.933 0 0 1 2.882.985c.779.758 1.168 1.743 1.013 2.804-.078 1.061-.702 1.97-1.558 2.577l-2.727 1.819c.078.152.156.303.156.455l3.272-.607a3.426 3.426 0 0 1 2.96.758 3.45 3.45 0 0 1 1.324 2.729 3.45 3.45 0 0 1-1.324 2.728c-.857.682-1.948.985-2.96.758l-3.272-.606c-.078.151-.156.303-.156.455l2.727 1.818c.856.607 1.48 1.516 1.557 2.577.078 1.061-.311 2.047-1.012 2.804-.78.758-1.792 1.137-2.882.986-1.09-.076-2.026-.682-2.649-1.516l-1.87-2.653c-.155.076-.31.152-.467.152l.624 3.183a3.207 3.207 0 0 1-.78 2.88c-.623.834-1.635 1.288-2.726 1.288zm-3.583-8.413c.078 0 .156 0 .156.076.312.151.701.303 1.013.379.233.075.311.227.311.454l-.7 3.487c-.157.758.077 1.591.622 2.198.546.606 1.324.985 2.103.985.857 0 1.636-.38 2.104-.985.545-.607.779-1.44.623-2.198l-.701-3.487c0-.227.078-.379.311-.454a5.498 5.498 0 0 0 1.013-.38c.156-.075.39 0 .545.152l2.103 2.956c.468.682 1.247 1.061 2.026 1.137.857.076 1.635-.227 2.259-.758.623-.606.856-1.364.779-2.198-.078-.834-.546-1.516-1.169-1.97l-3.038-2.047c-.156-.151-.234-.303-.156-.53.156-.303.312-.682.39-.986.078-.227.234-.303.467-.303l3.583.682a2.74 2.74 0 0 0 2.26-.606c.623-.53 1.012-1.288 1.012-2.046 0-.758-.39-1.592-1.013-2.047a2.74 2.74 0 0 0-2.259-.606l-3.583.682c-.233 0-.39-.076-.467-.303a5.174 5.174 0 0 0-.39-.985c-.077-.152 0-.38.156-.53l3.038-2.047c.701-.455 1.09-1.213 1.168-1.97.078-.758-.233-1.592-.778-2.198-.624-.607-1.402-.834-2.26-.758-.856.075-1.557.53-2.025 1.136l-2.025 2.956c-.156.152-.312.228-.545.152a5.498 5.498 0 0 0-1.013-.38c-.234-.075-.311-.226-.311-.454l.7-3.486c.157-.758-.077-1.592-.622-2.198-.546-.606-1.325-.985-2.104-.985-.857 0-1.635.379-2.103.985-.545.606-.779 1.44-.623 2.198l.701 3.486c0 .228-.078.38-.312.455a5.5 5.5 0 0 0-1.012.379c-.156.076-.39 0-.545-.152L13.389 9.26c-.467-.682-1.246-1.06-2.025-1.136-.857-.076-1.636.227-2.259.758-.623.606-.857 1.364-.779 2.197.078.834.546 1.516 1.169 1.97l3.038 2.047c.155.152.233.303.155.53a5.174 5.174 0 0 0-.389.986c-.078.227-.234.303-.467.303l-3.584-.682a2.739 2.739 0 0 0-2.259.606c-.623.53-1.012 1.289-1.012 2.047 0 .758.39 1.591 1.012 2.046a2.74 2.74 0 0 0 2.26.606l3.583-.682c.233 0 .389.076.467.303.078.304.234.682.39.986.077.151 0 .379-.156.53L9.495 24.72c-.623.38-1.09 1.137-1.169 1.895-.078.834.234 1.592.78 2.198.622.606 1.401.834 2.258.758.857-.076 1.558-.53 2.025-1.137l2.104-2.956c.078-.075.155-.151.311-.151z"/><path fill="none" stroke="#232323" stroke-miterlimit="50" stroke-width=".3" d="M19.387 33.74a3.623 3.623 0 0 1-2.804-1.289c-.7-.834-.935-1.895-.779-2.88l.623-3.183c-.155-.076-.311-.152-.467-.152l-1.87 2.653c-.623.834-1.557 1.44-2.648 1.516a3.934 3.934 0 0 1-2.882-.986c-.779-.757-1.168-1.743-1.013-2.804.078-1.06.701-1.97 1.558-2.577l2.727-1.819c-.078-.151-.156-.303-.156-.454l-3.272.606a3.426 3.426 0 0 1-2.96-.758 3.45 3.45 0 0 1-1.324-2.728 3.45 3.45 0 0 1 1.324-2.729c.857-.682 1.948-.985 2.96-.758l3.272.607c.078-.152.156-.303.156-.455l-2.805-1.819c-.856-.606-1.48-1.516-1.558-2.577-.077-1.06.312-2.046 1.013-2.804.78-.758 1.792-1.137 2.882-.985 1.09.076 2.025.682 2.649 1.516l1.87 2.652c.155-.076.31-.151.467-.151l-.624-3.184a3.207 3.207 0 0 1 .78-2.88 3.622 3.622 0 0 1 2.803-1.288c1.091 0 2.104.455 2.805 1.288.7.834.934 1.895.779 2.88l-.623 3.184c.155.075.311.151.467.151l1.87-2.652c.623-.834 1.557-1.44 2.648-1.516a3.933 3.933 0 0 1 2.882.985c.779.758 1.168 1.743 1.013 2.804-.078 1.061-.702 1.97-1.558 2.577l-2.727 1.819c.078.152.156.303.156.455l3.272-.607a3.426 3.426 0 0 1 2.96.758 3.45 3.45 0 0 1 1.324 2.729 3.45 3.45 0 0 1-1.324 2.728c-.857.682-1.948.985-2.96.758l-3.272-.606c-.078.151-.156.303-.156.455l2.727 1.818c.856.607 1.48 1.516 1.557 2.577.078 1.061-.311 2.047-1.012 2.804-.78.758-1.792 1.137-2.882.986-1.09-.076-2.026-.682-2.649-1.516l-1.87-2.653c-.155.076-.31.152-.467.152l.624 3.183a3.207 3.207 0 0 1-.78 2.88c-.623.834-1.635 1.288-2.726 1.288zm-3.583-8.413c.078 0 .156 0 .156.076.312.151.701.303 1.013.379.233.075.311.227.311.454l-.7 3.487c-.157.758.077 1.591.622 2.198.546.606 1.324.985 2.103.985.857 0 1.636-.38 2.104-.985.545-.607.779-1.44.623-2.198l-.701-3.487c0-.227.078-.379.311-.454a5.498 5.498 0 0 0 1.013-.38c.156-.075.39 0 .545.152l2.103 2.956c.468.682 1.247 1.061 2.026 1.137.857.076 1.635-.227 2.259-.758.623-.606.856-1.364.779-2.198-.078-.834-.546-1.516-1.169-1.97l-3.038-2.047c-.156-.151-.234-.303-.156-.53.156-.303.312-.682.39-.986.078-.227.234-.303.467-.303l3.583.682a2.74 2.74 0 0 0 2.26-.606c.623-.53 1.012-1.288 1.012-2.046 0-.758-.39-1.592-1.013-2.047a2.74 2.74 0 0 0-2.259-.606l-3.583.682c-.233 0-.39-.076-.467-.303a5.174 5.174 0 0 0-.39-.985c-.077-.152 0-.38.156-.53l3.038-2.047c.701-.455 1.09-1.213 1.168-1.97.078-.758-.233-1.592-.778-2.198-.624-.607-1.402-.834-2.26-.758-.856.075-1.557.53-2.025 1.136l-2.025 2.956c-.156.152-.312.228-.545.152a5.498 5.498 0 0 0-1.013-.38c-.234-.075-.311-.226-.311-.454l.7-3.486c.157-.758-.077-1.592-.622-2.198-.546-.606-1.325-.985-2.104-.985-.857 0-1.635.379-2.103.985-.545.606-.779 1.44-.623 2.198l.701 3.486c0 .228-.078.38-.312.455a5.5 5.5 0 0 0-1.012.379c-.156.076-.39 0-.545-.152L13.389 9.26c-.467-.682-1.246-1.06-2.025-1.136-.857-.076-1.636.227-2.259.758-.623.606-.857 1.364-.779 2.197.078.834.546 1.516 1.169 1.97l3.038 2.047c.155.152.233.303.155.53a5.174 5.174 0 0 0-.389.986c-.078.227-.234.303-.467.303l-3.584-.682a2.739 2.739 0 0 0-2.259.606c-.623.53-1.012 1.289-1.012 2.047 0 .758.39 1.591 1.012 2.046a2.74 2.74 0 0 0 2.26.606l3.583-.682c.233 0 .389.076.467.303.078.304.234.682.39.986.077.151 0 .379-.156.53L9.495 24.72c-.623.38-1.09 1.137-1.169 1.895-.078.834.234 1.592.78 2.198.622.606 1.401.834 2.258.758.857-.076 1.558-.53 2.025-1.137l2.104-2.956c.078-.075.155-.151.311-.151z"/></g><g><path fill="#232323" d="M19.385 26.999c-4.596 0-8.335-3.638-8.335-8.11 0-4.471 3.739-8.109 8.335-8.109 4.595 0 8.334 3.638 8.334 8.11 0 4.471-3.739 8.109-8.334 8.109zm0-15.385c-4.129 0-7.478 3.259-7.478 7.275 0 4.017 3.35 7.276 7.478 7.276s7.478-3.259 7.478-7.276c0-4.016-3.35-7.275-7.478-7.275z"/><path fill="none" stroke="#232323" stroke-miterlimit="50" stroke-width=".3" d="M19.385 26.999c-4.596 0-8.335-3.638-8.335-8.11 0-4.471 3.739-8.109 8.335-8.109 4.595 0 8.334 3.638 8.334 8.11 0 4.471-3.739 8.109-8.334 8.109zm0-15.385c-4.129 0-7.478 3.259-7.478 7.275 0 4.017 3.35 7.276 7.478 7.276s7.478-3.259 7.478-7.276c0-4.016-3.35-7.275-7.478-7.275z"/></g><g><path fill="#232323" d="M24.837 19.262c-.233 0-.39-.152-.39-.38 0-.227 0-.53-.077-.757 0-.228.156-.455.39-.455.233 0 .467.152.467.379.078.303.078.606.078.91a.526.526 0 0 1-.468.303z"/><path fill="none" stroke="#232323" stroke-miterlimit="50" stroke-width=".3" d="M24.837 19.262c-.233 0-.39-.152-.39-.38 0-.227 0-.53-.077-.757 0-.228.156-.455.39-.455.233 0 .467.152.467.379.078.303.078.606.078.91a.526.526 0 0 1-.468.303z"/></g><g><path fill="#232323" d="M23.67 16.006c-.157 0-.235-.076-.312-.152a5.218 5.218 0 0 0-.935-.91c-.156-.15-.234-.378-.078-.606.156-.151.39-.227.623-.075.39.303.779.606 1.013.985.155.151.078.455-.078.606-.078.152-.156.152-.234.152z"/><path fill="none" stroke="#232323" stroke-miterlimit="50" stroke-width=".3" d="M23.67 16.006c-.157 0-.235-.076-.312-.152a5.218 5.218 0 0 0-.935-.91c-.156-.15-.234-.378-.078-.606.156-.151.39-.227.623-.075.39.303.779.606 1.013.985.155.151.078.455-.078.606-.078.152-.156.152-.234.152z"/></g><g><path fill="#232323" d="M20.166 14.034c-.311-.076-.545-.076-.857-.076-.233 0-.389-.152-.389-.38 0-.226.156-.378.39-.378.311 0 .623 0 .934.076.234 0 .39.227.39.455a.526.526 0 0 1-.468.303z"/><path fill="none" stroke="#232323" stroke-miterlimit="50" stroke-width=".3" d="M20.166 14.034c-.311-.076-.545-.076-.857-.076-.233 0-.389-.152-.389-.38 0-.226.156-.378.39-.378.311 0 .623 0 .934.076.234 0 .39.227.39.455a.526.526 0 0 1-.468.303z"/></g><g><path fill="#232323" d="M19.382 24.568c-3.271 0-5.842-2.576-5.842-5.684 0-3.183 2.648-5.684 5.842-5.684.234 0 .39.152.39.379s-.156.379-.39.379c-2.804 0-5.063 2.198-5.063 4.926 0 2.729 2.259 4.926 5.063 4.926s5.063-2.197 5.063-4.926c0-.227.156-.379.39-.379.233 0 .39.152.39.38 0 3.107-2.65 5.683-5.843 5.683z"/><path fill="none" stroke="#232323" stroke-miterlimit="50" stroke-width=".3" d="M19.382 24.568c-3.271 0-5.842-2.576-5.842-5.684 0-3.183 2.648-5.684 5.842-5.684.234 0 .39.152.39.379s-.156.379-.39.379c-2.804 0-5.063 2.198-5.063 4.926 0 2.729 2.259 4.926 5.063 4.926s5.063-2.197 5.063-4.926c0-.227.156-.379.39-.379.233 0 .39.152.39.38 0 3.107-2.65 5.683-5.843 5.683z"/></g><g><path fill="#232323" d="M29.038 4.562c-.077 0-.155 0-.233-.076C26 2.743 22.729 1.758 19.379 1.758c-.233 0-.389-.152-.389-.38 0-.226.156-.378.39-.378 3.505 0 6.932.985 9.892 2.804.234.152.234.38.156.53a.43.43 0 0 1-.39.228z"/><path fill="none" stroke="#232323" stroke-miterlimit="50" stroke-width=".3" d="M29.038 4.562c-.077 0-.155 0-.233-.076C26 2.743 22.729 1.758 19.379 1.758c-.233 0-.389-.152-.389-.38 0-.226.156-.378.39-.378 3.505 0 6.932.985 9.892 2.804.234.152.234.38.156.53a.43.43 0 0 1-.39.228z"/></g><g><path fill="#232323" d="M37.066 16.156c-.234 0-.39-.152-.39-.304-.078-.227-.078-.53-.156-.758-.078-.227.078-.454.312-.454.234-.076.467.076.467.303.078.303.156.53.156.834.078.151-.078.379-.39.379z"/><path fill="none" stroke="#232323" stroke-miterlimit="50" stroke-width=".3" d="M37.066 16.156c-.234 0-.39-.152-.39-.304-.078-.227-.078-.53-.156-.758-.078-.227.078-.454.312-.454.234-.076.467.076.467.303.078.303.156.53.156.834.078.151-.078.379-.39.379z"/></g><g><path fill="#232323" d="M35.977 12.371c.234-.076.312-.303.234-.53-.156-.455-.467-.986-.701-1.44-.078-.152-.312-.228-.545-.152-.156.076-.234.303-.156.53l.701 1.365a.43.43 0 0 0 .39.227zm-2.414-4.168a.394.394 0 0 0 .078-.607 15.31 15.31 0 0 0-1.091-1.212.484.484 0 0 0-.623 0 .452.452 0 0 0 0 .606c.39.379.779.758 1.09 1.137.078.076.156.151.312.151.078 0 .156-.075.234-.075z"/><path fill="none" stroke="#232323" stroke-miterlimit="50" stroke-width=".3" d="M35.977 12.371c.234-.076.312-.303.234-.53-.156-.455-.467-.986-.701-1.44-.078-.152-.312-.228-.545-.152-.156.076-.234.303-.156.53l.701 1.365a.43.43 0 0 0 .39.227zm-2.414-4.168a.394.394 0 0 0 .078-.607 15.31 15.31 0 0 0-1.091-1.212.484.484 0 0 0-.623 0 .452.452 0 0 0 0 .606c.39.379.779.758 1.09 1.137.078.076.156.151.312.151.078 0 .156-.075.234-.075z"/></g><g><path fill="#232323" d="M29.747 5.018c-.078 0-.156 0-.234-.076l-.7-.455c-.234-.151-.234-.379-.156-.53a.417.417 0 0 1 .545-.152l.7.455c.157.152.235.379.079.606 0 .076-.078.152-.234.152z"/><path fill="none" stroke="#232323" stroke-miterlimit="50" stroke-width=".3" d="M29.747 5.018c-.078 0-.156 0-.234-.076l-.7-.455c-.234-.151-.234-.379-.156-.53a.417.417 0 0 1 .545-.152l.7.455c.157.152.235.379.079.606 0 .076-.078.152-.234.152z"/></g><g><path fill="#232323" d="M37.301 19.265c-.233 0-.39-.152-.39-.379 0-.985-.077-2.046-.31-3.032-.079-.227.077-.454.31-.454.235-.076.468.076.468.303.156 1.06.312 2.122.312 3.183.078.227-.156.379-.39.379z"/><path fill="none" stroke="#232323" stroke-miterlimit="50" stroke-width=".3" d="M37.301 19.265c-.233 0-.39-.152-.39-.379 0-.985-.077-2.046-.31-3.032-.079-.227.077-.454.31-.454.235-.076.468.076.468.303.156 1.06.312 2.122.312 3.183.078.227-.156.379-.39.379z"/></g><g><path fill="#232323" d="M19.383 36.775C9.257 36.775 1 28.742 1 18.89c0-.227.156-.379.39-.379.233 0 .389.152.389.379 0 9.398 7.867 17.053 17.526 17.053.234 0 .39.151.39.379.078.227-.078.454-.312.454z"/><path fill="none" stroke="#232323" stroke-miterlimit="50" stroke-width=".3" d="M19.383 36.775C9.257 36.775 1 28.742 1 18.89c0-.227.156-.379.39-.379.233 0 .389.152.389.379 0 9.398 7.867 17.053 17.526 17.053.234 0 .39.151.39.379.078.227-.078.454-.312.454z"/></g><g><path fill="#232323" d="M16.19 8.348c-.156 0-.39-.151-.39-.303-.078-.227.078-.454.312-.53a12.166 12.166 0 0 1 3.271-.455c.234 0 .39.152.39.379s-.156.379-.39.379c-1.012 0-2.103.151-3.037.379-.078.151-.156.151-.156.151z"/><path fill="none" stroke="#232323" stroke-miterlimit="50" stroke-width=".3" d="M16.19 8.348c-.156 0-.39-.151-.39-.303-.078-.227.078-.454.312-.53a12.166 12.166 0 0 1 3.271-.455c.234 0 .39.152.39.379s-.156.379-.39.379c-1.012 0-2.103.151-3.037.379-.078.151-.156.151-.156.151z"/></g><g><path fill="#232323" d="M27.641 11.231c-.078 0-.234-.075-.312-.151-.7-.682-1.557-1.364-2.492-1.819-.234-.076-.312-.379-.156-.53.078-.228.39-.304.545-.152a13.24 13.24 0 0 1 2.649 1.97.452.452 0 0 1 0 .607s-.156.075-.234.075z"/><path fill="none" stroke="#232323" stroke-miterlimit="50" stroke-width=".3" d="M27.641 11.231c-.078 0-.234-.075-.312-.151-.7-.682-1.557-1.364-2.492-1.819-.234-.076-.312-.379-.156-.53.078-.228.39-.304.545-.152a13.24 13.24 0 0 1 2.649 1.97.452.452 0 0 1 0 .607s-.156.075-.234.075z"/></g><g><path fill="#232323" d="M31.07 19.265c-.234 0-.39-.152-.39-.379 0-.985-.156-2.046-.39-2.956-.078-.227.078-.454.312-.53.234-.076.467.076.545.303a11.25 11.25 0 0 1 .467 3.183c-.155.227-.311.379-.545.379z"/><path fill="none" stroke="#232323" stroke-miterlimit="50" stroke-width=".3" d="M31.07 19.265c-.234 0-.39-.152-.39-.379 0-.985-.156-2.046-.39-2.956-.078-.227.078-.454.312-.53.234-.076.467.076.545.303a11.25 11.25 0 0 1 .467 3.183c-.155.227-.311.379-.545.379z"/></g><g><path fill="#232323" d="M27.638 27.304c-.077 0-.233-.076-.311-.152a.452.452 0 0 1 0-.606c.7-.682 1.324-1.516 1.87-2.426.077-.227.389-.303.545-.151.233.076.311.379.155.53a12.96 12.96 0 0 1-2.025 2.577c0 .228-.156.228-.234.228z"/><path fill="none" stroke="#232323" stroke-miterlimit="50" stroke-width=".3" d="M27.638 27.304c-.077 0-.233-.076-.311-.152a.452.452 0 0 1 0-.606c.7-.682 1.324-1.516 1.87-2.426.077-.227.389-.303.545-.151.233.076.311.379.155.53a12.96 12.96 0 0 1-2.025 2.577c0 .228-.156.228-.234.228z"/></g><g><path fill="#232323" d="M19.38 30.637c-.234 0-.39-.152-.39-.38 0-.227.156-.378.39-.378 1.012 0 2.103-.152 3.037-.38.234-.075.468.077.546.304.078.227-.078.455-.312.53-1.09.152-2.181.304-3.272.304z"/><path fill="none" stroke="#232323" stroke-miterlimit="50" stroke-width=".3" d="M19.38 30.637c-.234 0-.39-.152-.39-.38 0-.227.156-.378.39-.378 1.012 0 2.103-.152 3.037-.38.234-.075.468.077.546.304.078.227-.078.455-.312.53-1.09.152-2.181.304-3.272.304z"/></g><g><path fill="#232323" d="M13.619 29.196c-.078 0-.156 0-.234-.075a13.24 13.24 0 0 1-2.648-1.971.452.452 0 0 1 0-.606.484.484 0 0 1 .623 0c.701.682 1.558 1.288 2.493 1.819.233.075.311.379.155.53-.077.228-.233.303-.389.303z"/><path fill="none" stroke="#232323" stroke-miterlimit="50" stroke-width=".3" d="M13.619 29.196c-.078 0-.156 0-.234-.075a13.24 13.24 0 0 1-2.648-1.971.452.452 0 0 1 0-.606.484.484 0 0 1 .623 0c.701.682 1.558 1.288 2.493 1.819.233.075.311.379.155.53-.077.228-.233.303-.389.303z"/></g><g><path fill="#232323" d="M8.087 22.375c-.156 0-.39-.151-.39-.303a11.249 11.249 0 0 1-.467-3.183c0-.227.156-.379.39-.379.233 0 .389.152.389.379 0 .985.156 2.046.39 2.956.077.227-.078.454-.312.53.078 0 .078 0 0 0z"/><path fill="none" stroke="#232323" stroke-miterlimit="50" stroke-width=".3" d="M8.087 22.375c-.156 0-.39-.151-.39-.303a11.249 11.249 0 0 1-.467-3.183c0-.227.156-.379.39-.379.233 0 .389.152.389.379 0 .985.156 2.046.39 2.956.077.227-.078.454-.312.53.078 0 .078 0 0 0z"/></g><g><path fill="#232323" d="M9.18 13.737c-.077 0-.155 0-.233-.076-.234-.076-.312-.379-.156-.53a12.96 12.96 0 0 1 2.025-2.577.484.484 0 0 1 .623 0 .452.452 0 0 1 0 .606c-.7.682-1.324 1.516-1.869 2.425-.156.076-.234.152-.39.152z"/><path fill="none" stroke="#232323" stroke-miterlimit="50" stroke-width=".3" d="M9.18 13.737c-.077 0-.155 0-.233-.076-.234-.076-.312-.379-.156-.53a12.96 12.96 0 0 1 2.025-2.577.484.484 0 0 1 .623 0 .452.452 0 0 1 0 .606c-.7.682-1.324 1.516-1.869 2.425-.156.076-.234.152-.39.152z"/></g><g><path fill="#232323" d="M21.483 19.264c-.234 0-.39-.151-.39-.379 0-.91-.779-1.667-1.714-1.667-.233 0-.389-.152-.389-.379s.156-.379.39-.379c1.402 0 2.57 1.137 2.57 2.501a.526.526 0 0 1-.467.303z"/><path fill="none" stroke="#232323" stroke-miterlimit="50" stroke-width=".3" d="M21.483 19.264c-.234 0-.39-.151-.39-.379 0-.91-.779-1.667-1.714-1.667-.233 0-.389-.152-.389-.379s.156-.379.39-.379c1.402 0 2.57 1.137 2.57 2.501a.526.526 0 0 1-.467.303z"/></g></g></g></svg>