<svg xmlns="http://www.w3.org/2000/svg" width="41" height="33" viewBox="0 0 41 33"><g><g><path fill="#ffe600" d="M0 20a3 3 0 0 1 3-3h26a3 3 0 0 1 3 3v10a3 3 0 0 1-3 3H3a3 3 0 0 1-3-3z"/></g><g><path fill="#232323" d="M6.254 31.997a.542.542 0 0 1-.544-.546v-8.219c0-3.157 2.556-5.723 5.704-5.723h2.812V3.334A1.93 1.93 0 0 1 16.154 1.4a1.93 1.93 0 0 1 1.927 1.934V31.45a.546.546 0 0 1-.544.546zm10.739-1.092V3.334a.85.85 0 0 0-.847-.85.85.85 0 0 0-.847.85v14.721c0 .304-.241.546-.544.546h-3.357c-2.549 0-4.616 2.082-4.616 4.631v7.673z"/></g><g><path fill="#232323" d="M15.193 21.152H6.97a.54.54 0 0 1-.38-.156L4.127 18.54a.552.552 0 0 1 0-.772c.21-.21.552-.21.77 0l2.3 2.3H15.2c.303 0 .544.242.544.546a.557.557 0 0 1-.551.538z"/></g><g><path fill="#232323" d="M6.254 30.085a.542.542 0 0 1-.544-.545v-6.3c0-.157.016-.312.039-.46l.023-.157a.546.546 0 0 1 .536-.483h2.48c.302 0 .543.242.543.546v6.861a.54.54 0 0 1-.544.538zm1.99-1.091v-5.77H6.79v5.77z"/></g><g><path fill="#232323" d="M17.544 18.7a.542.542 0 0 1-.544-.545v-2.27c0-.303.24-.545.544-.545h21.112c.303 0 .544.242.544.546v2.269a.557.557 0 0 1-.544.546zm.544-1.091h20.024v-1.177H18.088z"/></g><g><path fill="#232323" d="M20.384 16.426a.542.542 0 0 1-.544-.545V8.216c0-.304.24-.546.544-.546h8.773c.303 0 .544.242.544.546v7.665a.558.558 0 0 1-.552.545zm8.221-1.091V8.754H20.92v6.58z"/></g><g><path fill="#232323" d="M23.544 12.588a.542.542 0 0 1-.544-.546V8.206c0-.304.24-.546.544-.546h2.44c.303 0 .544.242.544.546v3.836c0 .304-.241.546-.544.546zm.544-1.092h1.36V8.752h-1.36z"/></g><g><path fill="#232323" d="M25.984 8.756a.542.542 0 0 1-.544-.545V.546c0-.304.24-.546.544-.546h8.773c.303 0 .544.242.544.546V8.21c0 .304-.241.545-.544.545zm8.229-1.091V1.092h-7.685v6.573z"/></g><g><path fill="#232323" d="M29.154 4.92a.542.542 0 0 1-.544-.546V.546c0-.304.24-.546.544-.546h2.44c.303 0 .544.242.544.546v3.836a.545.545 0 0 1-.544.538zm.536-1.084h1.36V1.092h-1.36z"/></g><g><path fill="#232323" d="M31.684 16.426a.542.542 0 0 1-.544-.545V8.216c0-.304.24-.546.544-.546h8.773c.303 0 .544.242.544.546v7.665c0 .296-.241.545-.544.545zm.544-1.091h7.685V8.754h-7.685z"/></g><g><path fill="#232323" d="M34.854 12.588a.542.542 0 0 1-.544-.546V8.206c0-.304.24-.546.544-.546h2.44c.303 0 .544.242.544.546v3.836c0 .304-.241.546-.544.546zm.544-1.092h1.36V8.752h-1.36z"/></g><g><path fill="#232323" d="M34.014 32.002H2.544A.542.542 0 0 1 2 31.456c0-.304.24-.546.544-.546h31.47c.303 0 .544.242.544.546 0 .304-.24.546-.544.546z"/></g><g><path fill="#232323" d="M38.656 28.332H17.544a.542.542 0 0 1-.544-.546c0-.304.24-.546.544-.546h21.112c.303 0 .544.242.544.546a.557.557 0 0 1-.544.546z"/></g></g></svg>