<svg xmlns="http://www.w3.org/2000/svg" width="35" height="28" viewBox="0 0 35 28"><g><g><g><path fill="#ffe600" d="M17.268 7c.77-1.333 2.694-1.333 3.464 0l10.392 18c.77 1.333-.192 3-1.732 3H8.608c-1.54 0-2.502-1.667-1.732-3z"/></g><g><path fill="#232323" d="M.488 10.823c-.209 0-.348-.137-.348-.343V7.192c0-.205.14-.342.348-.342H18.51c.208 0 .348.137.348.342v3.288c0 .206-.14.343-.348.343zm.348-.685h17.256V7.603H.836z"/><path fill="none" stroke="#232323" stroke-miterlimit="50" stroke-width=".3" d="M.488 10.823c-.209 0-.348-.137-.348-.343V7.192c0-.205.14-.342.348-.342H18.51c.208 0 .348.137.348.342v3.288c0 .206-.14.343-.348.343zm.348-.685h17.256V7.603H.836z"/></g><g><path fill="#232323" d="M.488 24.863c-.209 0-.348-.137-.348-.343v-3.288c0-.205.14-.342.348-.342H18.51c.208 0 .348.137.348.342v3.288c0 .206-.14.343-.348.343zm.348-.754h17.256v-2.534H.836z"/><path fill="none" stroke="#232323" stroke-miterlimit="50" stroke-width=".3" d="M.488 24.863c-.209 0-.348-.137-.348-.343v-3.288c0-.205.14-.342.348-.342H18.51c.208 0 .348.137.348.342v3.288c0 .206-.14.343-.348.343zm.348-.754h17.256v-2.534H.836z"/></g><g><path fill="#232323" d="M16.418 19.998c-.209 0-.348-.137-.348-.342v-.754c0-.205.14-.342.348-.342.209 0 .348.137.348.342v.754c0 .205-.14.342-.348.342z"/><path fill="none" stroke="#232323" stroke-miterlimit="50" stroke-width=".3" d="M16.418 19.998c-.209 0-.348-.137-.348-.342v-.754c0-.205.14-.342.348-.342.209 0 .348.137.348.342v.754c0 .205-.14.342-.348.342z"/></g><g><path fill="#232323" d="M16.418 16.508c-.209 0-.348-.137-.348-.342v-.754c0-.205.14-.342.348-.342.209 0 .348.137.348.342v.754c0 .205-.14.342-.348.342z"/><path fill="none" stroke="#232323" stroke-miterlimit="50" stroke-width=".3" d="M16.418 16.508c-.209 0-.348-.137-.348-.342v-.754c0-.205.14-.342.348-.342.209 0 .348.137.348.342v.754c0 .205-.14.342-.348.342z"/></g><g><path fill="#232323" d="M16.425 21.578H2.578c-.209 0-.348-.137-.348-.342V10.482c0-.205.14-.342.348-.342h13.847c.209 0 .348.137.348.342v4.932c0 .205-.14.342-.348.342-.209 0-.348-.137-.348-.342v-4.59H2.926v10h13.081v-1.232c0-.205.14-.342.348-.342.209 0 .348.137.348.342v1.644c.07.205-.07.342-.278.342z"/><path fill="none" stroke="#232323" stroke-miterlimit="50" stroke-width=".3" d="M16.425 21.578v0H2.578c-.209 0-.348-.137-.348-.342V10.482c0-.205.14-.342.348-.342h13.847c.209 0 .348.137.348.342v4.932c0 .205-.14.342-.348.342-.209 0-.348-.137-.348-.342v-4.59 0H2.926v10h13.081v0-1.232c0-.205.14-.342.348-.342.209 0 .348.137.348.342v1.644c.07.205-.07.342-.278.342z"/></g><g><path fill="#232323" d="M3.202 7.599c-.21 0-.348-.137-.348-.343V4.311c-.07-.206.139-.411.348-.411h4.453c.209 0 .348.137.348.342V7.12c0 .274-.209.48-.348.48zm.347-.754h3.688V4.653H3.55z"/><path fill="none" stroke="#232323" stroke-miterlimit="50" stroke-width=".3" d="M3.202 7.599c-.21 0-.348-.137-.348-.343V4.311c-.07-.206.139-.411.348-.411h4.453c.209 0 .348.137.348.342V7.12c0 .274-.209.48-.348.48zm.347-.754h3.688V4.653H3.55z"/></g><g><path fill="#232323" d="M11.338 7.6c-.209 0-.348-.137-.348-.342V4.312c0-.205.14-.342.348-.342h4.453c.209 0 .348.137.348.342V7.19c0 .206-.14.411-.348.411zm.417-.753h3.688V4.655h-3.688z"/><path fill="none" stroke="#232323" stroke-miterlimit="50" stroke-width=".3" d="M11.338 7.6c-.209 0-.348-.137-.348-.342V4.312c0-.205.14-.342.348-.342h4.453c.209 0 .348.137.348.342V7.19c0 .206-.14.411-.348.411zm.417-.753h3.688V4.655h-3.688z"/></g><g><path fill="#232323" d="M26.028 4.318c-.209 0-.348-.137-.348-.342V.482c0-.205.14-.342.348-.342h5.288c.209 0 .348.137.348.342v3.494c0 .137-.14.342-.348.342zm.348-.753h4.523V.825h-4.523z"/><path fill="none" stroke="#232323" stroke-miterlimit="50" stroke-width=".3" d="M26.028 4.318c-.209 0-.348-.137-.348-.342V.482c0-.205.14-.342.348-.342h5.288c.209 0 .348.137.348.342v3.494c0 .137-.14.342-.348.342zm.348-.753h4.523V.825h-4.523z"/></g><g><path fill="#232323" d="M34.512 24.86H18.508c-.209 0-.348-.136-.348-.342 0-.205.14-.342.348-.342h15.586v-3.151H20.665c-.209 0-.348-.137-.348-.343 0-.205.14-.342.348-.342h13.777c.21 0 .348.137.348.342v3.905c.07.137-.07.274-.278.274z"/><path fill="none" stroke="#232323" stroke-miterlimit="50" stroke-width=".3" d="M34.512 24.86v0H18.508c-.209 0-.348-.136-.348-.342 0-.205.14-.342.348-.342h15.586v0-3.151 0H20.665c-.209 0-.348-.137-.348-.343 0-.205.14-.342.348-.342h13.777c.21 0 .348.137.348.342v3.905c.07.137-.07.274-.278.274z"/></g><g><path fill="#232323" d="M32.01 9.653c-.208 0-.347-.137-.347-.342V8.215H20.808c-.209 0-.348-.137-.348-.343 0-.205.14-.342.348-.342H32.01c.208 0 .348.137.348.342v1.439c.07.137-.14.342-.348.342z"/><path fill="none" stroke="#232323" stroke-miterlimit="50" stroke-width=".3" d="M32.01 9.653c-.208 0-.347-.137-.347-.342V8.215v0H20.808c-.209 0-.348-.137-.348-.343 0-.205.14-.342.348-.342H32.01c.208 0 .348.137.348.342v1.439c.07.137-.14.342-.348.342z"/></g><g><path fill="#232323" d="M32.008 17.468c-.209 0-.348-.137-.348-.342v-.754c0-.205.14-.342.348-.342.209 0 .348.137.348.342v.754c.07.205-.14.342-.348.342z"/><path fill="none" stroke="#232323" stroke-miterlimit="50" stroke-width=".3" d="M32.008 17.468c-.209 0-.348-.137-.348-.342v-.754c0-.205.14-.342.348-.342.209 0 .348.137.348.342v.754c.07.205-.14.342-.348.342z"/></g><g><path fill="#232323" d="M32.008 14.176c-.209 0-.348-.137-.348-.342v-1.302c0-.205.14-.342.348-.342.209 0 .348.137.348.342v1.302c.07.205-.14.342-.348.342z"/><path fill="none" stroke="#232323" stroke-miterlimit="50" stroke-width=".3" d="M32.008 14.176c-.209 0-.348-.137-.348-.342v-1.302c0-.205.14-.342.348-.342.209 0 .348.137.348.342v1.302c.07.205-.14.342-.348.342z"/></g><g><path fill="#232323" d="M32.008 10.338c-.209 0-.348-.137-.348-.342v-.754c0-.205.14-.342.348-.342.209 0 .348.137.348.342v.754c.07.205-.14.342-.348.342z"/><path fill="none" stroke="#232323" stroke-miterlimit="50" stroke-width=".3" d="M32.008 10.338c-.209 0-.348-.137-.348-.342v-.754c0-.205.14-.342.348-.342.209 0 .348.137.348.342v.754c.07.205-.14.342-.348.342z"/></g><g><path fill="#232323" d="M32.01 20.958H20.668c-.209 0-.348-.137-.348-.342 0-.206.14-.343.348-.343h10.924v-3.15c0-.206.14-.343.348-.343.209 0 .348.137.348.342v3.494c.14.205-.07.342-.278.342z"/><path fill="none" stroke="#232323" stroke-miterlimit="50" stroke-width=".3" d="M32.01 20.958v0H20.668c-.209 0-.348-.137-.348-.342 0-.206.14-.343.348-.343h10.924v0-3.15c0-.206.14-.343.348-.343.209 0 .348.137.348.342v3.494c.14.205-.07.342-.278.342z"/></g><g><path fill="#232323" d="M34.509 8.219H20.801c-.209 0-.348-.137-.348-.342 0-.206.14-.343.348-.343h13.29v-3.22H18.019c-.209 0-.348-.136-.348-.342 0-.205.14-.342.348-.342h16.421c.21 0 .348.137.348.342v3.905c.07.137-.07.342-.278.342z"/><path fill="none" stroke="#232323" stroke-miterlimit="50" stroke-width=".3" d="M34.509 8.219v0H20.801c-.209 0-.348-.137-.348-.342 0-.206.14-.343.348-.343h13.29v0-3.22 0H18.019c-.209 0-.348-.136-.348-.342 0-.205.14-.342.348-.342h16.421c.21 0 .348.137.348.342v3.905c.07.137-.07.342-.278.342z"/></g><g><path fill="#232323" d="M21.567 4.318h-3.48c-.208 0-.347-.137-.347-.342 0-.206.139-.343.347-.343h3.132V.893h-4.523v1.233c0 .206-.14.343-.348.343-.209 0-.348-.137-.348-.343V.482c0-.205.14-.342.348-.342h5.219c.208 0 .348.137.348.342v3.494c0 .137-.14.342-.348.342z"/><path fill="none" stroke="#232323" stroke-miterlimit="50" stroke-width=".3" d="M21.567 4.318v0h-3.48c-.208 0-.347-.137-.347-.342 0-.206.139-.343.347-.343h3.132v0-2.74 0h-4.523v1.233c0 .206-.14.343-.348.343-.209 0-.348-.137-.348-.343V.482c0-.205.14-.342.348-.342h5.219c.208 0 .348.137.348.342v3.494c0 .137-.14.342-.348.342z"/></g><g><path fill="#232323" d="M8.696 18.97c-.07 0-.139 0-.208-.07-.14-.136-.21-.342-.07-.547l1.81-2.466H8.07a.384.384 0 0 1-.348-.206.43.43 0 0 1 0-.41l1.67-2.398c.14-.137.348-.205.557-.068.139.137.209.342.07.548l-1.253 1.849h2.227c.139 0 .278.068.347.205a.43.43 0 0 1 0 .411l-2.226 3.014c-.209.069-.278.137-.418.137z"/><path fill="none" stroke="#232323" stroke-miterlimit="50" stroke-width=".3" d="M8.696 18.97c-.07 0-.139 0-.208-.07-.14-.136-.21-.342-.07-.547l1.81-2.466v0H8.07a.384.384 0 0 1-.348-.206.43.43 0 0 1 0-.41l1.67-2.398c.14-.137.348-.205.557-.068.139.137.209.342.07.548l-1.253 1.849v0h2.227c.139 0 .278.068.347.205a.43.43 0 0 1 0 .411l-2.226 3.014c-.209.069-.278.137-.418.137z"/></g><g><path fill="#232323" d="M23.244 18.698c-.07 0-.139 0-.208-.069-.14-.137-.21-.342-.07-.548l2.783-3.767H22.27a.384.384 0 0 1-.348-.205.43.43 0 0 1 0-.411l2.436-3.425c.139-.137.347-.205.556-.068.14.137.209.342.07.548l-2.018 2.876h3.479c.14 0 .278.069.348.206a.43.43 0 0 1 0 .41l-3.27 4.247c-.07.137-.21.206-.279.206z"/><path fill="none" stroke="#232323" stroke-miterlimit="50" stroke-width=".3" d="M23.244 18.698c-.07 0-.139 0-.208-.069-.14-.137-.21-.342-.07-.548l2.783-3.767v0H22.27a.384.384 0 0 1-.348-.205.43.43 0 0 1 0-.411l2.436-3.425c.139-.137.347-.205.556-.068.14.137.209.342.07.548l-2.018 2.876v0h3.479c.14 0 .278.069.348.206a.43.43 0 0 1 0 .41l-3.27 4.247c-.07.137-.21.206-.279.206z"/></g></g></g></svg>