<svg xmlns="http://www.w3.org/2000/svg" width="31" height="38" viewBox="0 0 31 38"><g><g><g transform="rotate(124.51 11 26)"><path fill="#ffe600" d="M22.748 26.336a8.406 8.406 0 0 1-8.406 8.407H7.126a8.406 8.406 0 1 1 0-16.813h7.216a8.406 8.406 0 0 1 8.406 8.406z"/></g><g><path fill="#323232" d="M28.94 5.189a.358.358 0 0 1-.221-.072l-2.334-1.682a.387.387 0 0 1-.165-.308.387.387 0 0 1 .158-.315l2.362-1.74a.401.401 0 0 1 .458 0l.874.63a.394.394 0 0 1 .143.437l-.902 2.785a.415.415 0 0 1-.25.25.337.337 0 0 1-.122.015zm-1.675-2.07l1.475 1.06.652-2.012-.423-.3z"/><path fill="none" stroke="#323232" stroke-miterlimit="50" stroke-width=".3" d="M28.94 5.189a.358.358 0 0 1-.221-.072l-2.334-1.682a.387.387 0 0 1-.165-.308.387.387 0 0 1 .158-.315l2.362-1.74a.401.401 0 0 1 .458 0l.874.63a.394.394 0 0 1 .143.437l-.902 2.785a.415.415 0 0 1-.25.25.337.337 0 0 1-.122.015zm-1.675-2.07l1.475 1.06.652-2.012-.423-.3z"/></g><g><path fill="#323232" d="M25.024 36.58a1.648 1.648 0 0 1-1.346-.715l-9.902-13.668a2.52 2.52 0 0 1 .566-3.516l2.19-1.575a2.52 2.52 0 0 1 3.516.566l9.874 13.696a1.627 1.627 0 0 1 .293 1.24 1.655 1.655 0 0 1-.666 1.08l-3.58 2.585a1.648 1.648 0 0 1-.945.308zM18.001 17.4c-.366 0-.721.115-1.017.33l-2.191 1.574a1.747 1.747 0 0 0-.394 2.442l9.91 13.696a.888.888 0 0 0 1.238.2l3.58-2.584a.895.895 0 0 0 .358-.573.916.916 0 0 0-.165-.666l-9.895-13.696a1.754 1.754 0 0 0-1.424-.723z"/><path fill="none" stroke="#323232" stroke-miterlimit="50" stroke-width=".3" d="M25.024 36.58a1.648 1.648 0 0 1-1.346-.715l-9.902-13.668a2.52 2.52 0 0 1 .566-3.516l2.19-1.575a2.52 2.52 0 0 1 3.516.566l9.874 13.696a1.627 1.627 0 0 1 .293 1.24 1.655 1.655 0 0 1-.666 1.08l-3.58 2.585a1.648 1.648 0 0 1-.945.308zM18.001 17.4c-.366 0-.721.115-1.017.33l-2.191 1.574a1.747 1.747 0 0 0-.394 2.442l9.91 13.696a.888.888 0 0 0 1.238.2l3.58-2.584a.895.895 0 0 0 .358-.573.916.916 0 0 0-.165-.666l-9.895-13.696a1.754 1.754 0 0 0-1.424-.723z"/></g><g><path fill="#323232" d="M26.449 35.843a.372.372 0 0 1-.315-.157l-8.907-12.33a1.734 1.734 0 0 1 2.814-2.025l.644.895a.387.387 0 0 1-.515.556.38.38 0 0 1-.108-.105l-.651-.895a.96.96 0 1 0-1.554 1.124L26.52 34.92l1.561-1.089-.716-.937a.412.412 0 0 1 .659-.494l.909 1.252a.38.38 0 0 1-.093.537l-2.184 1.576a.387.387 0 0 1-.207.078z"/><path fill="none" stroke="#323232" stroke-miterlimit="50" stroke-width=".3" d="M26.449 35.843a.372.372 0 0 1-.315-.157l-8.907-12.33a1.734 1.734 0 0 1 2.814-2.025l.644.895a.387.387 0 0 1-.515.556.38.38 0 0 1-.108-.105l-.651-.895a.96.96 0 1 0-1.554 1.124L26.52 34.92v0l1.561-1.089v0l-.716-.937a.412.412 0 0 1 .659-.494l.909 1.252a.38.38 0 0 1-.093.537l-2.184 1.576a.387.387 0 0 1-.207.078z"/></g><g><path fill="#323232" d="M20.835 23.462a.401.401 0 0 1-.315-.157l-.451-.63a.387.387 0 1 1 .623-.451l.458.63a.38.38 0 0 1-.093.537.358.358 0 0 1-.222.071z"/><path fill="none" stroke="#323232" stroke-miterlimit="50" stroke-width=".3" d="M20.835 23.462a.401.401 0 0 1-.315-.157l-.451-.63a.387.387 0 1 1 .623-.451l.458.63a.38.38 0 0 1-.093.537.358.358 0 0 1-.222.071z"/></g><g><path fill="#323232" d="M25.878 30.069a.38.38 0 0 0 .093-.537l-.809-1.103a.387.387 0 0 0-.623.451l.802 1.117a.401.401 0 0 0 .315.157.358.358 0 0 0 .222-.085zm-2.384-3.337a.38.38 0 0 0 .093-.537l-.809-1.117a.387.387 0 0 0-.687.315.38.38 0 0 0 .064.136l.773 1.117a.387.387 0 0 0 .315.165c.09.006.18-.022.251-.079z"/><path fill="none" stroke="#323232" stroke-miterlimit="50" stroke-width=".3" d="M25.878 30.069a.38.38 0 0 0 .093-.537l-.809-1.103a.387.387 0 0 0-.623.451l.802 1.117a.401.401 0 0 0 .315.157.358.358 0 0 0 .222-.085zm-2.384-3.337a.38.38 0 0 0 .093-.537l-.809-1.117a.387.387 0 0 0-.687.315.38.38 0 0 0 .064.136l.773 1.117a.387.387 0 0 0 .315.165c.09.006.18-.022.251-.079z"/></g><g><path fill="#323232" d="M27.721 33.007a.387.387 0 0 1-.315-.158l-.45-.63a.38.38 0 0 1 .085-.537.387.387 0 0 1 .537.086l.451.63a.38.38 0 0 1-.086.537.358.358 0 0 1-.222.072z"/><path fill="none" stroke="#323232" stroke-miterlimit="50" stroke-width=".3" d="M27.721 33.007a.387.387 0 0 1-.315-.158l-.45-.63a.38.38 0 0 1 .085-.537.387.387 0 0 1 .537.086l.451.63a.38.38 0 0 1-.086.537.358.358 0 0 1-.222.072z"/></g><g><path fill="#323232" d="M14.507 19.419a.372.372 0 0 1-.308-.165l-1.654-2.29a.38.38 0 0 1 .086-.538l2.291-1.654a.387.387 0 0 1 .537.086l1.683 2.291a.386.386 0 0 1-.086.544l-2.291 1.654a.451.451 0 0 1-.258.072zm-1.11-2.592l1.203 1.668 1.661-1.203-1.203-1.668z"/><path fill="none" stroke="#323232" stroke-miterlimit="50" stroke-width=".3" d="M14.507 19.419a.372.372 0 0 1-.308-.165l-1.654-2.29a.38.38 0 0 1 .086-.538l2.291-1.654a.387.387 0 0 1 .537.086l1.683 2.291a.386.386 0 0 1-.086.544l-2.291 1.654a.451.451 0 0 1-.258.072zm-1.11-2.592l1.203 1.668 1.661-1.203-1.203-1.668z"/></g><g><path fill="#323232" d="M13.311 16.803a.388.388 0 0 1-.308-.158l-8.62-11.95a.394.394 0 0 1 .086-.543L5.9 3.149a.401.401 0 0 1 .286-.064.38.38 0 0 1 .222.15l8.592 11.978a.371.371 0 0 1 .018.428.38.38 0 0 1-.104.11l-1.346.98a.394.394 0 0 1-.258.072zM5.235 4.553l8.17 11.326.758-.551L6.001 4z"/><path fill="none" stroke="#323232" stroke-miterlimit="50" stroke-width=".3" d="M13.311 16.803a.388.388 0 0 1-.308-.158l-8.62-11.95a.394.394 0 0 1 .086-.543L5.9 3.149a.401.401 0 0 1 .286-.064.38.38 0 0 1 .222.15l8.592 11.978a.371.371 0 0 1 .018.428.38.38 0 0 1-.104.11l-1.346.98a.394.394 0 0 1-.258.072zM5.235 4.553l8.17 11.326.758-.551L6.001 4z"/></g><g><path fill="#323232" d="M4.255 5.186a.358.358 0 0 1-.121 0 .387.387 0 0 1-.244-.25l-.938-2.8a.38.38 0 0 1 .136-.437l.881-.63a.4.4 0 0 1 .451 0l2.363 1.74a.387.387 0 0 1 .157.315.387.387 0 0 1-.164.308L4.449 5.115a.394.394 0 0 1-.194.071zM3.77 2.165l.658 2.012 1.468-1.06-1.704-1.253z"/><path fill="none" stroke="#323232" stroke-miterlimit="50" stroke-width=".3" d="M4.255 5.186a.358.358 0 0 1-.121 0 .387.387 0 0 1-.244-.25l-.938-2.8a.38.38 0 0 1 .136-.437l.881-.63a.4.4 0 0 1 .451 0l2.363 1.74a.387.387 0 0 1 .157.315.387.387 0 0 1-.164.308L4.449 5.115a.394.394 0 0 1-.194.071zM3.77 2.165l.658 2.012 1.468-1.06-1.704-1.253z"/></g><g><path fill="#323232" d="M18.463 15.8a.386.386 0 0 1-.378-.321.38.38 0 0 1 .07-.287l8.592-11.957a.4.4 0 0 1 .544-.086l1.389 1.003a.387.387 0 0 1 .086.544l-1.862 2.577a.38.38 0 0 1-.64-.018.387.387 0 0 1 .017-.433l1.633-2.27-.745-.55-8.391 11.641a.387.387 0 0 1-.315.158z"/><path fill="none" stroke="#323232" stroke-miterlimit="50" stroke-width=".3" d="M18.463 15.8a.386.386 0 0 1-.378-.321.38.38 0 0 1 .07-.287l8.592-11.957a.4.4 0 0 1 .544-.086l1.389 1.003a.387.387 0 0 1 .086.544l-1.862 2.577a.38.38 0 0 1-.64-.018.387.387 0 0 1 .017-.433l1.633-2.27v0l-.745-.55v0l-8.391 11.641a.387.387 0 0 1-.315.158z"/></g><g><path fill="#323232" d="M22.157 13.655a.394.394 0 0 1-.229-.072.387.387 0 0 1-.086-.537l.451-.623a.394.394 0 0 1 .544-.093.394.394 0 0 1 .086.545l-.45.622a.38.38 0 0 1-.316.158z"/><path fill="none" stroke="#323232" stroke-miterlimit="50" stroke-width=".3" d="M22.157 13.655a.394.394 0 0 1-.229-.072.387.387 0 0 1-.086-.537l.451-.623a.394.394 0 0 1 .544-.093.394.394 0 0 1 .086.545l-.45.622a.38.38 0 0 1-.316.158z"/></g><g><path fill="#323232" d="M24.008 11.05a.365.365 0 0 1-.222-.08.38.38 0 0 1-.093-.536l.716-.995a.394.394 0 0 1 .544-.086.387.387 0 0 1 .086.537l-.738 1.03a.387.387 0 0 1-.293.13z"/><path fill="none" stroke="#323232" stroke-miterlimit="50" stroke-width=".3" d="M24.008 11.05a.365.365 0 0 1-.222-.08.38.38 0 0 1-.093-.536l.716-.995a.394.394 0 0 1 .544-.086.387.387 0 0 1 .086.537l-.738 1.03a.387.387 0 0 1-.293.13z"/></g><g><path fill="#323232" d="M26.153 8.052a.358.358 0 0 1-.222-.071.38.38 0 0 1-.086-.537l.451-.63a.387.387 0 1 1 .623.45l-.472.638a.38.38 0 0 1-.294.15z"/><path fill="none" stroke="#323232" stroke-miterlimit="50" stroke-width=".3" d="M26.153 8.052a.358.358 0 0 1-.222-.071.38.38 0 0 1-.086-.537l.451-.63a.387.387 0 1 1 .623.45l-.472.638a.38.38 0 0 1-.294.15z"/></g><g><path fill="#323232" d="M19.955 16.648a.387.387 0 0 1-.315-.609l2.148-3.007a.387.387 0 1 1 .63.451L20.27 16.49a.38.38 0 0 1-.315.158z"/><path fill="none" stroke="#323232" stroke-miterlimit="50" stroke-width=".3" d="M19.955 16.648a.387.387 0 0 1-.315-.609l2.148-3.007a.387.387 0 1 1 .63.451L20.27 16.49a.38.38 0 0 1-.315.158z"/></g><g><path fill="#323232" d="M8.174 36.587c-.346 0-.684-.107-.966-.308l-3.58-2.585a1.661 1.661 0 0 1-.373-2.32l9.165-12.722a.387.387 0 1 1 .63.451L3.87 31.826a.917.917 0 0 0-.157.666c.04.23.168.436.358.573l3.58 2.584a.888.888 0 0 0 1.238-.2l6.544-9.072a.38.38 0 0 1 .641.018.387.387 0 0 1-.018.433L9.52 35.9a1.647 1.647 0 0 1-1.346.687z"/><path fill="none" stroke="#323232" stroke-miterlimit="50" stroke-width=".3" d="M8.174 36.587c-.346 0-.684-.107-.966-.308l-3.58-2.585a1.661 1.661 0 0 1-.373-2.32l9.165-12.722a.387.387 0 1 1 .63.451L3.87 31.826a.917.917 0 0 0-.157.666c.04.23.168.436.358.573l3.58 2.584a.888.888 0 0 0 1.238-.2l6.544-9.072a.38.38 0 0 1 .641.018.387.387 0 0 1-.018.433L9.52 35.9a1.647 1.647 0 0 1-1.346.687z"/></g><g><path fill="#323232" d="M6.73 35.837a.394.394 0 0 1-.23-.071L4.352 34.19a.364.364 0 0 1-.157-.25.372.372 0 0 1 .072-.287l8.24-11.456a.387.387 0 0 1 .687.315.38.38 0 0 1-.064.136L5.083 33.826l1.56 1.124 7.475-10.432a.387.387 0 0 1 .63.451L7.044 35.68a.387.387 0 0 1-.315.158z"/><path fill="none" stroke="#323232" stroke-miterlimit="50" stroke-width=".3" d="M6.73 35.837a.394.394 0 0 1-.23-.071L4.352 34.19a.364.364 0 0 1-.157-.25.372.372 0 0 1 .072-.287l8.24-11.456a.387.387 0 0 1 .687.315.38.38 0 0 1-.064.136L5.083 33.826v0l1.56 1.124v0l7.475-10.432a.387.387 0 0 1 .63.451L7.044 35.68a.387.387 0 0 1-.315.158z"/></g></g></g></svg>