<svg xmlns="http://www.w3.org/2000/svg" width="72" height="71" viewBox="0 0 72 71"><g><g><g><path fill="#ffe600" d="M59.29 37.745c0 16.372-13.273 29.645-29.645 29.645C13.272 67.39 0 54.117 0 37.745 0 21.372 13.272 8.1 29.645 8.1c16.372 0 29.645 13.272 29.645 29.645z"/></g><g><path fill="#232323" d="M36.492 12.04H34.22v57.915h2.272z"/></g><g><path fill="#232323" d="M64.316 39.86H22.1v2.271h42.216z"/></g><g><path fill="#232323" d="M55.604 25.86H23.99v2.271h31.614z"/></g><g><path fill="#232323" d="M60.913 53.87H9.61v2.271h51.303z"/></g><g><path fill="#232323" d="M59.967 33.044c-1.325 0-2.461-.757-3.218-1.892l-7.005-11.924c-2.271-3.785-2.271-8.328-.378-12.113 1.893-3.596 5.49-6.056 9.465-6.435h2.272c3.975.379 7.572 2.65 9.465 6.435 2.083 3.975 1.893 8.517-.378 12.113l-7.005 11.924c-.757 1.135-1.893 1.892-3.218 1.892zm0-30.093h-.947c-3.218.19-6.057 2.082-7.572 5.11-1.704 3.218-1.514 6.814.19 10.031l7.004 11.924c.19.379.757.757 1.325.757s.947-.19 1.325-.757l7.005-11.924c1.893-3.028 1.893-6.813.189-10.03-1.515-3.029-4.354-4.922-7.572-5.11h-.947z"/></g><g><path fill="#232323" d="M14.147 52.165c-1.325 0-2.461-.757-3.218-1.893L3.924 38.538c-2.271-3.785-2.271-8.328-.378-12.113 1.893-3.596 5.49-6.056 9.465-6.435h2.272c3.975.379 7.572 2.65 9.465 6.435 2.083 3.975 1.893 8.517-.378 12.113l-7.005 11.924c-.568 1.135-1.704 1.703-3.218 1.703zm0-29.904H13.2c-3.218.19-6.057 2.082-7.572 5.11-1.514 3.218-1.514 7.003.379 10.031l7.004 11.924c.19.379.757.568 1.136.568.568 0 .946-.19 1.325-.757l7.004-11.924c1.894-3.028 1.894-6.813.19-10.03-1.515-3.03-4.354-4.922-7.573-5.111-.189.19-.567.19-.946.19z"/></g><g><path fill="#232323" d="M35.35 71.087c-16.66 0-30.1-13.438-30.1-30.093v-.568l.19-4.164 7.76 13.06a1.422 1.422 0 0 0 2.462 0l7.004-11.924c1.893-3.028 1.893-6.814.19-10.031-1.515-3.028-4.354-4.921-7.573-5.11h-3.407l1.893-1.893c5.68-6.056 13.44-9.274 21.77-9.274 5.112 0 10.223 1.325 14.766 3.785l.379.19.19.567c.188.947.567 1.893 1.135 2.65l7.004 11.924c.19.378.758.757 1.326.757.568 0 .946-.19 1.325-.757l1.325-2.082.947 2.271c1.325 3.596 2.082 7.192 2.082 10.977C65.45 57.65 51.82 71.087 35.35 71.087zM7.711 44.779c1.893 13.627 13.44 24.037 27.639 24.037 15.334 0 27.828-12.492 27.828-27.822 0-2.84-.378-5.678-1.325-8.517-.568.378-1.136.568-1.893.568-1.325 0-2.461-.757-3.218-1.893l-7.005-11.924c-.568-.946-.946-1.703-1.136-2.839-3.975-2.082-8.518-3.406-13.251-3.406-6.815 0-13.252 2.46-18.363 7.002 3.408.757 6.247 3.029 7.951 6.246 2.082 3.975 1.893 8.517-.379 12.113l-7.193 12.113c-.758 1.136-1.893 1.893-3.219 1.893-1.325 0-2.46-.757-3.218-1.893z"/></g><g><path fill="#232323" d="M35.354 71.086c-2.65 0-5.49-.378-8.14-1.135h-.379l-.19-.379C22.67 63.516 20.21 53.295 20.02 42.13v-.379l2.65-4.542c2.083-3.596 1.893-8.139-.757-11.545l-.379-.379.19-.568c1.136-4.92 2.84-9.274 4.922-12.302l.19-.19.378-.188a29.744 29.744 0 0 1 16.28 0l.379.189.19.378c4.164 6.435 6.625 17.034 6.625 28.58 0 11.545-2.461 21.954-6.626 28.39l-.19.378-.378.189c-2.84.568-5.49.946-8.14.946zM28.16 67.87c4.544 1.135 9.466 1.135 14.198 0 3.787-6.057 6.058-16.088 6.058-26.876s-2.271-20.819-6.058-26.875c-4.543-1.136-9.465-1.136-14.198 0-1.704 2.838-3.218 6.435-4.165 10.788 2.84 3.974 3.03 9.274.568 13.627l-2.271 3.974c0 10.22 2.271 19.684 5.868 25.362z"/></g><g><path fill="#232323" d="M59.965 12.04c-2.271 0-3.975-1.704-3.975-3.975 0-2.272 1.704-3.975 3.975-3.975 2.272 0 3.976 1.703 3.976 3.975 0 2.081-1.893 3.974-3.976 3.974zm0-5.679c-.946 0-1.703.757-1.703 1.704 0 .946.757 1.703 1.703 1.703.947 0 1.704-.757 1.704-1.703 0-.947-.757-1.704-1.704-1.704z"/></g><g><path fill="#232323" d="M66.022 20.18c-.568 0-1.136-.567-1.136-1.135v-2.271c0-1.136-.946-1.893-1.893-1.893h-5.868c-1.136 0-1.893.946-1.893 1.893v2.082c0 .568-.568 1.135-1.136 1.135s-1.136-.567-1.136-1.135v-2.082c0-2.271 1.893-4.164 4.165-4.164h5.868c2.272 0 4.165 1.893 4.165 4.164v2.082c0 .757-.568 1.325-1.136 1.325z"/></g><g><path fill="#232323" d="M14.335 31.16c-2.271 0-3.975-1.704-3.975-3.975 0-2.272 1.704-3.975 3.975-3.975 2.272 0 3.976 1.703 3.976 3.975-.19 2.27-1.893 3.974-3.976 3.974zm0-5.679c-.946 0-1.703.757-1.703 1.704 0 .946.757 1.703 1.703 1.703.947 0 1.704-.757 1.704-1.703-.19-.947-.946-1.704-1.704-1.704z"/></g><g><path fill="#232323" d="M20.212 39.291c-.568 0-1.136-.567-1.136-1.135v-2.082c0-1.136-.946-1.893-1.893-1.893h-5.868c-1.136 0-1.893.947-1.893 1.893v2.082c0 .568-.568 1.135-1.136 1.135s-1.136-.567-1.136-1.135v-2.082c0-2.271 1.893-4.164 4.165-4.164h5.868c2.272 0 4.165 1.893 4.165 4.164v2.082c0 .568-.378 1.135-1.136 1.135z"/></g></g></g></svg>