<svg xmlns="http://www.w3.org/2000/svg" width="83" height="79" viewBox="0 0 83 79"><g><g><g><path fill="#ffe600" d="M2.97 28.58a3 3 0 0 1 3-3h50.423a3 3 0 0 1 3 3v46.711a3 3 0 0 1-3 3H5.97a3 3 0 0 1-3-3z"/></g><g><path fill="#232323" d="M74.47 75.318H7.948a1.128 1.128 0 0 1-1.137-1.133V17.283c0-.631.503-1.133 1.137-1.133.633 0 1.137.502 1.137 1.133v55.785h64.25V17.283c0-.631.503-1.133 1.137-1.133.633 0 1.137.502 1.137 1.133v56.918c0 .615-.52 1.117-1.137 1.117z"/></g><g><path fill="#232323" d="M81.27 20.339c-.096 0-.21-.017-.308-.049L41.204 8.974 1.445 20.306a1.134 1.134 0 0 1-.99-.178A1.164 1.164 0 0 1 0 19.205v-6.33c0-.501.341-.954.828-1.084L40.895.38c.211-.065.423-.065.617 0L81.58 11.79c.488.146.829.583.829 1.085v6.346c0 .356-.163.696-.455.906-.195.13-.439.21-.682.21zM41.205 6.676c.097 0 .211.016.308.048l38.622 10.992v-3.998l-38.93-11.09-38.93 11.09V17.7L40.895 6.708c.098-.016.211-.032.309-.032z"/></g><g><path fill="#232323" d="M15.787 75.315a1.128 1.128 0 0 1-1.137-1.133V54.173c0-.631.503-1.133 1.137-1.133h23.257c.634 0 1.137.502 1.137 1.133v20.009a1.114 1.114 0 0 1-1.12 1.133zm1.137-2.25h21V55.306h-21z"/></g><g><path fill="#232323" d="M30.79 62.818c-.227 0-.438-.065-.633-.195l-2.728-1.829-2.729 1.83a1.125 1.125 0 0 1-1.17.064 1.126 1.126 0 0 1-.6-1.004v-7.51c0-.632.503-1.134 1.137-1.134h6.724c.633 0 1.137.502 1.137 1.133v7.511c0 .421-.228.81-.601 1.004-.179.081-.358.13-.536.13zM27.43 58.3c.227 0 .438.065.633.194l1.592 1.069v-4.258h-4.45v4.258l1.591-1.069c.18-.13.406-.194.634-.194z"/></g><g><path fill="#232323" d="M43.367 75.315a1.128 1.128 0 0 1-1.137-1.133V54.173c0-.631.503-1.133 1.137-1.133h23.257c.634 0 1.137.502 1.137 1.133v20.009c0 .631-.52 1.133-1.137 1.133zm1.12-2.25h21V55.306h-21z"/></g><g><path fill="#232323" d="M58.35 62.818c-.227 0-.438-.065-.633-.195l-2.728-1.829-2.729 1.83a1.125 1.125 0 0 1-1.17.064 1.126 1.126 0 0 1-.6-1.004v-7.51c0-.632.503-1.134 1.137-1.134h6.724c.633 0 1.137.502 1.137 1.133v7.511c0 .421-.228.81-.601 1.004-.179.081-.358.13-.536.13zM54.99 58.3c.227 0 .438.065.633.194l1.592 1.069v-4.258h-4.45v4.258l1.591-1.069c.18-.13.406-.194.634-.194z"/></g><g><path fill="#232323" d="M15.787 55.305a1.128 1.128 0 0 1-1.137-1.133V34.163c0-.631.503-1.133 1.137-1.133h23.257c.634 0 1.137.502 1.137 1.133v20.009a1.114 1.114 0 0 1-1.12 1.133zm1.137-2.266h21V35.28h-21z"/></g><g><path fill="#232323" d="M30.79 42.808c-.227 0-.438-.065-.633-.195l-2.728-1.829-2.729 1.83a1.125 1.125 0 0 1-1.17.064 1.126 1.126 0 0 1-.6-1.004v-7.51c0-.632.503-1.134 1.137-1.134h6.724c.633 0 1.137.502 1.137 1.133v7.511c0 .421-.228.81-.601 1.004-.179.081-.358.13-.536.13zm-3.361-4.533c.227 0 .438.065.633.194l1.592 1.069V35.28h-4.45v4.258l1.591-1.069c.18-.13.406-.194.634-.194z"/></g><g><path fill="#232323" d="M43.367 55.305a1.128 1.128 0 0 1-1.137-1.133V34.163c0-.631.503-1.133 1.137-1.133h23.257c.634 0 1.137.502 1.137 1.133v20.009c0 .631-.52 1.133-1.137 1.133zm1.12-2.266h21V35.28h-21z"/></g><g><path fill="#232323" d="M58.35 42.808c-.227 0-.438-.065-.633-.195l-2.728-1.829-2.729 1.83a1.125 1.125 0 0 1-1.17.064 1.126 1.126 0 0 1-.6-1.004v-7.51c0-.632.503-1.134 1.137-1.134h6.724c.633 0 1.137.502 1.137 1.133v7.511c0 .421-.228.81-.601 1.004-.179.081-.358.13-.536.13zm-3.361-4.533c.227 0 .438.065.633.194l1.592 1.069V35.28h-4.45v4.258l1.591-1.069c.18-.13.406-.194.634-.194z"/></g><g><path fill="#232323" d="M74.47 25.346H7.948a1.128 1.128 0 0 1-1.137-1.133c0-.631.503-1.133 1.137-1.133h66.508c.633 0 1.136.502 1.136 1.133 0 .632-.503 1.133-1.12 1.133z"/></g></g></g></svg>