<svg xmlns="http://www.w3.org/2000/svg" width="10" height="10" viewBox="0 0 10 10"><defs><clipPath id="ezn4a"><path fill="#fff" d="M0 3a3 3 0 0 1 3-3h4a3 3 0 0 1 3 3v4a3 3 0 0 1-3 3H3a3 3 0 0 1-3-3z"/></clipPath><clipPath id="ezn4b"><path fill="#fff" d="M2 3a1 1 0 0 1 1-1h4a1 1 0 0 1 1 1v4a1 1 0 0 1-1 1H3a1 1 0 0 1-1-1z"/></clipPath></defs><g><g><g><path fill="none" stroke="#a1a1a1" stroke-miterlimit="50" stroke-width="2" d="M0 3a3 3 0 0 1 3-3h4a3 3 0 0 1 3 3v4a3 3 0 0 1-3 3H3a3 3 0 0 1-3-3z" clip-path="url(&quot;#ezn4a&quot;)"/></g><g><path fill="#a1a1a1" d="M2 3a1 1 0 0 1 1-1h4a1 1 0 0 1 1 1v4a1 1 0 0 1-1 1H3a1 1 0 0 1-1-1z"/><path fill="none" stroke="#a1a1a1" stroke-miterlimit="50" stroke-width="2" d="M2 3a1 1 0 0 1 1-1h4a1 1 0 0 1 1 1v4a1 1 0 0 1-1 1H3a1 1 0 0 1-1-1z" clip-path="url(&quot;#ezn4b&quot;)"/></g></g></g></svg>