<svg width="8" height="17" viewBox="0 0 8 17" fill="none" xmlns="http://www.w3.org/2000/svg">
<path d="M3.5 16C3.5 16.2761 3.72386 16.5 4 16.5C4.27614 16.5 4.5 16.2761 4.5 16H3.5ZM4.35355 0.646445C4.15829 0.451183 3.84171 0.451183 3.64645 0.646445L0.464466 3.82843C0.269204 4.02369 0.269204 4.34027 0.464466 4.53553C0.659728 4.73079 0.976311 4.73079 1.17157 4.53553L4 1.70711L6.82843 4.53553C7.02369 4.73079 7.34027 4.73079 7.53553 4.53553C7.7308 4.34027 7.7308 4.02369 7.53553 3.82843L4.35355 0.646445ZM4.5 16L4.5 0.999999H3.5L3.5 16H4.5Z" fill="#737373"/>
</svg>
