<svg width="1110" height="129" viewBox="0 0 1110 129" fill="none" xmlns="http://www.w3.org/2000/svg">
<g opacity="0.1">
<path d="M463.563 0V100.7H486.724V18.9891H532.182V100.7H555.343V0H463.563Z" fill="white" fill-opacity="0.6"/>
<path d="M624.182 22.154C613.825 22.154 605.481 25.4627 599.87 32.2239V23.3048H578.436V128.608H600.877V92.4999C606.632 98.8296 614.544 101.851 624.182 101.851C645.905 101.851 662.736 86.3141 662.736 62.0023C662.736 37.6905 645.905 22.154 624.182 22.154ZM620.298 83.437C609.077 83.437 600.59 75.381 600.59 62.0023C600.59 48.6236 609.077 40.5676 620.298 40.5676C631.519 40.5676 640.006 48.6236 640.006 62.0023C640.006 75.381 631.519 83.437 620.298 83.437Z" fill="white" fill-opacity="0.6"/>
<path d="M714.716 101.851C739.316 101.851 757.154 85.3071 757.154 62.0023C757.154 38.6975 739.316 22.154 714.716 22.154C690.117 22.154 672.135 38.6975 672.135 62.0023C672.135 85.3071 690.117 101.851 714.716 101.851ZM714.716 83.437C703.496 83.437 694.864 75.381 694.864 62.0023C694.864 48.6236 703.496 40.5676 714.716 40.5676C725.937 40.5676 734.425 48.6236 734.425 62.0023C734.425 75.381 725.937 83.437 714.716 83.437Z" fill="white" fill-opacity="0.6"/>
<path d="M809.417 101.851C825.673 101.851 838.476 94.6578 844.086 82.2861L826.68 72.7915C822.508 80.2721 816.322 83.437 809.273 83.437C797.908 83.437 788.989 75.5248 788.989 62.0023C788.989 48.4797 797.908 40.5676 809.273 40.5676C816.322 40.5676 822.508 43.8763 826.68 51.213L844.086 41.8623C838.476 29.2029 825.673 22.154 809.417 22.154C784.242 22.154 766.26 38.6975 766.26 62.0023C766.26 85.3071 784.242 101.851 809.417 101.851Z" fill="white" fill-opacity="0.6"/>
<path d="M922.466 23.3048H847.804V41.7185H873.986V100.7H896.284V41.7185H922.466V23.3048Z" fill="white" fill-opacity="0.6"/>
<path d="M967.449 101.851C992.049 101.851 1009.89 85.3071 1009.89 62.0023C1009.89 38.6975 992.049 22.154 967.449 22.154C942.85 22.154 924.868 38.6975 924.868 62.0023C924.868 85.3071 942.85 101.851 967.449 101.851ZM967.449 83.437C956.228 83.437 947.597 75.381 947.597 62.0023C947.597 48.6236 956.228 40.5676 967.449 40.5676C978.67 40.5676 987.158 48.6236 987.158 62.0023C987.158 75.381 978.67 83.437 967.449 83.437Z" fill="white" fill-opacity="0.6"/>
<path d="M1070.92 22.154C1060.57 22.154 1052.22 25.4627 1046.61 32.2239V23.3048H1025.18V128.608H1047.62V92.4999C1053.37 98.8296 1061.29 101.851 1070.92 101.851C1092.65 101.851 1109.48 86.3141 1109.48 62.0023C1109.48 37.6905 1092.65 22.154 1070.92 22.154ZM1067.04 83.437C1055.82 83.437 1047.33 75.381 1047.33 62.0023C1047.33 48.6236 1055.82 40.5676 1067.04 40.5676C1078.26 40.5676 1086.75 48.6236 1086.75 62.0023C1086.75 75.381 1078.26 83.437 1067.04 83.437Z" fill="white" fill-opacity="0.6"/>
<path d="M87.3211 0H0V18.9891H32.0801V100.7H55.0972V18.9891H87.3211V0Z" fill="white"/>
<path d="M167.598 62.29C167.598 37.4028 150.047 22.154 127.318 22.154C103.725 22.154 86.0309 38.8413 86.0309 62.0023C86.0309 85.0194 103.438 101.851 130.195 101.851C144.149 101.851 154.938 97.5349 162.131 89.3351L150.191 76.388C144.868 81.423 138.97 83.8685 130.77 83.8685C118.974 83.8685 110.774 77.9704 108.616 68.332H167.166C167.31 66.4619 167.598 64.0163 167.598 62.29ZM127.462 39.1291C137.532 39.1291 144.868 45.4588 146.451 55.241H108.329C109.911 45.3149 117.248 39.1291 127.462 39.1291Z" fill="white"/>
<path d="M256.779 100.7L226.857 61.1392L255.628 23.3048H231.748L214.916 45.8903L198.517 23.3048H173.342L202.113 61.7146L172.335 100.7H196.791L214.341 76.9634L231.316 100.7H256.779Z" fill="white"/>
<path d="M267.827 100.7H290.124V71.7846H323.787V100.7H346.229V23.3048H323.787V53.5147H290.124V23.3048H267.827V100.7Z" fill="white"/>
<path d="M403.963 101.851C428.563 101.851 446.401 85.3071 446.401 62.0023C446.401 38.6975 428.563 22.154 403.963 22.154C379.364 22.154 361.382 38.6975 361.382 62.0023C361.382 85.3071 379.364 101.851 403.963 101.851ZM403.963 83.437C392.743 83.437 384.111 75.381 384.111 62.0023C384.111 48.6236 392.743 40.5676 403.963 40.5676C415.184 40.5676 423.672 48.6236 423.672 62.0023C423.672 75.381 415.184 83.437 403.963 83.437Z" fill="white"/>
</g>
</svg>
