<svg xmlns="http://www.w3.org/2000/svg" width="248" height="30" viewBox="0 0 248 30"><g><g><path fill="#232323" d="M19.714 4.824h-7.168V23h-5.12V4.824H.29V.6h19.424zM37.475 15.8H24.451c.48 2.144 2.304 3.456 4.928 3.456 1.824 0 3.136-.544 4.32-1.664l2.656 2.88c-1.6 1.824-4 2.784-7.104 2.784-5.952 0-9.824-3.744-9.824-8.864 0-5.152 3.936-8.864 9.184-8.864 5.056 0 8.96 3.392 8.96 8.928 0 .384-.064.928-.096 1.344zm-13.088-2.912h8.48c-.352-2.176-1.984-3.584-4.224-3.584-2.272 0-3.904 1.376-4.256 3.584zM51.745 23l-3.776-5.28L44.065 23h-5.44l6.624-8.672-6.4-8.544h5.6l3.648 5.024 3.744-5.024h5.312l-6.4 8.416 6.656 8.8zm8.121-17.216h4.96v6.72h7.488v-6.72h4.992V23h-4.992v-6.432h-7.488V23h-4.96zm20.811 8.608c0-5.184 4-8.864 9.472-8.864 5.472 0 9.44 3.68 9.44 8.864 0 5.184-3.968 8.864-9.44 8.864-5.472 0-9.472-3.68-9.472-8.864zm13.856 0c0-2.976-1.888-4.768-4.384-4.768-2.496 0-4.416 1.792-4.416 4.768s1.92 4.768 4.416 4.768c2.496 0 4.384-1.792 4.384-4.768z"/></g><g><path fill="#5e5e5e" d="M124.416 1v22.4h-5.152V5.224h-10.112V23.4H104V1zm23.889 13.792c0 5.408-3.744 8.864-8.576 8.864-2.144 0-3.904-.672-5.184-2.08v8.032h-4.992V6.184h4.768v1.984c1.248-1.504 3.104-2.24 5.408-2.24 4.832 0 8.576 3.456 8.576 8.864zm-5.056 0c0-2.976-1.888-4.768-4.384-4.768-2.496 0-4.384 1.792-4.384 4.768s1.888 4.768 4.384 4.768c2.496 0 4.384-1.792 4.384-4.768zm7.147 0c0-5.184 4-8.864 9.472-8.864 5.472 0 9.44 3.68 9.44 8.864 0 5.184-3.968 8.864-9.44 8.864-5.472 0-9.472-3.68-9.472-8.864zm13.856 0c0-2.976-1.889-4.768-4.385-4.768-2.495 0-4.415 1.792-4.415 4.768s1.92 4.768 4.416 4.768c2.496 0 4.384-1.792 4.384-4.768zm7.081 0c0-5.184 4-8.864 9.6-8.864 3.616 0 6.464 1.568 7.712 4.384l-3.872 2.08c-.928-1.632-2.304-2.368-3.872-2.368-2.528 0-4.512 1.76-4.512 4.768s1.984 4.768 4.512 4.768c1.568 0 2.944-.704 3.872-2.368l3.872 2.112c-1.248 2.752-4.096 4.352-7.712 4.352-5.6 0-9.6-3.68-9.6-8.864zm34.747-4.512h-5.824V23.4h-4.96V10.28h-5.824V6.184h16.608zm.534 4.512c0-5.184 4-8.864 9.472-8.864 5.472 0 9.44 3.68 9.44 8.864 0 5.184-3.968 8.864-9.44 8.864-5.472 0-9.472-3.68-9.472-8.864zm13.856 0c0-2.976-1.888-4.768-4.384-4.768-2.496 0-4.416 1.792-4.416 4.768s1.92 4.768 4.416 4.768c2.496 0 4.384-1.792 4.384-4.768zm27.21 0c0 5.408-3.744 8.864-8.576 8.864-2.144 0-3.904-.672-5.184-2.08v8.032h-4.992V6.184h4.768v1.984c1.248-1.504 3.104-2.24 5.408-2.24 4.832 0 8.576 3.456 8.576 8.864zm-5.056 0c0-2.976-1.888-4.768-4.384-4.768-2.496 0-4.384 1.792-4.384 4.768s1.888 4.768 4.384 4.768c2.496 0 4.384-1.792 4.384-4.768z"/></g></g></svg>