<svg xmlns="http://www.w3.org/2000/svg" width="16" height="16" viewBox="0 0 16 16"><g><g><path fill="#232323" d="M14.222 0A1.778 1.778 0 0 1 16 1.778v12.444A1.778 1.778 0 0 1 14.222 16H1.778A1.778 1.778 0 0 1 0 14.222V1.778A1.778 1.778 0 0 1 1.778 0zm-12 4.889c-.373 0-.444.178-.444.373 0 .347.444 2.062 2.07 4.338C4.925 11.156 6.454 12 7.84 12c.836 0 .933-.187.933-.507V10.32c0-.382.08-.453.347-.453.213 0 .524.097 1.307.844.889.889 1.03 1.289 1.529 1.289h1.315c.373 0 .56-.187.453-.56-.124-.364-.542-.898-1.11-1.529-.303-.364-.765-.755-.898-.942-.196-.258-.16-.365 0-.587 0 0 1.59-2.249 1.76-3.013.088-.276 0-.48-.4-.48h-1.307c-.329 0-.48.178-.569.373 0 0-.667 1.618-1.609 2.676-.302.302-.444.4-.613.4-.09 0-.205-.098-.205-.374V5.37c0-.329-.089-.48-.373-.48H6.347c-.214 0-.338.151-.338.302 0 .311.471.391.524 1.28V8.4c0 .418-.08.489-.249.489-.444 0-1.52-1.627-2.16-3.493-.124-.365-.248-.507-.568-.507z"/></g></g></svg>