<svg xmlns="http://www.w3.org/2000/svg" width="16" height="16" viewBox="0 0 16 16"><g><g><path fill="#737373" d="M12.85 10.02a.507.507 0 0 0-.146.448l.661 3.858c.075.434-.1.864-.456 1.122a1.143 1.143 0 0 1-1.208.088l-3.465-1.822a.507.507 0 0 0-.472 0L4.3 15.536c-.39.205-.852.172-1.208-.088a1.14 1.14 0 0 1-.456-1.122l.661-3.858a.507.507 0 0 0-.146-.449L.347 7.287a1.14 1.14 0 0 1-.29-1.176 1.14 1.14 0 0 1 .926-.78l3.874-.564a.507.507 0 0 0 .382-.277L6.97.98A1.14 1.14 0 0 1 8 .34c.44 0 .835.245 1.029.64l1.732 3.51c.074.15.216.253.381.277l3.874.563c.436.063.79.362.927.781.136.419.025.87-.29 1.176zm-.778.557c-.064-.373.06-.753.33-1.016l2.803-2.733a.497.497 0 0 0 .128-.519.497.497 0 0 0-.409-.345l-3.874-.563a1.145 1.145 0 0 1-.863-.628l-1.733-3.51A.497.497 0 0 0 8 .981a.497.497 0 0 0-.455.282l-1.732 3.51c-.167.34-.49.574-.864.628l-3.874.563a.497.497 0 0 0-.409.345.497.497 0 0 0 .128.52L3.598 9.56c.27.263.394.643.33 1.016l-.662 3.858a.498.498 0 0 0 .202.495.5.5 0 0 0 .534.04l3.464-1.823a1.15 1.15 0 0 1 1.068 0l3.465 1.822a.499.499 0 0 0 .533-.039.497.497 0 0 0 .202-.495z"/></g></g></svg>