<svg xmlns="http://www.w3.org/2000/svg" width="16" height="16" viewBox="0 0 16 16"><g><g><path class="header-number__img" fill="#232323" d="M0 1.263C0 .567.567 0 1.263 0h2.948c.696 0 1.263.567 1.263 1.263a9.156 9.156 0 0 0 .458 2.875c.148.47.023.96-.324 1.282L4.406 6.63a12.34 12.34 0 0 0 4.956 4.954l1.212-1.213a1.282 1.282 0 0 1 1.283-.305c.926.305 1.895.46 2.88.46.696 0 1.263.567 1.263 1.263v2.948c0 .696-.567 1.263-1.263 1.263C6.61 16 0 9.39 0 1.263zm1.263-.42a.421.421 0 0 0-.42.42c0 7.662 6.232 13.895 13.894 13.895.231 0 .42-.19.42-.421V11.79a.422.422 0 0 0-.42-.422 9.966 9.966 0 0 1-3.139-.501.435.435 0 0 0-.434.106l-1.641 1.642c-2.731-1.39-4.768-3.427-6.146-6.145l1.647-1.656a.398.398 0 0 0 .107-.418 9.973 9.973 0 0 1-.5-3.133.421.421 0 0 0-.42-.42z"/></g></g></svg>