<svg width="40" height="30" viewBox="0 0 40 30" fill="none" xmlns="http://www.w3.org/2000/svg">
<path d="M2 12.5H2.5V12V2C2.5 1.60218 2.65804 1.22064 2.93934 0.93934C3.22064 0.658036 3.60218 0.5 4 0.5H12C12.3978 0.5 12.7794 0.658036 13.0607 0.93934C13.342 1.22065 13.5 1.60218 13.5 2V12V12.5H14H18H18.5V12V8C18.5 7.60218 18.658 7.22065 18.9393 6.93934C19.2206 6.65804 19.6022 6.5 20 6.5C20.3978 6.5 20.7794 6.65804 21.0607 6.93934C21.342 7.22065 21.5 7.60218 21.5 8V12V12.5H22H26C26.3978 12.5 26.7794 12.658 27.0607 12.9393C27.342 13.2206 27.5 13.6022 27.5 14L27.5 14.0051L27.5549 19.44H25.6923C24.8588 18.2338 23.4797 17.5 22 17.5H4C2.66102 17.5 1.40446 18.1008 0.56 19.1088V13.5845C0.742869 12.9398 1.32701 12.5 2 12.5ZM6 3.5H5.5V4V14V14.5H6H10H10.5V14V4V3.5H10H6ZM33.5068 26.0822L33.5563 26.3791L33.8419 26.4743L39.5 28.3604V29.5H30.5V14.5H31.5764L33.5068 26.0822ZM1.52513 23.5251C2.1815 22.8687 3.07174 22.5 4 22.5H22C22.9283 22.5 23.8185 22.8687 24.4749 23.5251C25.1313 24.1815 25.5 25.0717 25.5 26C25.5 26.9283 25.1313 27.8185 24.4749 28.4749C23.8185 29.1313 22.9283 29.5 22 29.5H4C3.07174 29.5 2.1815 29.1313 1.52513 28.4749C0.868749 27.8185 0.5 26.9283 0.5 26C0.5 25.0717 0.868749 24.1815 1.52513 23.5251Z" stroke="black"/>
</svg>
