<svg xmlns="http://www.w3.org/2000/svg" width="22" height="24" viewBox="0 0 22 24"><g><g><g/><g><path fill="#ffe600" d="M.5 0h21v16.5H.5z"/></g><g><g><path d="M4.685 5.74A1.927 1.927 0 0 1 2.76 3.815c0-1.061.864-1.925 1.925-1.925s1.925.864 1.925 1.925A1.927 1.927 0 0 1 4.685 5.74zm0-.938a.988.988 0 0 0 0-1.974.988.988 0 0 0 0 1.974z"/></g><g><path d="M21.115 14.175c0 1.08-1.5 1.895-3.488 1.895-.388 0-.758-.031-1.101-.09l-1.11 1.142a.468.468 0 0 1-.662.009.469.469 0 0 1-.01-.663l.751-.772c-.835-.34-1.356-.884-1.356-1.52 0-.1.013-.195.037-.29l-1.289-.286a.469.469 0 1 1 .204-.915l1.68.374c.621-.478 1.648-.779 2.856-.779 1.988 0 3.488.815 3.488 1.895zm-.937 0c0-.381-1.018-.958-2.551-.958-1.164 0-2.03.333-2.38.66a.407.407 0 0 1-.041.04c-.085.09-.13.178-.13.258 0 .381 1.018.958 2.55.958 1.534 0 2.552-.577 2.552-.958z"/></g><g><path d="M12.05 20.588c.835.34 1.356.884 1.356 1.52 0 1.08-1.5 1.896-3.488 1.896s-3.488-.815-3.488-1.896c0-1.08 1.5-1.895 3.488-1.895.389 0 .758.032 1.101.09l1.11-1.14a.469.469 0 0 1 .672.652zm.419 1.52c0-.38-1.018-.957-2.55-.957-1.534 0-2.552.576-2.552.957 0 .382 1.018.958 2.551.958 1.533 0 2.55-.576 2.55-.958z"/></g><g><path d="M7.55 12.412c-.62.478-1.648.78-2.856.78-1.988 0-3.488-.815-3.488-1.896 0-.868.976-1.461 2.098-1.734L1.211 5.368a3.787 3.787 0 0 1-.33-1.554A3.819 3.819 0 0 1 4.693 0a3.819 3.819 0 0 1 3.484 5.368l-2.092 4.19c1.12.266 2.096.86 2.096 1.738 0 .099-.012.195-.036.288l1.288.287a.469.469 0 1 1-.203.915zM2.055 4.96l2.64 5.287L7.333 4.96A2.88 2.88 0 0 0 4.694.937 2.88 2.88 0 0 0 2.055 4.96zm2.64 7.294c1.163 0 2.03-.333 2.38-.66a.459.459 0 0 1 .04-.04c.085-.09.13-.178.13-.258 0-.257-.598-.684-1.591-.873l-.54 1.082a.469.469 0 0 1-.839 0l-.539-1.079c-.982.196-1.592.624-1.592.87 0 .381 1.017.958 2.55.958z"/></g><g><path d="M13.769 17.67a.47.47 0 1 0 .001.94.47.47 0 0 0-.001-.94z"/></g><g><path d="M11.159 13.207a.47.47 0 0 0 0-.937.47.47 0 0 0 0 .938z"/></g></g></g></g></svg>