<svg xmlns="http://www.w3.org/2000/svg" width="16" height="24" viewBox="0 0 16 24"><g><g><g/><g><path fill="#ffe600" d="M8 1.5h7.5v21H8z"/></g><g><path d="M9.049 10.913a.352.352 0 0 1-.352.352H2.172a.352.352 0 0 1-.352-.352V9.452c0-.195.157-.352.352-.352h6.525c.194 0 .352.157.352.352zm-.703-1.11H2.523v.759h5.823z"/></g><g><path d="M9.352 20.355A.352.352 0 0 1 9 20.003v-1.461c0-.195.157-.352.352-.352h4.536c.194 0 .352.157.352.352v1.461a.352.352 0 0 1-.352.352zm.351-.703h3.834v-.759H9.703z"/></g><g><path d="M13.89 6.97H2.172a.352.352 0 1 0 0 .703H13.89a.352.352 0 1 0 0-.703z"/></g><g><path d="M6.424 12.802a.352.352 0 0 0-.352-.352h-3.9a.352.352 0 1 0 0 .703h3.9a.352.352 0 0 0 .352-.351z"/></g><g><path d="M5.434 14.23H2.172a.351.351 0 1 0 0 .703h3.262a.352.352 0 1 0 0-.703z"/></g><g><path d="M5.434 16H2.172a.352.352 0 1 0 0 .703h3.262a.351.351 0 1 0 0-.703z"/></g><g><path d="M13.893 16h-1.631a.352.352 0 1 0 0 .703h1.631a.352.352 0 1 0 0-.703z"/></g><g><path d="M13.893 14.23h-1.631a.352.352 0 1 0 0 .703h1.631a.352.352 0 0 0 0-.703z"/></g><g><path d="M13.893 12.45h-1.631a.352.352 0 1 0 0 .703h1.631a.352.352 0 1 0 0-.703z"/></g><g><path d="M15.313 8.27a.352.352 0 0 0 .352-.351V.352A.352.352 0 0 0 15.313 0c-1.114 0-1.208 1.406-1.82 1.406-.61 0-.703-1.406-1.818-1.406-1.114 0-1.208 1.406-1.82 1.406-.612 0-.7-1.406-1.818-1.406-1.114 0-1.208 1.406-1.82 1.406C5.608 1.406 5.515 0 4.4 0 3.285 0 3.192 1.406 2.58 1.406 1.967 1.406 1.88 0 .762 0A.352.352 0 0 0 .41.352v23.296c0 .194.157.352.352.352 1.114 0 1.207-1.406 1.818-1.406.613 0 .701 1.406 1.82 1.406 1.113 0 1.207-1.406 1.818-1.406.613 0 .701 1.406 1.819 1.406 1.114 0 1.208-1.406 1.819-1.406.613 0 .701 1.406 1.819 1.406 1.114 0 1.207-1.406 1.819-1.406.611 0 .704 1.406 1.82 1.406a.352.352 0 0 0 .35-.352V9.231a.352.352 0 0 0-.702 0V23.12c-.351-.388-.607-1.228-1.468-1.228-1.114 0-1.208 1.406-1.82 1.406-.61 0-.704-1.406-1.818-1.406s-1.208 1.406-1.82 1.406c-.612 0-.7-1.406-1.818-1.406-1.114 0-1.208 1.406-1.819 1.406-.613 0-.701-1.406-1.819-1.406-.86 0-1.116.84-1.467 1.228V.881c.35.387.607 1.228 1.468 1.228C3.695 2.11 3.788.703 4.399.703c.614 0 .701 1.406 1.819 1.406C7.332 2.11 7.426.703 8.037.703c.613 0 .701 1.406 1.819 1.406 1.114 0 1.207-1.406 1.819-1.406.611 0 .703 1.406 1.819 1.406.86 0 1.117-.84 1.468-1.228v7.038c0 .194.157.351.351.351z"/></g><g><path d="M14.242 3.992a.352.352 0 0 0-.352-.352H5.434a.352.352 0 1 0 0 .703h8.105v.759H2.523v-.759h1.599a.351.351 0 1 0 0-.703h-1.95a.352.352 0 0 0-.352.352v1.461c0 .195.157.352.352.352H13.89a.352.352 0 0 0 .352-.352z"/></g></g></g></svg>