<svg xmlns="http://www.w3.org/2000/svg" width="24" height="24" viewBox="0 0 24 24"><g><g><g/><g><path fill="#ffe600" d="M13.5 0H24v15H13.5z"/></g><g><g><g><g><path d="M22.98.6c.563 0 1.02.457 1.02 1.02v12.376a1.02 1.02 0 0 1-1.02 1.015H7.342c.16.168.33.343.516.53 1.731 1.732 2.588 2.199 3.277 2.574l.209.115a.383.383 0 0 0 .49-.103l1.1-1.414a1.192 1.192 0 0 1 1.595-.259l3.776 2.518c.528.35.687 1.055.36 1.598l-.947 1.579a2.318 2.318 0 0 1-1.371 1.056 5.59 5.59 0 0 1-1.485.194c-2.164 0-5.306-1.134-9.519-5.343C.046 12.758-.38 9.15.194 7.054a2.314 2.314 0 0 1 1.057-1.372l1.577-.948a1.185 1.185 0 0 1 1.6.36l.767 1.15V1.62C5.196 1.057 5.652.6 6.215.6zM10.752 18.818c-.734-.4-1.646-.898-3.459-2.71-1.813-1.813-2.31-2.726-2.71-3.46l-.112-.203a1.178 1.178 0 0 1 .31-1.51l1.415-1.1a.388.388 0 0 0 .084-.52L3.762 5.538a.387.387 0 0 0-.52-.117l-1.58.948a1.52 1.52 0 0 0-.695.896c-.519 1.89-.08 5.2 4.943 10.224 5.024 5.024 8.334 5.464 10.225 4.944a1.52 1.52 0 0 0 .897-.697l.947-1.578a.387.387 0 0 0-.117-.52l-3.777-2.518a.389.389 0 0 0-.52.085l-1.1 1.413c-.356.464-.999.597-1.51.311zM23.2 13.996V1.62a.217.217 0 0 0-.22-.22H6.216a.218.218 0 0 0-.22.22v5.825l.95 1.427c.343.518.23 1.212-.259 1.595l-1.414 1.1a.382.382 0 0 0-.103.489l.115.21c.368.699.816 1.352 1.335 1.946h16.36c.12.001.218-.096.22-.216z"/></g><g><path d="M21.598 2.451L14.91 7.523a.54.54 0 0 1-.635 0L7.592 2.45a.4.4 0 1 0-.484.638l6.686 5.07a1.347 1.347 0 0 0 1.6 0l6.687-5.07a.4.4 0 1 0-.483-.638z"/></g><g><path d="M11.186 8.192L7.087 12.58a.4.4 0 0 0 .586.546l4.098-4.392a.4.4 0 0 0-.585-.543z"/></g><g><path d="M18.043 8.197a.4.4 0 1 0-.586.546l4.098 4.39a.4.4 0 1 0 .585-.547z"/></g></g></g></g></g></g></svg>