<svg xmlns="http://www.w3.org/2000/svg" width="20" height="24" viewBox="0 0 20 24"><g><g><g/><g><path fill="#ffe600" d="M1 1.5h9v21H1z"/></g><g><g><path d="M19.4 5.834V24H.6V0h12.966zM13.8 5.6h4.234L13.8 1.366zm4.8 17.6V6.4H13V.8H1.4v22.4z"/></g><g><path d="M4.6 6.8h3.6a.4.4 0 1 0 0-.8H4.6a.4.4 0 1 0 0 .8z"/></g><g><path d="M4.6 10h2a.4.4 0 1 0 0-.8h-2a.4.4 0 1 0 0 .8z"/></g><g><path d="M10.6 10h2.8a.4.4 0 1 0 0-.8h-2.8a.4.4 0 1 0 0 .8z"/></g><g><path d="M8.316 9.325a.403.403 0 0 0 0 .564.42.42 0 0 0 .284.116.404.404 0 0 0 .4-.4.42.42 0 0 0-.116-.284.415.415 0 0 0-.568.004z"/></g><g><path d="M15.4 10.005a.42.42 0 0 0 .284-.116.42.42 0 0 0 .116-.284.42.42 0 0 0-.116-.284.419.419 0 0 0-.568 0 .417.417 0 0 0-.116.284c0 .104.044.208.116.284a.42.42 0 0 0 .284.116z"/></g><g><path d="M9.4 12.4H6.6a.4.4 0 1 0 0 .8h2.8a.4.4 0 1 0 0-.8z"/></g><g><path d="M4.6 13.205a.42.42 0 0 0 .284-.116.404.404 0 0 0 0-.568.419.419 0 0 0-.568 0 .395.395 0 0 0-.116.284c0 .104.044.208.116.284a.42.42 0 0 0 .284.116z"/></g><g><path d="M5.855 16.069c-.876.456-1.171 1.328-1.279 2.233l-.497-.416c-.392-.329-.96.234-.565.566l1.122.94c.263.22.67.081.683-.283.03-.866.07-1.896.94-2.349.456-.238.052-.929-.404-.691z"/></g><g><path d="M8.52 17.661c-.554.129-1.184.833-1.574.043-.228-.462-.918-.057-.69.403.206.42.6.714 1.067.773.237.03.452-.004.675-.09.164-.064.775-.524.907-.287.251.45.942.046.69-.404-.214-.385-.649-.537-1.075-.438z"/></g><g><path d="M17.4 14.8c0 .453-.275.843-.702.995a.257.257 0 0 0-.145.351c.194.408.113.88-.207 1.2a1.049 1.049 0 0 1-.546.29v4.93l-2-2-2 2v-4.93c-.2-.038-.39-.136-.546-.29a1.046 1.046 0 0 1-.207-1.2.254.254 0 0 0-.145-.351 1.044 1.044 0 0 1-.702-.995c0-.453.275-.843.702-.995a.257.257 0 0 0 .145-.351 1.045 1.045 0 0 1 .207-1.2c.321-.32.792-.4 1.2-.207a.254.254 0 0 0 .35-.145c.153-.427.543-.702.996-.702.453 0 .843.275.995.702a.255.255 0 0 0 .351.145c.408-.194.88-.112 1.2.207.32.32.4.792.207 1.2a.254.254 0 0 0 .145.351c.427.152.702.542.702.995zM15 20.634v-3.103l-.01.002a.258.258 0 0 0-.194.165 1.044 1.044 0 0 1-.996.702c-.453 0-.843-.275-.995-.702a.248.248 0 0 0-.195-.165l-.01-.002v3.103l1.2-1.2zm1.6-5.834a.244.244 0 0 0-.17-.24 1.057 1.057 0 0 1-.6-1.449.245.245 0 0 0-.05-.29.243.243 0 0 0-.29-.051 1.054 1.054 0 0 1-1.449-.6.245.245 0 0 0-.241-.17.244.244 0 0 0-.24.17 1.057 1.057 0 0 1-1.449.6.246.246 0 0 0-.29.05.245.245 0 0 0-.051.29 1.058 1.058 0 0 1-.6 1.449.245.245 0 0 0-.17.241c0 .054.016.187.17.24a1.057 1.057 0 0 1 .6 1.449.245.245 0 0 0 .05.29.25.25 0 0 0 .231.067l.091-.028c.124-.06.27-.09.419-.09h.003c.018 0 .036.004.054.005.049.003.097.005.146.015.06.011.12.03.178.052.008.004.017.004.026.008.02.008.036.021.055.03.048.024.096.046.14.076.055.038.105.083.153.13l.013.012c.101.106.18.233.23.374.054.154.187.17.241.17a.244.244 0 0 0 .24-.17c.05-.14.13-.267.23-.373l.017-.015c.046-.046.095-.09.15-.127.045-.031.095-.055.144-.079.017-.008.032-.02.05-.027.068-.028.138-.049.209-.062.033-.006.066-.005.1-.009.038-.003.076-.01.115-.008.033 0 .064.007.097.01.04.005.08.008.12.016.028.007.055.02.083.028.037.012.076.02.112.037l.088.027a.25.25 0 0 0 .225-.068.245.245 0 0 0 .05-.29 1.058 1.058 0 0 1 .6-1.449.245.245 0 0 0 .17-.241z"/></g></g></g></g></svg>